<svg width="22" height="19" viewBox="0 0 22 19" fill="none" xmlns="http://www.w3.org/2000/svg">
    <path d="M12.125 9.15686V17.7819C12.125 18.0802 12.0065 18.3664 11.7955 18.5774C11.5845 18.7883 11.2984 18.9069 11 18.9069C10.7016 18.9069 10.4155 18.7883 10.2045 18.5774C9.99353 18.3664 9.875 18.0802 9.875 17.7819V9.15686C9.875 8.85849 9.99353 8.57234 10.2045 8.36137C10.4155 8.15039 10.7016 8.03186 11 8.03186C11.2984 8.03186 11.5845 8.15039 11.7955 8.36137C12.0065 8.57234 12.125 8.85849 12.125 9.15686ZM17.75 15.5319C17.4516 15.5319 17.1655 15.6504 16.9545 15.8614C16.7435 16.0723 16.625 16.3585 16.625 16.6569V17.7819C16.625 18.0802 16.7435 18.3664 16.9545 18.5774C17.1655 18.7883 17.4516 18.9069 17.75 18.9069C18.0484 18.9069 18.3345 18.7883 18.5455 18.5774C18.7565 18.3664 18.875 18.0802 18.875 17.7819V16.6569C18.875 16.3585 18.7565 16.0723 18.5455 15.8614C18.3345 15.6504 18.0484 15.5319 17.75 15.5319ZM20 11.7819H18.875V1.28186C18.875 0.983492 18.7565 0.697344 18.5455 0.486365C18.3345 0.275387 18.0484 0.15686 17.75 0.15686C17.4516 0.15686 17.1655 0.275387 16.9545 0.486365C16.7435 0.697344 16.625 0.983492 16.625 1.28186V11.7819H15.5C15.2016 11.7819 14.9155 11.9004 14.7045 12.1114C14.4935 12.3223 14.375 12.6085 14.375 12.9069C14.375 13.2052 14.4935 13.4914 14.7045 13.7024C14.9155 13.9133 15.2016 14.0319 15.5 14.0319H20C20.2984 14.0319 20.5845 13.9133 20.7955 13.7024C21.0065 13.4914 21.125 13.2052 21.125 12.9069C21.125 12.6085 21.0065 12.3223 20.7955 12.1114C20.5845 11.9004 20.2984 11.7819 20 11.7819ZM4.25 12.5319C3.95163 12.5319 3.66548 12.6504 3.4545 12.8614C3.24353 13.0723 3.125 13.3585 3.125 13.6569V17.7819C3.125 18.0802 3.24353 18.3664 3.4545 18.5774C3.66548 18.7883 3.95163 18.9069 4.25 18.9069C4.54837 18.9069 4.83452 18.7883 5.0455 18.5774C5.25647 18.3664 5.375 18.0802 5.375 17.7819V13.6569C5.375 13.3585 5.25647 13.0723 5.0455 12.8614C4.83452 12.6504 4.54837 12.5319 4.25 12.5319ZM6.5 8.78186H5.375V1.28186C5.375 0.983492 5.25647 0.697344 5.0455 0.486365C4.83452 0.275387 4.54837 0.15686 4.25 0.15686C3.95163 0.15686 3.66548 0.275387 3.4545 0.486365C3.24353 0.697344 3.125 0.983492 3.125 1.28186V8.78186H2C1.70163 8.78186 1.41548 8.90039 1.2045 9.11137C0.993526 9.32234 0.875 9.60849 0.875 9.90686C0.875 10.2052 0.993526 10.4914 1.2045 10.7024C1.41548 10.9133 1.70163 11.0319 2 11.0319H6.5C6.79837 11.0319 7.08452 10.9133 7.2955 10.7024C7.50647 10.4914 7.625 10.2052 7.625 9.90686C7.625 9.60849 7.50647 9.32234 7.2955 9.11137C7.08452 8.90039 6.79837 8.78186 6.5 8.78186ZM13.25 4.28186H12.125V1.28186C12.125 0.983492 12.0065 0.697344 11.7955 0.486365C11.5845 0.275387 11.2984 0.15686 11 0.15686C10.7016 0.15686 10.4155 0.275387 10.2045 0.486365C9.99353 0.697344 9.875 0.983492 9.875 1.28186V4.28186H8.75C8.45163 4.28186 8.16548 4.40039 7.9545 4.61137C7.74353 4.82234 7.625 5.10849 7.625 5.40686C7.625 5.70523 7.74353 5.99138 7.9545 6.20236C8.16548 6.41333 8.45163 6.53186 8.75 6.53186H13.25C13.5484 6.53186 13.8345 6.41333 14.0455 6.20236C14.2565 5.99138 14.375 5.70523 14.375 5.40686C14.375 5.10849 14.2565 4.82234 14.0455 4.61137C13.8345 4.40039 13.5484 4.28186 13.25 4.28186Z" fill="#FF7500"/>
</svg>
