<svg width="25" height="25" viewBox="0 0 25 25" fill="none" xmlns="http://www.w3.org/2000/svg">
    <path d="M18.16 11.6683C17.93 11.3683 17.65 11.1083 17.39 10.8483C16.72 10.2483 15.96 9.81826 15.32 9.18826C13.83 7.72826 13.5 5.31826 14.45 3.46826C13.5 3.69826 12.67 4.21826 11.96 4.78826C9.37005 6.86826 8.35005 10.5383 9.57005 13.6883C9.61005 13.7883 9.65005 13.8883 9.65005 14.0183C9.65005 14.2383 9.50005 14.4383 9.30005 14.5183C9.07005 14.6183 8.83005 14.5583 8.64005 14.3983C8.58329 14.3507 8.53583 14.2931 8.50005 14.2283C7.37005 12.7983 7.19005 10.7483 7.95005 9.10826C6.28005 10.4683 5.37005 12.7683 5.50005 14.9383C5.56005 15.4383 5.62005 15.9383 5.79005 16.4383C5.93005 17.0383 6.20005 17.6383 6.50005 18.1683C7.58005 19.8983 9.45005 21.1383 11.46 21.3883C13.6 21.6583 15.89 21.2683 17.5301 19.7883C19.3601 18.1283 20 15.4683 19.06 13.1883L18.93 12.9283C18.72 12.4683 18.16 11.6683 18.16 11.6683ZM15 17.9683C14.72 18.2083 14.26 18.4683 13.9 18.5683C12.78 18.9683 11.66 18.4083 11 17.7483C12.19 17.4683 12.9 16.5883 13.11 15.6983C13.28 14.8983 12.96 14.2383 12.83 13.4683C12.71 12.7283 12.73 12.0983 13 11.4083C13.19 11.7883 13.39 12.1683 13.63 12.4683C14.4 13.4683 15.61 13.9083 15.87 15.2683C15.91 15.4083 15.93 15.5483 15.93 15.6983C15.96 16.5183 15.6 17.4183 15 17.9683Z" fill="#FF7500"/>
</svg>
