<svg width="21" height="19" viewBox="0 0 21 19" fill="none" xmlns="http://www.w3.org/2000/svg">
    <path d="M10.6 16.1409L10.5 16.2409L10.39 16.1409C5.64 11.8309 2.5 8.98094 2.5 6.09094C2.5 4.09094 4 2.59094 6 2.59094C7.54 2.59094 9.04 3.59094 9.57 4.95094H11.43C11.96 3.59094 13.46 2.59094 15 2.59094C17 2.59094 18.5 4.09094 18.5 6.09094C18.5 8.98094 15.36 11.8309 10.6 16.1409ZM15 0.590942C13.26 0.590942 11.59 1.40094 10.5 2.67094C9.41 1.40094 7.74 0.590942 6 0.590942C2.92 0.590942 0.5 3.00094 0.5 6.09094C0.5 9.86094 3.9 12.9509 9.05 17.6209L10.5 18.9409L11.95 17.6209C17.1 12.9509 20.5 9.86094 20.5 6.09094C20.5 3.00094 18.08 0.590942 15 0.590942Z" fill="#19191A"/>
</svg>
