<svg width="57" height="48" viewBox="0 0 57 48" fill="none" xmlns="http://www.w3.org/2000/svg">
    <path d="M48.2024 26.3212C48.2024 38.2798 38.4822 48 26.5236 48C14.5649 48 4.84473 38.2798 4.84473 26.3212C4.84473 14.3625 14.5649 4.64233 26.5236 4.64233C38.4822 4.64233 48.2024 14.3319 48.2024 26.3212Z" fill="#FDDDA7"/>
    <path fill-rule="evenodd" clip-rule="evenodd" d="M19.5632 20.7098C19.8699 21.5683 20.8818 21.2004 21.679 20.8017C22.0776 20.6178 22.7215 20.1885 23.2428 20.1272C23.5495 20.0965 23.7948 20.2805 24.0094 20.3725C24.408 20.5871 24.7453 20.4031 24.868 20.0965C24.868 20.0965 25.0519 20.3111 24.8986 20.4338C24.776 20.5564 24.592 20.9857 25.2359 21.139C25.9105 21.2924 25.7879 21.415 26.1865 21.323C26.7691 21.2004 27.229 20.6791 26.7691 20.1272C26.9837 20.1578 27.1984 20.4031 27.2904 20.5871C27.6583 20.3111 28.1796 20.3111 28.6089 20.4951C29.0995 20.7098 30.1727 21.3843 29.958 20.1272C31.2152 21.2617 30.234 25.0946 26.7997 23.1321C26.2785 22.8255 26.0025 22.8562 25.4812 23.1015C24.8986 23.3775 24.1627 23.8374 23.3655 24.052C21.1884 24.6653 19.0726 22.8868 19.5632 20.7098Z" fill="#19191A"/>
    <path d="M20.0538 10.959C18.7353 12.6148 18.6739 14.6386 19.6858 16.9997C19.6858 16.9997 24.0093 10.8977 30.1726 15.9571C30.1726 15.9571 31.0005 9.70183 26.493 9.18056C26.493 9.18056 28.6394 8.26066 30.2339 10.6217C33.9135 15.0065 37.7464 3.75319 31.6444 0.809528C31.6444 0.809528 28.4555 -0.754291 24.7146 1.57611C24.7146 1.57611 26.2477 2.22003 26.3704 2.86396C24.132 2.46534 22.1389 1.94406 20.7284 1.17749C20.7284 1.17749 15.9756 0.196266 16.3435 6.57419C16.3435 6.57419 18.7046 5.71563 19.2565 6.57419C11.4681 7.0648 10.9775 16.1411 17.9073 14.4546C17.8767 14.4853 18.4593 11.419 20.0538 10.959Z" fill="white"/>
    <path d="M18.7045 13.688C18.7351 13.2281 18.8271 12.7681 18.9498 12.3388C18.3978 13.2894 18.1832 14.5159 18.1832 14.5159L18.1525 14.6999L17.9685 14.7306C15.8221 15.2518 14.3196 14.7919 13.4917 13.8413C13.0318 13.32 12.7865 12.6761 12.7251 12.0015C12.6638 11.3269 12.8171 10.591 13.1544 9.85512C13.829 8.44462 15.2702 7.1261 17.4473 6.5435C16.8953 6.66615 16.4047 6.81947 16.4047 6.81947L16.0368 6.94212L16.0061 6.63549C15.6075 -0.110394 20.7282 0.932152 20.7282 0.932152H20.7895L20.8202 0.962816C21.4948 1.33077 22.3534 1.6374 23.2733 1.91337C24.0092 2.12801 24.8064 2.31199 25.6343 2.46531C25.205 2.12801 24.5611 1.85205 24.5611 1.85205L24.0705 1.6374L24.5305 1.33077C28.4247 -1.09161 31.7363 0.533532 31.7363 0.533532C34.4653 1.85205 35.3239 4.76504 35.0786 7.27942C34.9866 8.38329 34.6799 9.39517 34.22 10.1924C33.7601 11.0203 33.1468 11.6336 32.4415 11.8176C31.675 12.0322 30.8164 11.7562 29.9885 10.775L29.9578 10.7443C29.3446 9.85512 28.6393 9.4565 28.0567 9.33384C31.0924 10.959 30.4484 15.9264 30.4484 15.9571L30.3871 16.4784L29.9885 16.1411C24.0705 11.2656 19.931 17.1223 19.931 17.1223L19.6244 17.5516L19.4097 17.061C18.8884 15.8958 18.6431 14.7612 18.7045 13.688ZM20.2683 11.143C19.655 11.9095 19.3177 12.7681 19.2564 13.7187C19.2257 14.5466 19.379 15.4665 19.747 16.417C20.8509 15.1292 24.7144 11.4803 29.8965 15.3745C29.9885 13.9026 29.8658 9.85512 26.4316 9.4565L25.297 9.33384L26.3396 8.90456C26.3396 8.90456 28.7006 7.89268 30.4178 10.4377C31.0617 11.2043 31.7056 11.4189 32.2576 11.2656C32.8095 11.1123 33.3001 10.6217 33.6681 9.91644C34.0667 9.18053 34.3427 8.22997 34.4346 7.21809C34.6493 4.88769 33.8827 2.25067 31.4297 1.0548C31.399 1.02414 28.6393 -0.294372 25.2357 1.54541C25.7263 1.82138 26.4622 2.31199 26.5542 2.8026L26.6462 3.23189L26.2782 3.17056C25.1437 2.95592 24.0705 2.74128 23.1199 2.46531C22.1694 2.18934 21.3108 1.88271 20.5749 1.48409C20.115 1.42276 16.4047 0.962815 16.558 6.20621C17.294 5.99157 18.9191 5.65427 19.4404 6.42085L19.7163 6.85013L19.1951 6.8808C16.2514 7.06477 14.381 8.5366 13.645 10.1311C13.3691 10.7443 13.2158 11.3883 13.2771 11.9709C13.3077 12.5535 13.5224 13.0747 13.8903 13.4734C14.5649 14.2399 15.7915 14.6079 17.6006 14.2093C17.7539 13.504 18.4285 11.0816 19.931 10.6524L20.8202 10.4071L20.2683 11.143Z" fill="#19191A"/>
    <path d="M30.0194 24.42C30.05 25.8919 29.5901 26.7198 28.6395 28.2223H27.6583C31.1232 28.9888 33.7909 31.2886 34.6188 34.2629C31.3992 32.8524 26.7997 33.8336 27.0144 28.9888C25.4812 35.0908 33.3923 33.251 35.0788 35.5508C35.2934 35.8267 35.5694 35.5508 35.5694 35.1828C35.2014 31.6872 33.607 29.0502 29.1301 28.0996C30.7553 26.9651 30.8473 25.7692 30.0194 24.42Z" fill="#19191A"/>
    <path d="M27.6274 28.713C29.3446 28.621 30.2645 29.4183 30.4178 31.1354C29.8045 29.8169 28.8233 29.081 27.6274 28.713Z" fill="#19191A"/>
    <path d="M30.7554 25.7693C35.0789 25.3094 37.5319 27.2412 38.1758 31.5033C38.2372 31.8406 37.5626 31.902 37.1026 31.6567C36.3361 31.2274 35.2935 31.1967 34.2816 31.2887L33.607 30.4301C35.0789 30.3075 36.4281 30.4301 37.3173 30.9514C36.5814 27.8544 34.0977 26.3826 30.7554 25.7693Z" fill="#19191A"/>
    <path d="M34.0053 28.9889C33.4533 27.7011 32.3801 27.1798 30.939 27.1798C32.0735 27.6704 33.116 28.253 34.0053 28.9889Z" fill="#19191A"/>
    <path d="M15.6384 16.3557C15.3625 15.865 15.0252 15.5891 14.5959 15.5278C14.0746 15.4358 13.492 15.7117 12.8787 16.3557L12.9094 16.1717C12.9401 16.0184 12.9401 15.865 12.9401 15.7117C12.8787 15.3131 12.6948 15.0678 12.3575 15.0065C12.0815 14.9758 11.7749 15.0065 11.4069 15.1291C10.7937 15.2825 10.4564 15.6197 10.3644 16.1104V16.141C10.2417 16.8769 10.6097 17.9501 11.4376 19.3606C11.6829 19.7286 11.8055 19.9126 11.8362 19.9432C11.8669 19.9432 11.8669 19.9432 11.8669 19.9432C12.2042 19.8206 12.6334 19.6059 13.1547 19.33C13.4613 19.1767 13.8906 18.9314 14.3812 18.5941C15.2091 18.0115 15.6384 17.4595 15.7304 17.0302L15.7611 16.9383C15.7304 16.7236 15.6998 16.5396 15.6384 16.3557Z" fill="white"/>
    <path d="M15.3009 15.589C15.4848 15.7424 15.6688 15.957 15.8221 16.233L15.8528 16.2636C15.8835 16.3863 15.9141 16.4783 15.9448 16.5703C15.9755 16.6622 15.9755 16.7849 15.9448 16.8769L15.9141 16.9689C15.8835 17.2448 15.7302 17.5208 15.4542 17.8274C15.2089 18.1034 14.8716 18.41 14.473 18.7167C14.2277 18.9007 13.9824 19.0233 13.7984 19.1766C13.5837 19.2993 13.3998 19.3913 13.2464 19.4833C12.9705 19.6366 12.7558 19.7592 12.5412 19.8512C12.3265 19.9432 12.1426 20.0352 11.9586 20.1272C11.9279 20.1272 11.8973 20.1578 11.8666 20.1578C11.8359 20.1578 11.8053 20.1578 11.8053 20.1578C11.7439 20.1578 11.652 20.0659 11.5293 19.9125C11.468 19.8205 11.376 19.6672 11.2533 19.4833C10.8241 18.778 10.5174 18.1341 10.3334 17.5821C10.1495 16.9995 10.0881 16.5089 10.1495 16.1103V16.0796C10.2108 15.773 10.3334 15.5277 10.5481 15.3131C10.7627 15.1291 11.008 14.9758 11.3453 14.9144C11.5293 14.8531 11.7133 14.7918 11.8973 14.7918C12.0812 14.7611 12.2346 14.7611 12.4185 14.7918C12.6332 14.8225 12.8172 14.9144 12.9705 15.0984C13.0931 15.2517 13.1851 15.4664 13.2158 15.7117V15.7424V15.8037C13.3998 15.681 13.5531 15.5584 13.737 15.497C14.0743 15.3437 14.381 15.2824 14.6876 15.3437C14.8716 15.3437 15.1169 15.4357 15.3009 15.589ZM15.4235 16.4476C15.3009 16.233 15.1782 16.0796 15.0249 15.957C14.8716 15.8343 14.7489 15.773 14.565 15.7424C14.3503 15.7117 14.1357 15.7424 13.8904 15.865C13.6144 15.9877 13.3384 16.2023 13.0625 16.5089L12.5412 17.0302L12.6945 16.141C12.6945 16.0796 12.7252 16.0183 12.7252 15.957C12.7252 15.8957 12.7252 15.8343 12.7252 15.7424C12.6945 15.589 12.6638 15.4664 12.6025 15.3744C12.5412 15.3131 12.4492 15.2517 12.3265 15.2517C12.2039 15.2211 12.0812 15.2211 11.9586 15.2517C11.8053 15.2824 11.6826 15.3131 11.4986 15.3744H11.468C11.192 15.4357 11.008 15.5277 10.8547 15.681C10.7321 15.8037 10.6401 15.957 10.6094 16.1716V16.2023C10.5481 16.5396 10.6094 16.9382 10.7934 17.4288C10.9774 17.9501 11.2533 18.5634 11.6826 19.2379C11.8053 19.4219 11.8973 19.5752 11.9586 19.6366C12.0812 19.5752 12.2346 19.5139 12.3879 19.4526C12.6025 19.3606 12.8172 19.2379 13.0931 19.0846C13.2464 19.0233 13.4304 18.9007 13.6144 18.778C13.829 18.6553 14.0437 18.502 14.2583 18.3487C14.6569 18.0727 14.9636 17.7968 15.1782 17.5515C15.3622 17.3368 15.4848 17.1222 15.5155 16.9382L15.5462 16.8462C15.5462 16.7849 15.5462 16.7542 15.5462 16.6929C15.4542 16.6009 15.4542 16.5396 15.4235 16.4476Z" fill="#19191A"/>
    <path d="M27.2291 18.0422C26.5545 17.9195 26.4625 18.1342 26.2172 18.4101C25.9719 18.6861 26.1252 18.7474 26.5545 18.7474C27.0144 18.7474 27.781 18.6861 28.2716 18.9007C28.3329 18.9314 27.9036 18.1648 27.2291 18.0422Z" fill="#19191A"/>
    <path d="M22.8749 18.8088C23.5801 18.6861 23.7948 18.9621 24.1014 18.8701C24.2854 18.8088 23.8868 18.1648 23.4881 18.0729C23.0895 18.0115 21.9243 18.5635 21.9243 19.1154C21.955 19.2381 22.1696 18.9314 22.8749 18.8088Z" fill="#19191A"/>
    <path fill-rule="evenodd" clip-rule="evenodd" d="M10.0576 20.1578H9.659C9.01508 20.1578 8.40181 20.0965 7.75789 20.0045C7.57391 19.9738 7.35927 19.9432 7.23662 19.8205C7.17529 19.7592 7.0833 19.5752 6.99131 19.5752C7.17529 19.6979 7.35927 19.9125 7.26728 20.1272C7.23662 20.1885 7.17529 20.2498 7.11396 20.3111C7.05264 20.4031 7.02197 20.5258 7.02197 20.6484C6.99131 21.4457 7.02197 22.2429 7.17529 23.0402C7.20595 23.2548 7.26728 23.4694 7.38993 23.6228C7.54325 23.7761 7.75789 23.8681 7.97253 23.8987C8.21784 23.9601 8.4938 23.9601 8.70845 23.8681C9.10707 23.7147 9.32171 23.2548 9.4137 22.8562C9.50569 22.4269 9.50569 21.9976 9.659 21.599C9.72033 21.415 9.84298 21.2617 9.9963 21.139H10.027C10.1803 21.0471 10.3643 20.9857 10.5789 21.0164C10.4562 21.231 10.4869 21.507 10.5789 21.7523C10.6709 21.9976 10.7935 22.2123 10.8855 22.4576C11.0695 23.0402 10.8855 23.6534 10.5789 24.1747C10.2723 24.696 9.87364 25.1559 9.59768 25.6465C9.29105 26.1678 9.10707 26.7811 9.04574 27.3943C9.01508 27.6396 9.01508 27.8849 9.04574 28.1302C9.13773 28.8048 9.50569 29.4181 9.50569 30.0927C6.71534 33.4656 5.64213 34.0176 7.51258 29.8474C7.23662 30.246 6.99131 30.5833 6.77667 30.9206L6.13274 30.4606L4.7529 27.701C5.18219 27.7623 5.70346 27.7316 6.31672 27.5476C2.97444 28.0996 2.57582 22.8255 0.644043 20.0352C0.858685 19.0233 1.10399 18.0421 1.31863 17.0302C1.31863 16.9995 1.34929 16.9689 1.34929 16.9382C1.37996 16.9075 1.47195 16.9075 1.53327 16.9075C1.83991 16.9689 1.96256 17.2755 1.96256 17.5821C1.96256 17.8888 1.87057 18.1954 1.80924 18.4714C1.71725 18.962 1.74792 19.5139 2.11587 19.8512C2.4225 20.1272 2.91311 20.1578 3.15842 20.5258C3.37306 20.8324 3.28107 21.231 3.37306 21.599C3.49571 20.4951 3.21975 19.3606 3.06643 18.2567C3.0051 17.9501 2.97444 17.5821 3.12776 17.3062C3.25041 17.0915 3.43439 16.9382 3.61837 16.8155C4.13964 16.4169 4.66091 15.957 5.12086 15.4664C5.15152 16.049 4.90622 16.6009 4.66091 17.0915C4.41561 17.6128 4.1703 18.1954 4.32362 18.7473C4.35428 18.8393 4.38495 18.9313 4.41561 19.0233C4.5076 19.3299 4.63025 19.6366 4.72224 19.9738C4.78357 20.1885 4.87555 20.4338 4.90622 20.6484C4.93688 20.8631 4.96754 21.1697 4.93688 21.3844C4.96754 20.7404 5.02887 20.0965 4.81423 19.4832C4.7529 19.3299 4.69158 19.1459 4.66091 18.9926C4.53826 18.3487 4.96754 17.7354 5.36616 17.2142C5.73412 16.7542 6.10208 16.2943 6.47004 15.8343C6.53136 15.773 6.59269 15.7117 6.65402 15.681C6.71534 15.6503 6.838 15.6503 6.86866 15.7423C6.89932 15.773 6.89932 15.8343 6.89932 15.865C6.89932 16.3249 6.96065 17.0302 6.59269 17.3368C6.31672 17.5821 6.01009 17.8274 5.73412 18.0727C5.6728 18.1341 5.58081 18.1954 5.55014 18.2874C5.51948 18.3794 5.51948 18.502 5.51948 18.594C5.58081 19.3606 5.61147 20.0965 5.6728 20.8631C5.88744 20.4031 6.04075 19.9125 6.13274 19.3912C6.19407 19.0846 6.28606 18.7167 6.56203 18.6553C6.68468 18.6247 6.80733 18.6553 6.92998 18.686C7.54325 18.8393 8.30983 18.8086 8.8311 18.41C8.95375 19.0233 9.35237 19.5752 9.87364 19.9432C9.96563 20.0045 10.0576 20.0658 10.0576 20.1578Z" fill="white"/>
    <path d="M29.4672 18.1955C29.3446 17.7355 29.0993 17.3369 28.762 17.0303C28.7313 16.9996 28.7313 16.9996 28.7006 16.9689L28.67 16.9383C28.5473 16.8463 28.4247 16.7543 28.2714 16.6623C27.8421 16.3863 27.3515 16.2024 26.7995 16.1717C26.7382 16.1717 26.6462 16.1717 26.5849 16.2024C26.4622 16.233 26.3702 16.325 26.3396 16.4477C26.2783 16.6316 26.3089 16.8156 26.3702 16.9996C26.4009 17.0916 26.4622 17.1836 26.5236 17.2449C26.6462 17.3982 26.8302 17.4595 26.9835 17.4289C27.2901 17.3982 27.5968 17.4289 27.9034 17.5209C27.9647 17.5515 28.0261 17.5515 28.0874 17.5822C28.302 17.6742 28.486 17.7968 28.6393 17.9502C28.7313 18.0421 28.854 18.1341 28.9153 18.2568C28.9766 18.3488 29.0686 18.5021 29.2219 18.4714C29.4059 18.4408 29.4979 18.3181 29.4672 18.1955Z" fill="#19191A"/>
    <path d="M23.6107 17.4596C23.7946 17.4902 23.9786 17.3983 24.0706 17.2756C24.1319 17.1836 24.1933 17.1223 24.2239 17.0303C24.3159 16.8463 24.3159 16.6623 24.2546 16.4784C24.2239 16.3557 24.1319 16.2637 24.0093 16.2331C23.948 16.2024 23.8866 16.2024 23.7946 16.2024C23.2734 16.2024 22.7828 16.417 22.3228 16.693C22.2002 16.785 22.0469 16.877 21.9242 16.969L21.8935 16.9996C21.8629 17.0303 21.8629 17.0303 21.8322 17.061C21.4949 17.3676 21.2496 17.7662 21.127 18.2262C21.0963 18.3488 21.1576 18.5021 21.2803 18.5328C21.4336 18.5941 21.4949 18.4101 21.5869 18.3181C21.6789 18.1955 21.7709 18.1035 21.8629 18.0115C22.0162 17.8582 22.2308 17.7355 22.4148 17.6436C22.4761 17.6129 22.5375 17.5822 22.5988 17.5822C22.9974 17.4596 23.304 17.4289 23.6107 17.4596Z" fill="#19191A"/>
    <path d="M25.3891 26.2599C26.493 26.2905 27.6275 25.9839 27.6275 25.4933C27.6275 25.4933 26.217 25.8306 25.2358 25.8306C24.2546 25.8306 24.5612 25.5239 24.4079 25.6159C24.2239 25.7386 24.2852 26.2292 25.3891 26.2599Z" fill="#19191A"/>
    <path fill-rule="evenodd" clip-rule="evenodd" d="M41.4565 26.9345L41.7632 26.6585L42.8057 26.2905L43.511 25.6466L46.2093 25.8612L48.6011 26.1066L48.2024 26.9345L46.424 28.069L44.6762 29.0195L42.2231 27.6397L41.4565 26.9345Z" fill="white"/>
    <path d="M43.7255 25.4627C43.6948 26.9346 41.855 26.352 41.947 27.0266C45.6879 29.173 47.9263 30.7675 46.4545 27.8545C48.233 29.9396 47.7424 30.0929 46.8531 30.1235H46.8838C41.947 35.5202 37.8995 37.728 34.2812 32.6072C38.1755 36.8081 41.1498 34.2324 45.6266 29.7862L45.9639 29.8782C44.9827 29.6942 42.3763 28.7437 40.8125 26.8426C36.7956 30.2155 36.8876 28.897 36.8876 28.897C36.7956 29.1423 36.4277 28.4064 36.4277 28.4064C38.1755 27.9771 38.5434 27.7011 41.0578 25.6774C40.9351 26.8732 42.6523 26.7506 42.9283 25.3401L43.7255 25.4627Z" fill="#19191A"/>
    <path d="M19.5017 34.2935C19.1031 34.5388 18.7965 34.8148 18.4898 35.0908C18.2139 35.3667 17.9379 35.6427 17.7233 35.888C17.294 36.4399 16.9567 36.9612 16.7727 37.4825C16.5581 38.0038 16.4661 38.4944 16.4354 38.9543C16.4047 39.4143 16.4661 39.8742 16.6194 40.2728C16.6807 39.7822 16.7727 39.3223 16.8647 38.8317C16.9567 38.341 17.11 37.8504 17.3246 37.3598C17.5393 36.8692 17.7846 36.3479 18.1525 35.8573C18.3365 35.612 18.5205 35.3361 18.7351 35.0908C18.9498 34.8455 19.1951 34.5695 19.5017 34.2935Z" fill="#19191A"/>
    <path d="M32.7788 33.8644C33.0548 34.079 33.2388 34.2937 33.4534 34.539C33.6374 34.7843 33.7907 35.0296 33.944 35.2442C34.22 35.7348 34.404 36.2254 34.4959 36.6854C34.5879 37.176 34.6493 37.6359 34.6186 38.0652C34.5879 38.5252 34.5266 38.9545 34.3733 39.3531C34.3733 38.8931 34.3733 38.4332 34.312 38.0039C34.2813 37.544 34.22 37.084 34.128 36.6241C34.036 36.1641 33.8827 35.7042 33.668 35.2442C33.5761 34.9989 33.4534 34.7843 33.3001 34.539C33.1161 34.3243 32.9628 34.1097 32.7788 33.8644Z" fill="#19191A"/>
    <path d="M5.42737 27.6397C5.70334 27.609 6.00997 27.5784 6.3166 27.4864C2.97432 28.0383 2.5757 22.7643 0.643926 19.9739C0.858568 18.962 1.10387 17.9808 1.31851 16.9689C1.31851 16.9383 1.34918 16.9076 1.34918 16.8769C1.37984 16.8463 1.47183 16.8463 1.53316 16.8463C1.83979 16.9689 1.96244 17.2756 1.96244 17.5822C1.96244 17.8888 1.87045 18.1955 1.80912 18.4714C1.71713 18.962 1.7478 19.514 2.11576 19.8513C2.42239 20.1272 2.913 20.1579 3.1583 20.5259C3.37294 20.8325 3.28095 21.2311 3.37294 21.5991C3.4956 20.4952 3.21963 19.3607 3.06631 18.2568C3.00499 17.9502 2.97432 17.5822 3.12764 17.3062C3.25029 17.0916 3.43427 16.9383 3.61825 16.8156C4.13952 16.417 4.6608 15.957 5.12074 15.4664C5.15141 16.049 4.9061 16.601 4.6608 17.0916C4.41549 17.6129 4.17019 18.1955 4.3235 18.7474C4.35416 18.8394 4.38483 18.9314 4.41549 19.0234C4.50748 19.33 4.63013 19.6366 4.72212 19.9739C4.78345 20.1886 4.87544 20.4339 4.9061 20.6485C4.93676 20.8631 4.96743 21.1698 4.93676 21.3844C4.96743 20.7405 5.02875 20.0966 4.81411 19.4833C4.75278 19.33 4.69146 19.146 4.6608 18.9927C4.53814 18.3488 4.96743 17.7355 5.36605 17.2142C5.734 16.7543 6.10196 16.2943 6.46992 15.8344C6.53125 15.7731 6.59257 15.7117 6.6539 15.6811C6.71523 15.6504 6.83788 15.6504 6.86854 15.7424C6.8992 15.7731 6.8992 15.8344 6.8992 15.8651C6.8992 16.325 6.96053 17.0303 6.59257 17.3369C6.3166 17.5822 6.00997 17.8275 5.734 18.0728C5.67268 18.1341 5.58069 18.1955 5.55003 18.2874C5.51936 18.3794 5.51936 18.5021 5.51936 18.5941C5.58069 19.3607 5.61135 20.0966 5.67268 20.8631C5.88732 20.4032 6.04064 19.9126 6.13263 19.3913C6.19395 19.0847 6.28594 18.7167 6.56191 18.6554C6.68456 18.6247 6.80721 18.6554 6.92987 18.6861C7.54313 18.8394 8.30971 18.8087 8.83098 18.4101C8.95363 19.0234 9.35225 19.5753 9.87353 19.9433C9.93485 20.0046 10.0268 20.0659 10.0575 20.1272C9.29093 20.1272 8.52435 20.0966 7.75777 19.9739C7.57379 19.9433 7.35915 19.9126 7.2365 19.7899C7.17517 19.7286 7.08318 19.5446 6.99119 19.5446C7.17517 19.6673 7.35915 19.8819 7.26716 20.0966C7.2365 20.1579 7.17517 20.2192 7.11385 20.2805C7.05252 20.3725 7.02186 20.4952 7.02186 20.6178C6.99119 21.4151 7.02186 22.2123 7.17517 23.0096C7.20584 23.2242 7.26716 23.4388 7.38981 23.5922C7.54313 23.7455 7.75777 23.8375 7.97241 23.8681C8.21772 23.9295 8.49369 23.9295 8.70833 23.8375C9.10695 23.6842 9.32159 23.2242 9.41358 22.8256C9.50557 22.3963 9.50557 21.967 9.65889 21.5684C9.8122 21.1698 10.1802 20.8631 10.5788 20.9551C10.4561 21.1698 10.4868 21.4457 10.5481 21.6911C10.6401 21.9364 10.7628 22.151 10.8547 22.3963C11.0387 22.9789 10.8547 23.5922 10.5481 24.1134C10.2415 24.6347 9.84286 25.0947 9.5669 25.5853C9.26026 26.1065 9.07629 26.7198 9.01496 27.3331C8.9843 27.5784 8.9843 27.8237 9.01496 28.069C9.10695 28.7436 9.47491 29.3568 9.47491 30.0314C6.99119 33.0364 5.85666 33.803 6.99119 30.982C7.08318 31.0126 7.17517 31.074 7.26716 31.1353L7.05252 30.8287C7.17517 30.522 7.32849 30.1541 7.51247 29.7861C7.29782 30.0927 7.08318 30.3687 6.92987 30.6447C6.13263 29.6328 5.79533 29.3262 5.42737 27.6397ZM24.7758 29.3262C21.8015 28.9889 19.9617 27.3331 20.9736 24.7267C19.4711 25.8612 19.7777 27.609 20.9123 28.6822L20.8816 28.6516C17.662 31.7486 13.8904 29.9394 10.1495 27.1797C10.4255 28.3449 10.1188 28.9275 9.65889 27.5784C9.59756 25.9226 12.8172 24.4507 10.7014 20.3725C9.68955 20.4339 9.07629 21.2618 8.9843 23.0096C8.76965 24.2054 6.86854 23.7761 7.29782 20.4339C8.76965 20.4339 10.3948 20.4952 10.7934 19.8513C9.84286 19.7593 9.62822 19.0234 9.75087 18.0421L6.50058 17.9502L7.29782 16.2637C7.11385 14.5159 6.34727 15.1291 5.4887 16.1717C5.734 15.1291 5.67268 14.6385 5.30472 14.6692C4.38483 15.7424 3.40361 16.5396 2.36106 16.9996C2.14642 16.417 1.68647 16.0797 0.797241 16.1104C0.797241 18.0115 0.0613263 19.9739 0 20.6792C2.02377 22.519 1.90111 27.2411 4.78345 27.6397C5.51936 29.3875 5.55003 30.1541 6.80721 30.89C5.64202 32.7604 5.82599 33.5883 6.59257 33.4963H6.56191C12.2653 38.0958 18.8885 37.8505 21.3722 31.5646C18.5819 36.9 12.8479 36.716 7.75777 32.9751L7.45114 33.0977C8.49369 32.4231 9.84286 30.89 10.7934 28.5903C15.2702 31.3193 18.8578 31.7179 21.3415 28.9889C22.2308 29.6328 23.488 29.9088 24.7758 29.3262Z" fill="#19191A"/>
    <path d="M49.3679 25.9839C48.5094 27.3331 47.4975 28.3449 44.4312 28.9889C46.5469 27.885 47.3748 27.0571 48.4787 25.9225C48.1721 25.9532 48.4787 25.9225 48.3254 26.0759L49.3679 25.9839Z" fill="#19191A"/>
    <path d="M55.7152 24.6347L56.5431 22.1203L49.3986 24.42L44.6458 23.8374L42.3767 23.0709L40.3529 22.7029L38.1759 21.7217L37.6239 21.3231L37.4399 22.3656L38.4518 23.7761L41.3648 25.0026L44.2165 25.6772L48.2027 26.0452H50.0118L55.7152 24.6347Z" fill="white"/>
    <path d="M56.7573 21.8136C56.788 21.5683 56.8186 21.3537 56.788 21.1697C56.696 20.4645 56.144 19.9739 55.6841 19.5752L55.5921 19.4833C54.5496 18.5634 53.323 17.9808 52.1272 17.8888C51.8819 17.8581 51.6672 17.8581 51.4526 17.8888C51.3299 17.8888 51.2073 17.8888 51.054 17.8888C50.9313 17.8888 50.8087 17.8888 50.7167 17.8581C50.2874 17.7661 49.8888 17.6741 49.4595 17.5515C48.7849 17.3675 48.049 17.1529 47.2211 17.1222C47.0678 17.1222 46.9144 17.1222 46.7305 17.1222C46.3625 17.1529 46.0252 17.2448 45.6879 17.3368C45.3506 17.4288 45.044 17.5208 44.7987 17.5208H44.768C44.5227 17.5208 44.2468 17.4595 43.9708 17.3982C43.6642 17.3368 43.3269 17.2448 42.9589 17.2448C42.5603 17.2448 42.1617 17.3368 41.8244 17.4595C41.6097 17.5515 41.4257 17.6741 41.2724 17.7968C41.1191 17.9194 40.9658 18.0114 40.8125 18.0727C40.4445 18.2261 40.0152 18.3487 39.6166 18.4407C38.6354 18.7167 37.7155 18.962 37.3475 19.8819C37.2862 20.0352 37.2862 20.1885 37.2556 20.4031C37.2556 20.5565 37.2249 20.6791 37.1942 20.8324C37.1636 20.9551 37.1329 21.0777 37.1022 21.1697C37.0409 21.3844 37.0103 21.5683 37.0103 21.783C37.0409 22.0896 37.1329 22.3043 37.2249 22.5496C37.2862 22.6722 37.3475 22.7949 37.3782 22.9482V22.9788C39.3407 24.9106 42.9589 26.1678 47.0984 26.3211C48.5089 26.3825 49.9194 26.2905 51.2379 26.0758C52.7404 25.8305 54.4576 25.5545 55.6228 24.6653C55.9601 24.42 56.3587 23.9601 56.512 23.5001C56.604 23.2548 56.604 23.0402 56.604 22.7642C56.604 22.6416 56.604 22.5189 56.604 22.3656C56.7266 22.1509 56.7573 21.9976 56.7573 21.8136ZM39.586 23.9294C38.7274 23.5001 37.8382 23.0708 37.5622 21.9976C38.0835 23.1015 39.1873 23.8374 40.8431 24.1747C40.9658 24.2054 41.0885 24.2054 41.1804 24.2054C41.2418 24.2054 41.3031 24.2054 41.3338 24.2054C41.3951 24.2054 41.4564 24.2054 41.5177 24.2054C41.671 24.2054 41.7937 24.236 41.8857 24.236C42.1617 24.2974 42.4683 24.3893 42.7749 24.512C42.9589 24.5733 43.1735 24.6653 43.3882 24.7266C44.86 25.1559 46.6998 25.4319 48.4476 25.4932C49.7048 25.5239 50.9926 25.2786 52.1885 24.9719C52.3418 24.9413 52.4645 24.9106 52.6178 24.88C53.9056 24.5733 55.1322 24.2974 55.9601 23.4081C55.9907 23.3775 56.0521 23.3161 56.0827 23.2548C56.144 23.1935 56.1747 23.1322 56.236 23.1015C56.0214 23.9294 55.3468 24.2974 54.6416 24.6347C53.9363 24.9719 53.0777 25.1559 52.3725 25.2786C50.7473 25.5852 48.9382 25.7079 47.1598 25.6465C44.3387 25.5545 41.7324 24.9719 39.8313 24.0214C39.7393 23.9907 39.6779 23.9601 39.586 23.9294ZM54.1203 23.8374C53.6297 23.9907 53.1084 24.1134 52.6178 24.2054C52.3725 24.2667 52.1578 24.2974 51.9432 24.3587C50.4714 24.696 49.1835 24.8493 47.9263 24.788C47.6504 24.788 47.3744 24.7573 47.0984 24.7266C45.4119 24.5733 43.9401 24.1747 42.4683 23.7454C42.1003 23.6534 41.7017 23.5921 41.3338 23.5308C40.9351 23.4695 40.5365 23.4081 40.1686 23.2855C38.942 22.8869 37.6235 22.3043 37.7768 20.3418C38.2061 19.4526 39.034 19.2073 39.9233 18.9313C40.0459 18.9007 40.1379 18.87 40.2605 18.8393C40.5672 18.7473 40.8738 18.594 41.2111 18.4407C41.855 18.1341 42.499 17.8581 43.1429 17.8581H43.1735C43.3882 17.8581 43.6028 17.9194 43.7868 17.9501C44.0014 17.9808 44.2468 18.0421 44.4614 18.0421C44.8294 18.0421 45.1666 17.9501 45.5346 17.8581C45.8412 17.7661 46.1479 17.7048 46.4238 17.6741C46.6078 17.6741 46.8225 17.6741 47.0371 17.6741C47.865 17.7048 48.6622 17.8888 49.4288 18.0421C49.6128 18.0727 49.7968 18.1341 49.9808 18.1647C49.9501 18.1954 49.8888 18.1954 49.8581 18.2261C49.7355 18.2567 49.5821 18.3181 49.5515 18.41L49.5208 18.4714L49.5821 18.502C49.7048 18.5327 49.8274 18.5634 49.9501 18.5634C50.1954 18.5634 50.41 18.5327 50.6553 18.502C50.8393 18.4714 51.0233 18.4407 51.1766 18.4407C52.1272 18.41 53.2617 18.7167 54.3349 19.3299C55.6841 20.0659 56.3894 20.8018 56.3894 21.507C56.3894 21.9056 56.1747 22.5189 55.9601 22.7949C55.5614 23.2242 54.7335 23.6534 54.1203 23.8374Z" fill="#19191A"/>
    <path d="M56.8188 20.9244C56.8495 20.6791 56.8802 20.4645 56.8495 20.2805C56.7575 19.5753 56.2056 19.0846 55.7456 18.686L55.6536 18.594C54.6111 17.6741 53.3846 17.0915 52.1887 16.9995C51.9434 16.9689 51.7288 16.9689 51.5141 16.9995C51.3915 16.9995 51.2688 16.9995 51.1155 16.9995C50.9928 16.9995 50.8702 16.9995 50.7782 16.9689C50.3489 16.8769 49.9503 16.7849 49.521 16.6623C48.8464 16.4783 48.1105 16.2636 47.2826 16.233C47.1293 16.233 46.976 16.233 46.792 16.233C46.424 16.2636 46.0867 16.3556 45.7494 16.4476C45.4121 16.5396 45.1055 16.6316 44.8602 16.6316H44.8296C44.5842 16.6316 44.3083 16.5703 44.0323 16.5089C43.7257 16.4476 43.3884 16.3556 43.0204 16.3556C42.6218 16.3556 42.2232 16.4476 41.8859 16.5703C41.6712 16.6623 41.4873 16.7849 41.334 16.9076C41.1806 17.0302 41.0273 17.1222 40.874 17.1835C40.5061 17.3368 40.0768 17.4595 39.6781 17.5515C38.6969 17.8275 37.777 18.0728 37.4091 18.9927C37.3477 19.146 37.3477 19.2993 37.3171 19.5139C37.3171 19.6672 37.2864 19.7899 37.2558 19.9432C37.2251 20.0659 37.1944 20.1885 37.1638 20.2805C37.1024 20.4951 37.0718 20.6791 37.0718 20.8938C37.1024 21.2004 37.1944 21.415 37.2864 21.6603C37.3477 21.783 37.4091 21.9056 37.4397 22.059V22.0896C39.4022 24.0214 43.0204 25.2786 47.16 25.4319C48.5705 25.4932 49.981 25.4012 51.2995 25.1866C52.802 24.9413 54.5191 24.6653 55.6843 23.7761C56.0216 23.5308 56.4202 23.0708 56.5735 22.6109C56.6655 22.3656 56.6655 22.151 56.6655 21.875C56.6655 21.7523 56.6655 21.6297 56.6655 21.4764C56.7882 21.2617 56.7882 21.0777 56.8188 20.9244ZM39.6475 23.0095C38.7889 22.5802 37.8997 22.151 37.6237 21.0777C38.145 22.1816 39.2489 22.9175 40.9047 23.2548C41.0273 23.2855 41.15 23.2855 41.242 23.2855C41.3033 23.2855 41.3646 23.2855 41.3953 23.2855C41.4566 23.2855 41.5179 23.2855 41.5793 23.2855C41.7326 23.2855 41.8552 23.3161 41.9472 23.3161C42.2232 23.3775 42.5298 23.4695 42.8364 23.5921C43.0204 23.6534 43.2351 23.7454 43.4497 23.8068C44.9215 24.236 46.7613 24.5427 48.5091 24.5733C49.7663 24.604 51.0542 24.3587 52.25 24.0521C52.4033 24.0214 52.526 23.9907 52.6793 23.9601C53.9672 23.6534 55.1937 23.3775 56.0216 22.4882C56.0523 22.4576 56.1136 22.3963 56.1442 22.3349C56.2056 22.2736 56.2362 22.2123 56.2976 22.1816C56.0829 23.0095 55.4083 23.3775 54.7031 23.7148C53.9978 24.0521 53.1393 24.236 52.434 24.3587C50.8089 24.6653 48.9997 24.788 47.2213 24.7267C44.4003 24.6347 41.7939 24.0521 39.8928 23.1015C39.8008 23.1015 39.7088 23.0402 39.6475 23.0095ZM54.1818 22.9482C53.6912 23.1015 53.1699 23.2242 52.6793 23.3161C52.434 23.3775 52.2194 23.4081 52.0047 23.4695C50.5329 23.8068 49.245 23.9601 47.9879 23.8987C47.7119 23.8987 47.4359 23.8681 47.16 23.8374C45.4735 23.6841 44.0016 23.2855 42.5298 22.8562C42.1619 22.7642 41.7632 22.7029 41.3953 22.6416C40.9967 22.5802 40.598 22.5189 40.2301 22.3963C39.0036 21.9976 37.685 21.415 37.8384 19.4526C38.2676 18.5634 39.0955 18.3181 39.9848 18.0421C40.1074 18.0114 40.1994 17.9808 40.3221 17.9501C40.6287 17.8581 40.9353 17.7048 41.2726 17.5515C41.9166 17.2449 42.5605 16.9689 43.2044 16.9689H43.2351C43.4497 16.9689 43.6644 17.0302 43.8483 17.0609C44.063 17.0915 44.3083 17.1529 44.5229 17.1529C44.8909 17.1529 45.2282 17.0609 45.5961 16.9689C45.9028 16.8769 46.2094 16.8156 46.4854 16.7849C46.6693 16.7849 46.884 16.7849 47.0986 16.7849C47.9265 16.8156 48.7238 16.9995 49.4903 17.1529C49.6743 17.1835 49.8583 17.2449 50.0423 17.2755C50.0116 17.3062 49.9503 17.3062 49.9196 17.3368C49.797 17.3675 49.6437 17.4288 49.613 17.5208L49.5823 17.5821L49.6437 17.6128C49.7663 17.6435 49.889 17.6741 50.0116 17.6741C50.2569 17.6741 50.4716 17.6435 50.7169 17.6128C50.9008 17.5821 51.0848 17.5515 51.2381 17.5515C52.1887 17.5208 53.3232 17.8275 54.3964 18.4407C55.7456 19.1766 56.4509 19.9125 56.4509 20.6178C56.4509 21.0164 56.2362 21.6297 56.0216 21.9056C55.623 22.3043 54.7951 22.7336 54.1818 22.9482Z" fill="#19191A"/>
    <path fill-rule="evenodd" clip-rule="evenodd" d="M50.1035 17.2755C50.1955 17.3675 49.7049 17.4289 49.6129 17.5515C50.1649 17.7048 50.6861 17.4902 51.2074 17.4902C52.3113 17.4595 53.4765 17.8581 54.3657 18.3794C54.9483 18.7167 56.4201 19.5753 56.4508 20.6178C56.4508 21.0471 56.2362 21.6604 56.0215 21.9363C55.6536 22.3963 54.8563 22.8256 54.2124 23.0402C53.5071 23.2548 52.7406 23.4082 52.0353 23.5615C50.5635 23.8988 48.969 24.1441 47.1599 23.9601C45.4427 23.7761 43.9709 23.3775 42.5297 22.9789C41.7632 22.7642 40.9353 22.7336 40.23 22.5189C39.0341 22.151 37.6543 21.5377 37.8076 19.4833C38.2982 18.4407 39.3101 18.2261 40.322 17.9195C41.1806 17.6435 42.2231 16.9076 43.2043 16.9382C43.6643 16.9382 44.0936 17.1222 44.5228 17.1222C45.1668 17.1222 45.8414 16.7849 46.4853 16.7543C47.7731 16.6929 48.9383 17.0302 50.1035 17.2755ZM54.5804 21.1391C53.8138 20.9858 53.1392 22.1816 52.3726 22.151C51.974 22.1203 51.5754 21.8443 51.1461 21.8137C50.2262 21.691 49.5516 21.875 48.7237 21.9363C47.4052 22.0283 46.148 21.2004 44.8601 21.1391C44.4922 21.1391 44.0936 21.2004 43.7256 21.2617C43.3883 21.3231 42.959 21.5684 42.6524 21.5377C42.2538 21.507 41.7325 21.0471 41.3339 20.8018C40.8739 20.5258 40.3833 20.2192 39.9234 20.1579C39.5248 20.0965 39.2181 20.1579 39.0341 20.5565C40.4753 20.3418 41.2419 21.7524 42.4378 21.9363C42.9897 22.0283 43.6949 21.691 44.2775 21.6604C45.0135 21.6297 45.7187 21.7524 46.3933 21.9977C47.0679 22.243 47.7425 22.4883 48.4171 22.4883C48.8463 22.4883 49.3063 22.3656 49.7356 22.3043C50.8395 22.2123 51.8513 22.4576 52.8939 22.6416C53.0165 22.5189 52.7712 22.4269 52.8326 22.3656C53.5378 22.151 53.9978 21.507 54.8257 21.4764C54.887 21.2311 54.6723 21.1698 54.5804 21.1391Z" fill="white"/>
    <path d="M55.0402 21.507C55.0096 21.1697 54.7643 21.1084 54.7029 21.1084C54.6723 21.1084 54.611 21.1084 54.5803 21.1084C54.2123 21.1084 53.8444 21.3537 53.5071 21.6297C53.1698 21.875 52.8325 22.1509 52.4952 22.1203C52.2806 22.1203 52.0966 22.0283 51.8819 21.9363C51.698 21.875 51.4833 21.783 51.2993 21.7523C51.146 21.7217 51.0234 21.7217 50.8701 21.7217C50.4101 21.691 50.0115 21.7523 49.6129 21.8137C49.3676 21.8443 49.1223 21.875 48.8463 21.9056C48.7543 21.9056 48.6316 21.9056 48.5397 21.9056C47.9264 21.875 47.3438 21.691 46.7612 21.507C46.1786 21.323 45.596 21.1391 45.0134 21.1084C44.7068 21.1084 44.3388 21.1391 43.8789 21.2311C43.7562 21.2617 43.6029 21.2924 43.4802 21.3537C43.2656 21.4457 43.0203 21.507 42.8056 21.507C42.5297 21.4764 42.1617 21.2311 41.8551 21.0164C41.7324 20.9244 41.6098 20.8631 41.5178 20.7711L41.4871 20.7404C41.0272 20.4645 40.5366 20.1578 40.1073 20.0965C40.046 20.0965 39.9846 20.0659 39.9233 20.0659C39.5554 20.0659 39.3407 20.1885 39.1874 20.4951L39.1567 20.5871H39.2487C39.3714 20.5565 39.494 20.5565 39.6167 20.5565C40.2606 20.5871 40.7819 20.9244 41.2725 21.2617C41.7018 21.5683 42.1311 21.8443 42.6523 21.9363C42.7137 21.9363 42.7443 21.9363 42.8056 21.9363C43.0816 21.9363 43.4189 21.875 43.7255 21.783C44.0015 21.7217 44.2775 21.6603 44.5228 21.6297C45.228 21.599 45.9333 21.7217 46.6385 21.967L46.6692 21.9976C47.3438 22.2429 47.9877 22.4576 48.6316 22.4882H48.6623C48.9383 22.4882 49.1836 22.4576 49.4596 22.3963C49.6435 22.3656 49.8275 22.3349 50.0115 22.3043C50.2568 22.2736 50.5021 22.2736 50.7474 22.3043C51.422 22.3349 52.0659 22.4576 52.7712 22.5802C52.8938 22.6109 53.0471 22.6416 53.1698 22.6416H53.2005L53.2311 22.6109C53.2618 22.5802 53.2924 22.5496 53.2924 22.5189C53.2924 22.4576 53.2311 22.3963 53.2005 22.3656C53.4764 22.2736 53.7217 22.1203 53.967 21.967C54.335 21.7523 54.6723 21.507 55.1629 21.507H55.2242H55.0402Z" fill="#19191A"/>
    <path d="M46.5776 19.5447C46.363 19.606 46.3936 19.79 46.6083 19.7287C47.0682 19.5754 47.7428 19.698 47.8348 20.4339C47.8655 20.5566 48.2334 20.4646 48.2028 20.3113C48.1108 19.3607 47.1296 19.3607 46.5776 19.5447Z" fill="#19191A"/>
    <path d="M51.8208 19.4834C51.5448 19.882 51.1462 19.9127 50.8089 19.6367C50.6862 19.514 50.3183 19.7593 50.5022 19.9127C50.9928 20.3419 51.7288 20.2499 52.1274 19.6367C52.2807 19.3914 51.9434 19.3301 51.8208 19.4834Z" fill="#19191A"/>
    <path d="M51.0233 18.4409C51.0847 18.3795 51.1153 18.2569 51.054 18.1649C50.962 18.0729 50.87 18.1342 50.778 18.1956C50.6554 18.2875 50.5021 18.2875 50.3794 18.1956C50.2874 18.1342 50.1954 18.1342 50.1034 18.2262C50.0421 18.2875 49.9808 18.4409 50.0728 18.5022C50.3488 18.6862 50.686 18.6555 51.0233 18.4409Z" fill="#19191A"/>
    <path d="M45.0136 17.8888C45.1669 17.7355 44.7989 17.7969 44.7376 17.8582C44.431 18.1341 44.0017 18.1955 43.8177 17.7355C43.7564 17.6129 43.3884 17.7662 43.4497 17.8582C43.7257 18.5941 44.5536 18.2875 45.0136 17.8888Z" fill="#19191A"/>
    <path d="M41.0276 18.5328C40.4143 18.1648 39.6784 18.6248 39.1878 19.1461C39.0038 19.33 39.3718 19.3914 39.4944 19.2687C39.801 18.9314 40.3223 18.5328 40.7209 18.7781C40.8436 18.8701 41.2116 18.6248 41.0276 18.5328Z" fill="#19191A"/>
    <path d="M47.2826 20.3419C47.4359 20.1886 47.068 20.2499 47.0066 20.3112C46.7 20.5872 46.2707 20.6485 46.0867 20.1886C46.0254 20.0659 45.6575 20.2193 45.7188 20.3112C46.0254 21.0472 46.8533 20.7405 47.2826 20.3419Z" fill="#19191A"/>
    <path d="M47.681 18.6861C47.681 18.6861 47.0678 17.7048 47.1291 17.0303C47.2211 16.3557 48.5703 15.4051 48.2023 14.6999C47.8343 13.9946 46.9451 13.7493 47.0064 12.9521C47.0678 12.1548 48.325 10.3457 48.325 10.3457C48.325 10.3457 46.8838 11.7255 46.6078 12.7374C46.3319 13.7493 46.8531 14.6692 47.2211 15.0678C47.589 15.4664 46.7611 16.233 46.6078 16.785C46.4852 17.3062 47.681 18.6861 47.681 18.6861Z" fill="#19191A"/>
    <path d="M48.5396 18.6248C48.5396 18.6248 47.9264 17.9195 48.3556 17.0916C48.7849 16.2637 49.3369 15.8957 49.2449 15.4971C49.1529 15.0985 48.7849 14.6385 48.7849 14.6385C48.7849 14.6385 49.4595 15.0678 49.5208 15.6811C49.5822 16.2944 48.8156 16.693 48.6009 17.4289C48.3863 18.1648 48.5396 18.6248 48.5396 18.6248Z" fill="#19191A"/>
    <path d="M46.0866 18.6555C46.0866 18.6555 46.5159 18.0423 46.3013 17.2757C46.056 16.5091 45.7187 16.1411 45.8107 15.8038C45.9027 15.4666 46.148 15.0679 46.148 15.0679C46.148 15.0679 45.688 15.4359 45.6267 15.9572C45.5654 16.5091 46.0253 16.9077 46.148 17.5823C46.2093 18.2569 46.0866 18.6555 46.0866 18.6555Z" fill="#19191A"/>
    <path fill-rule="evenodd" clip-rule="evenodd" d="M2.45332 17.5823L2.36133 19.3914L2.85194 19.6367L2.45332 17.5823Z" fill="white"/>
</svg>
