<svg width="147" height="54" viewBox="0 0 147 54" fill="none" xmlns="http://www.w3.org/2000/svg">
    <path d="M54.2275 29.6113C54.2275 43.0647 43.2923 54 29.8389 54C16.3854 54 5.4502 43.0647 5.4502 29.6113C5.4502 16.1579 16.3854 5.22266 29.8389 5.22266C43.2923 5.22266 54.2275 16.1234 54.2275 29.6113Z" fill="#FDDDA7"/>
    <path fill-rule="evenodd" clip-rule="evenodd" d="M22.0085 23.2985C22.3534 24.2644 23.4918 23.8504 24.3887 23.402C24.8371 23.195 25.5616 22.7121 26.148 22.6431C26.4929 22.6086 26.7689 22.8156 27.0104 22.919C27.4588 23.1605 27.8383 22.9535 27.9763 22.6086C27.9763 22.6086 28.1832 22.8501 28.0108 22.988C27.8728 23.126 27.6658 23.609 28.3902 23.7814C29.1491 23.9539 29.0112 24.0919 29.4596 23.9884C30.115 23.8504 30.6325 23.264 30.115 22.6431C30.3565 22.6776 30.598 22.9535 30.7015 23.1605C31.1154 22.8501 31.7018 22.8501 32.1848 23.057C32.7367 23.2985 33.9441 24.0574 33.7026 22.6431C35.1169 23.9194 34.0131 28.2314 30.1495 26.0237C29.5631 25.6787 29.2526 25.7132 28.6662 25.9892C28.0108 26.2997 27.1829 26.8171 26.286 27.0586C23.8368 27.7485 21.4565 25.7477 22.0085 23.2985Z" fill="#19191A"/>
    <path d="M22.5602 12.3289C21.0769 14.1917 21.0079 16.4685 22.1463 19.1246C22.1463 19.1246 27.0102 12.2599 33.9439 17.9518C33.9439 17.9518 34.8753 10.9146 29.8044 10.3282C29.8044 10.3282 32.2191 9.29329 34.0129 11.9495C38.1524 16.8824 42.4644 4.22238 35.5997 0.910764C35.5997 0.910764 32.0121 -0.848531 27.8036 1.77316C27.8036 1.77316 29.5284 2.49758 29.6664 3.22199C27.1482 2.77355 24.906 2.18712 23.3191 1.32472C23.3191 1.32472 17.9723 0.220845 18.3862 7.39601C18.3862 7.39601 21.0424 6.43012 21.6633 7.39601C12.9014 7.94794 12.3494 18.1588 20.1455 16.2615C20.111 16.296 20.7664 12.8464 22.5602 12.3289Z" fill="white"/>
    <path d="M21.0424 15.399C21.0769 14.8816 21.1804 14.3641 21.3184 13.8812C20.6974 14.9506 20.456 16.3304 20.456 16.3304L20.4215 16.5374L20.2145 16.5719C17.7998 17.1583 16.1095 16.6409 15.1781 15.5715C14.6606 14.985 14.3847 14.2606 14.3157 13.5017C14.2467 12.7428 14.4192 11.9149 14.7986 11.087C15.5575 9.50019 17.1788 8.01686 19.628 7.36143C19.0071 7.49942 18.4552 7.6719 18.4552 7.6719L18.0412 7.80988L18.0067 7.46492C17.5583 -0.124193 23.3191 1.04867 23.3191 1.04867H23.3881L23.4226 1.08317C24.1815 1.49712 25.1474 1.84208 26.1823 2.15254C27.0102 2.39401 27.9071 2.60099 28.8385 2.77347C28.3555 2.39401 27.6311 2.08355 27.6311 2.08355L27.0792 1.84208L27.5966 1.49712C31.9776 -1.22806 35.7032 0.600223 35.7032 0.600223C38.7733 2.08355 39.7392 5.36067 39.4632 8.18934C39.3598 9.43119 39.0148 10.5696 38.4974 11.4665C37.9799 12.3978 37.29 13.0878 36.4966 13.2947C35.6342 13.5362 34.6683 13.2258 33.7369 12.1219L33.7024 12.0874C33.0125 11.087 32.2191 10.6386 31.5637 10.5006C34.9788 12.3289 34.2543 17.9172 34.2543 17.9517L34.1854 18.5381L33.7369 18.1587C27.0792 12.6738 22.4222 19.2625 22.4222 19.2625L22.0773 19.7455L21.8358 19.1936C21.2494 17.8827 20.9734 16.6064 21.0424 15.399ZM22.8017 12.5358C22.1118 13.3982 21.7323 14.3641 21.6633 15.4335C21.6288 16.3649 21.8013 17.3998 22.2152 18.4691C23.4571 17.0203 27.8036 12.9153 33.6334 17.2963C33.7369 15.6405 33.5989 11.087 29.7354 10.6386L28.459 10.5006L29.6319 10.0176C29.6319 10.0176 32.2881 8.87926 34.2198 11.7424C34.9443 12.6048 35.6687 12.8463 36.2896 12.6738C36.9105 12.5013 37.4625 11.9494 37.8764 11.156C38.3249 10.3281 38.6353 9.25871 38.7388 8.12035C38.9803 5.49865 38.1179 2.532 35.3582 1.18665C35.3237 1.15216 32.2191 -0.331169 28.39 1.73859C28.942 2.04905 29.7699 2.60099 29.8734 3.15293L29.9768 3.63587L29.5629 3.56688C28.2865 3.32541 27.0792 3.08393 26.0098 2.77347C24.9404 2.46301 23.9745 2.11805 23.1466 1.6696C22.6292 1.60061 18.4552 1.08317 18.6277 6.98198C19.4556 6.74051 21.2839 6.36105 21.8703 7.22345L22.1808 7.70639L21.5943 7.74089C18.2827 7.94787 16.1785 9.60367 15.3505 11.3975C15.0401 12.0874 14.8676 12.8118 14.9366 13.4672C14.9711 14.1226 15.2126 14.7091 15.6265 15.1575C16.3854 16.0199 17.7653 16.4339 19.8005 15.9854C19.973 15.192 20.7319 12.4668 22.4222 11.9839L23.4226 11.7079L22.8017 12.5358Z" fill="#19191A"/>
    <path d="M33.7715 27.4726C33.806 29.1284 33.2886 30.0598 32.2192 31.7501H31.1154C35.0134 32.6125 38.0146 35.1997 38.9459 38.5458C35.3239 36.959 30.1495 38.0629 30.3909 32.6125C28.6661 39.4772 37.5661 37.4074 39.4634 39.9946C39.7049 40.3051 40.0153 39.9946 40.0153 39.5807C39.6014 35.6481 37.8076 32.6815 32.7712 31.6121C34.5995 30.3358 34.7029 28.9904 33.7715 27.4726Z" fill="#19191A"/>
    <path d="M31.0808 32.3021C33.0126 32.1986 34.0475 33.0955 34.2199 35.0273C33.53 33.5439 32.4262 32.716 31.0808 32.3021Z" fill="#19191A"/>
    <path d="M34.5996 28.9905C39.4635 28.473 42.2232 30.6463 42.9476 35.4412C43.0166 35.8207 42.2577 35.8897 41.7403 35.6137C40.8779 35.1307 39.705 35.0963 38.5666 35.1997L37.8077 34.2339C39.4635 34.0959 40.9814 34.2339 41.9817 34.8203C41.1538 31.3362 38.3597 29.6804 34.5996 28.9905Z" fill="#19191A"/>
    <path d="M38.256 32.6125C37.6351 31.1637 36.4277 30.5773 34.8064 30.5773C36.0827 31.1292 37.2556 31.7846 38.256 32.6125Z" fill="#19191A"/>
    <path d="M17.593 18.4001C17.2826 17.8482 16.9031 17.5377 16.4202 17.4687C15.8337 17.3653 15.1783 17.6757 14.4884 18.4001L14.5229 18.1932C14.5574 18.0207 14.5574 17.8482 14.5574 17.6757C14.4884 17.2273 14.2814 16.9513 13.902 16.8823C13.5915 16.8478 13.2465 16.8823 12.8326 17.0203C12.1427 17.1928 11.7632 17.5722 11.6597 18.1242V18.1587C11.5217 18.9866 11.9357 20.1939 12.8671 21.7807C13.1431 22.1947 13.281 22.4017 13.3155 22.4362C13.35 22.4362 13.35 22.4362 13.35 22.4362C13.7295 22.2982 14.2124 22.0567 14.7989 21.7462C15.1438 21.5738 15.6268 21.2978 16.1787 20.9183C17.1101 20.2629 17.593 19.642 17.6965 19.159L17.731 19.0556C17.6965 18.8141 17.662 18.6071 17.593 18.4001Z" fill="white"/>
    <path d="M17.2135 17.5377C17.4205 17.7102 17.6275 17.9516 17.8 18.2621L17.8345 18.2966C17.869 18.4346 17.9034 18.5381 17.9379 18.6416C17.9724 18.7451 17.9724 18.883 17.9379 18.9865L17.9035 19.09C17.869 19.4005 17.6965 19.7109 17.386 20.0559C17.11 20.3664 16.7306 20.7113 16.2821 21.0563C16.0062 21.2633 15.7302 21.4012 15.5232 21.5737C15.2818 21.7117 15.0748 21.8152 14.9023 21.9187C14.5918 22.0912 14.3504 22.2292 14.1089 22.3326C13.8674 22.4361 13.6604 22.5396 13.4535 22.6431C13.419 22.6431 13.3845 22.6776 13.35 22.6776C13.3155 22.6776 13.281 22.6776 13.281 22.6776C13.212 22.6776 13.1085 22.5741 12.9705 22.4016C12.9015 22.2981 12.798 22.1257 12.6601 21.9187C12.1771 21.1253 11.8322 20.4009 11.6252 19.7799C11.4182 19.1245 11.3492 18.5726 11.4182 18.1241V18.0896C11.4872 17.7447 11.6252 17.4687 11.8667 17.2272C12.1081 17.0203 12.3841 16.8478 12.7635 16.7788C12.9705 16.7098 13.1775 16.6408 13.3845 16.6408C13.5915 16.6063 13.7639 16.6063 13.9709 16.6408C14.2124 16.6753 14.4194 16.7788 14.5918 16.9858C14.7298 17.1582 14.8333 17.3997 14.8678 17.6757V17.7102V17.7792C15.0748 17.6412 15.2473 17.5032 15.4542 17.4342C15.8337 17.2617 16.1787 17.1927 16.5236 17.2617C16.7306 17.2617 17.0066 17.3652 17.2135 17.5377ZM17.3515 18.5036C17.2135 18.2621 17.0755 18.0896 16.9031 17.9516C16.7306 17.8137 16.5926 17.7447 16.3856 17.7102C16.1442 17.6757 15.9027 17.7102 15.6267 17.8482C15.3163 17.9861 15.0058 18.2276 14.6953 18.5726L14.1089 19.159L14.2814 18.1586C14.2814 18.0896 14.3159 18.0206 14.3159 17.9516C14.3159 17.8827 14.3159 17.8137 14.3159 17.7102C14.2814 17.5377 14.2469 17.3997 14.1779 17.2962C14.1089 17.2272 14.0054 17.1582 13.8674 17.1582C13.7294 17.1237 13.5915 17.1237 13.4535 17.1582C13.281 17.1927 13.143 17.2272 12.936 17.2962H12.9015C12.5911 17.3652 12.3841 17.4687 12.2116 17.6412C12.0736 17.7792 11.9701 17.9516 11.9356 18.1931V18.2276C11.8667 18.6071 11.9356 19.0555 12.1426 19.6075C12.3496 20.1939 12.6601 20.8838 13.143 21.6427C13.281 21.8497 13.3845 22.0222 13.4535 22.0912C13.5915 22.0222 13.7639 21.9532 13.9364 21.8842C14.1779 21.7807 14.4194 21.6427 14.7298 21.4702C14.9023 21.4012 15.1093 21.2633 15.3163 21.1253C15.5577 20.9873 15.7992 20.8148 16.0407 20.6423C16.4891 20.3319 16.8341 20.0214 17.0755 19.7454C17.2825 19.504 17.4205 19.2625 17.455 19.0555L17.4895 18.952C17.4895 18.883 17.4895 18.8485 17.4895 18.7796C17.386 18.6761 17.386 18.6071 17.3515 18.5036Z" fill="#19191A"/>
    <path d="M30.6326 20.2974C29.8737 20.1594 29.7702 20.4009 29.4943 20.7113C29.2183 21.0218 29.3908 21.0908 29.8737 21.0908C30.3911 21.0908 31.2535 21.0218 31.8055 21.2633C31.8745 21.2978 31.3915 20.4354 30.6326 20.2974Z" fill="#19191A"/>
    <path d="M25.7342 21.1598C26.5276 21.0218 26.769 21.3323 27.114 21.2288C27.321 21.1598 26.8725 20.4354 26.4241 20.3319C25.9756 20.2629 24.6648 20.8839 24.6648 21.5048C24.6993 21.6428 24.9408 21.2978 25.7342 21.1598Z" fill="#19191A"/>
    <path fill-rule="evenodd" clip-rule="evenodd" d="M11.3146 22.6776H10.8662C10.1418 22.6776 9.45185 22.6086 8.72743 22.5051C8.52046 22.4706 8.27898 22.4361 8.141 22.2982C8.07201 22.2292 7.96852 22.0222 7.86503 22.0222C8.07201 22.1602 8.27899 22.4016 8.1755 22.6431C8.141 22.7121 8.07201 22.7811 8.00302 22.8501C7.93403 22.9536 7.89953 23.0916 7.89953 23.2295C7.86503 24.1264 7.89953 25.0233 8.07201 25.9202C8.10651 26.1617 8.1755 26.4032 8.31348 26.5757C8.48596 26.7481 8.72743 26.8516 8.9689 26.8861C9.24487 26.9551 9.55534 26.9551 9.79681 26.8516C10.2453 26.6791 10.4867 26.1617 10.5902 25.7133C10.6937 25.2303 10.6937 24.7474 10.8662 24.2989C10.9352 24.0919 11.0732 23.9195 11.2456 23.7815H11.2801C11.4526 23.678 11.6596 23.609 11.9011 23.6435C11.7631 23.885 11.7976 24.1954 11.9011 24.4714C12.0045 24.7474 12.1425 24.9888 12.246 25.2648C12.453 25.9202 12.246 26.6101 11.9011 27.1966C11.5561 27.783 11.1077 28.3005 10.7972 28.8524C10.4522 29.4388 10.2453 30.1287 10.1763 30.8187C10.1418 31.0946 10.1418 31.3706 10.1763 31.6466C10.2798 32.4055 10.6937 33.0954 10.6937 33.8543C7.55457 37.6489 6.34721 38.2698 8.45146 33.5783C8.141 34.0268 7.86503 34.4062 7.62356 34.7857L6.89915 34.2683L5.34683 31.1636C5.82977 31.2326 6.4162 31.1981 7.10612 30.9911C3.34606 31.6121 2.89761 25.6788 0.724365 22.5396C0.965837 21.4013 1.2418 20.2974 1.48328 19.159C1.48328 19.1245 1.51777 19.09 1.51777 19.0555C1.55227 19.021 1.65576 19.021 1.72475 19.021C2.06971 19.09 2.20769 19.435 2.20769 19.7799C2.20769 20.1249 2.1042 20.4699 2.03521 20.7803C1.93172 21.3323 1.96622 21.9532 2.38017 22.3326C2.72513 22.6431 3.27707 22.6776 3.55304 23.0916C3.79451 23.4365 3.69102 23.885 3.79451 24.2989C3.93249 23.0571 3.62203 21.7807 3.44955 20.5389C3.38056 20.1939 3.34606 19.7799 3.51854 19.4695C3.65652 19.228 3.8635 19.0555 4.07048 18.9175C4.65691 18.4691 5.24334 17.9517 5.76078 17.3997C5.79527 18.0551 5.51931 18.6761 5.24334 19.228C4.96737 19.8144 4.6914 20.4699 4.86388 21.0908C4.89838 21.1943 4.93288 21.2978 4.96737 21.4013C5.07086 21.7462 5.20884 22.0912 5.31233 22.4706C5.38132 22.7121 5.48481 22.9881 5.51931 23.2295C5.5538 23.471 5.5883 23.816 5.5538 24.0574C5.5883 23.333 5.65729 22.6086 5.41582 21.9187C5.34683 21.7462 5.27783 21.5392 5.24334 21.3668C5.10535 20.6423 5.5883 19.9524 6.03675 19.366C6.4507 18.8486 6.86465 18.3311 7.2786 17.8137C7.34759 17.7447 7.41659 17.6757 7.48558 17.6412C7.55457 17.6067 7.69255 17.6067 7.72705 17.7102C7.76155 17.7447 7.76154 17.8137 7.76154 17.8482C7.76154 18.3656 7.83054 19.159 7.41658 19.504C7.10612 19.7799 6.76116 20.0559 6.4507 20.3319C6.38171 20.4009 6.27822 20.4699 6.24372 20.5734C6.20923 20.6768 6.20923 20.8148 6.20923 20.9183C6.27822 21.7807 6.31271 22.6086 6.38171 23.471C6.62318 22.9536 6.79566 22.4016 6.89915 21.8152C6.96814 21.4702 7.07163 21.0563 7.38209 20.9873C7.52007 20.9528 7.65806 20.9873 7.79604 21.0218C8.48596 21.1943 9.34836 21.1598 9.93479 20.7113C10.0728 21.4013 10.5212 22.0222 11.1077 22.4361C11.2111 22.5051 11.3146 22.5741 11.3146 22.6776Z" fill="white"/>
    <path d="M33.1507 20.4698C33.0127 19.9523 32.7367 19.5039 32.3573 19.1589C32.3228 19.1244 32.3228 19.1244 32.2883 19.0899L32.2538 19.0555C32.1158 18.952 31.9778 18.8485 31.8053 18.745C31.3224 18.4345 30.7705 18.2276 30.1495 18.1931C30.0805 18.1931 29.977 18.1931 29.9081 18.2275C29.7701 18.262 29.6666 18.3655 29.6321 18.5035C29.5631 18.7105 29.5976 18.9175 29.6666 19.1244C29.7011 19.2279 29.7701 19.3314 29.8391 19.4004C29.9771 19.5729 30.184 19.6419 30.3565 19.6074C30.7015 19.5729 31.0464 19.6074 31.3914 19.7109C31.4604 19.7454 31.5294 19.7454 31.5984 19.7799C31.8398 19.8834 32.0468 20.0213 32.2193 20.1938C32.3228 20.2973 32.4608 20.4008 32.5298 20.5388C32.5987 20.6423 32.7022 20.8147 32.8747 20.7803C33.0817 20.7458 33.1852 20.6078 33.1507 20.4698Z" fill="#19191A"/>
    <path d="M26.5618 19.642C26.7687 19.6765 26.9757 19.573 27.0792 19.435C27.1482 19.3315 27.2172 19.2625 27.2517 19.1591C27.3552 18.9521 27.3552 18.7451 27.2862 18.5381C27.2517 18.4001 27.1482 18.2967 27.0102 18.2622C26.9412 18.2277 26.8722 18.2277 26.7687 18.2277C26.1823 18.2277 25.6304 18.4691 25.1129 18.7796C24.9749 18.8831 24.8025 18.9866 24.6645 19.0901L24.63 19.1246C24.5955 19.1591 24.5955 19.1591 24.561 19.1935C24.1815 19.5385 23.9056 19.987 23.7676 20.5044C23.7331 20.6424 23.8021 20.8149 23.9401 20.8494C24.1125 20.9183 24.1815 20.7114 24.285 20.6079C24.3885 20.4699 24.492 20.3664 24.5955 20.2629C24.768 20.0904 25.0094 19.9525 25.2164 19.849C25.2854 19.8145 25.3544 19.78 25.4234 19.78C25.8718 19.642 26.2168 19.6075 26.5618 19.642Z" fill="#19191A"/>
    <path d="M28.5627 29.5423C29.8046 29.5768 31.0809 29.2319 31.0809 28.6799C31.0809 28.6799 29.4941 29.0594 28.3903 29.0594C27.2864 29.0594 27.6313 28.7144 27.4589 28.8179C27.2519 28.9559 27.3209 29.5078 28.5627 29.5423Z" fill="#19191A"/>
    <path fill-rule="evenodd" clip-rule="evenodd" d="M46.6384 30.3012L46.9834 29.9908L48.1562 29.5768L48.9497 28.8524L51.9853 29.0939L54.676 29.3699L54.2275 30.3012L52.2268 31.5776L50.2605 32.647L47.5008 31.0947L46.6384 30.3012Z" fill="white"/>
    <path d="M49.1912 28.6456C49.1567 30.3014 47.0869 29.6459 47.1904 30.4048C51.3989 32.8196 53.9171 34.6134 52.2613 31.3362C54.2621 33.682 53.7101 33.8544 52.7098 33.8889H52.7443C47.1904 39.9602 42.6369 42.4439 38.5664 36.6831C42.9474 41.4091 46.2935 38.5114 51.3299 33.5095L51.7094 33.613C50.6055 33.406 47.6733 32.3366 45.914 30.1979C41.3951 33.9924 41.4986 32.5091 41.4986 32.5091C41.3951 32.7851 40.9811 31.9572 40.9811 31.9572C42.9474 31.4742 43.3613 31.1638 46.19 28.887C46.052 30.2324 47.9838 30.0944 48.2943 28.5076L49.1912 28.6456Z" fill="#19191A"/>
    <path d="M21.9394 38.5803C21.491 38.8562 21.146 39.1667 20.8011 39.4772C20.4906 39.7876 20.1801 40.0981 19.9387 40.3741C19.4557 40.995 19.0763 41.5814 18.8693 42.1678C18.6278 42.7543 18.5243 43.3062 18.4898 43.8236C18.4553 44.3411 18.5243 44.8585 18.6968 45.307C18.7658 44.755 18.8693 44.2376 18.9728 43.6857C19.0763 43.1337 19.2487 42.5818 19.4902 42.0299C19.7317 41.4779 20.0076 40.8915 20.4216 40.3396C20.6286 40.0636 20.8356 39.7531 21.077 39.4772C21.3185 39.2012 21.5945 38.8907 21.9394 38.5803Z" fill="#19191A"/>
    <path d="M36.8762 38.0974C37.1867 38.3388 37.3937 38.5803 37.6351 38.8563C37.8421 39.1322 38.0146 39.4082 38.1871 39.6497C38.4975 40.2016 38.7045 40.7535 38.808 41.271C38.9115 41.8229 38.9805 42.3404 38.946 42.8233C38.9115 43.3407 38.8425 43.8237 38.67 44.2721C38.67 43.7547 38.67 43.2373 38.601 42.7543C38.5665 42.2369 38.4975 41.7194 38.394 41.202C38.2906 40.6846 38.1181 40.1671 37.8766 39.6497C37.7731 39.3737 37.6351 39.1322 37.4627 38.8563C37.2557 38.6148 37.0832 38.3733 36.8762 38.0974Z" fill="#19191A"/>
    <path d="M6.10579 31.0946C6.41625 31.0601 6.76121 31.0256 7.10617 30.9221C3.34611 31.5431 2.89766 25.6097 0.724416 22.4706C0.965887 21.3322 1.24186 20.2284 1.48333 19.09C1.48333 19.0555 1.51782 19.021 1.51782 18.9865C1.55232 18.952 1.65581 18.952 1.7248 18.952C2.06976 19.09 2.20774 19.435 2.20774 19.7799C2.20774 20.1249 2.10425 20.4698 2.03526 20.7803C1.93177 21.3322 1.96627 21.9532 2.38022 22.3326C2.72518 22.6431 3.27712 22.6776 3.55309 23.0915C3.79456 23.4365 3.69107 23.8849 3.79456 24.2989C3.93254 23.057 3.62208 21.7807 3.4496 20.5388C3.38061 20.1939 3.34611 19.7799 3.51859 19.4695C3.65657 19.228 3.86355 19.0555 4.07053 18.9175C4.65696 18.4691 5.24339 17.9516 5.76083 17.3997C5.79532 18.0551 5.51936 18.676 5.24339 19.228C4.96742 19.8144 4.69145 20.4698 4.86393 21.0908C4.89843 21.1943 4.93292 21.2977 4.96742 21.4012C5.07091 21.7462 5.20889 22.0912 5.31238 22.4706C5.38137 22.7121 5.48486 22.988 5.51936 23.2295C5.55385 23.471 5.58835 23.816 5.55385 24.0574C5.58835 23.333 5.65734 22.6086 5.41587 21.9187C5.34688 21.7462 5.27788 21.5392 5.24339 21.3667C5.1054 20.6423 5.58835 19.9524 6.0368 19.366C6.45075 18.8485 6.8647 18.3311 7.27865 17.8136C7.34764 17.7447 7.41664 17.6757 7.48563 17.6412C7.55462 17.6067 7.6926 17.6067 7.7271 17.7102C7.7616 17.7447 7.76159 17.8137 7.76159 17.8481C7.76159 18.3656 7.83059 19.159 7.41664 19.504C7.10617 19.7799 6.76121 20.0559 6.45075 20.3319C6.38176 20.4008 6.27827 20.4698 6.24377 20.5733C6.20928 20.6768 6.20928 20.8148 6.20928 20.9183C6.27827 21.7807 6.31276 22.6086 6.38176 23.471C6.62323 22.9535 6.79571 22.4016 6.8992 21.8152C6.96819 21.4702 7.07168 21.0563 7.38214 20.9873C7.52012 20.9528 7.65811 20.9873 7.79609 21.0218C8.48601 21.1943 9.34841 21.1598 9.93484 20.7113C10.0728 21.4012 10.5213 22.0222 11.1077 22.4361C11.1767 22.5051 11.2802 22.5741 11.3147 22.6431C10.4523 22.6431 9.58988 22.6086 8.72748 22.4706C8.52051 22.4361 8.27903 22.4016 8.14105 22.2636C8.07206 22.1946 7.96857 21.9877 7.86508 21.9877C8.07206 22.1256 8.27903 22.3671 8.17555 22.6086C8.14105 22.6776 8.07206 22.7466 8.00307 22.8156C7.93407 22.9191 7.89958 23.057 7.89958 23.195C7.86508 24.0919 7.89958 24.9888 8.07206 25.8857C8.10655 26.1272 8.17555 26.3687 8.31353 26.5411C8.48601 26.7136 8.72748 26.8171 8.96895 26.8516C9.24492 26.9206 9.55539 26.9206 9.79686 26.8171C10.2453 26.6446 10.4868 26.1272 10.5903 25.6787C10.6938 25.1958 10.6938 24.7128 10.8662 24.2644C11.0387 23.816 11.4527 23.471 11.9011 23.5745C11.7631 23.816 11.7976 24.1264 11.8666 24.4024C11.9701 24.6784 12.1081 24.9198 12.2116 25.1958C12.4186 25.8512 12.2116 26.5411 11.8666 27.1276C11.5217 27.714 11.0732 28.2314 10.7627 28.7834C10.4178 29.3698 10.2108 30.0597 10.1418 30.7496C10.1073 31.0256 10.1073 31.3016 10.1418 31.5775C10.2453 32.3365 10.6593 33.0264 10.6593 33.7853C7.86508 37.1659 6.58873 38.0283 7.86508 34.8547C7.96857 34.8892 8.07206 34.9582 8.17555 35.0271L7.93407 34.6822C8.07206 34.3372 8.24454 33.9233 8.45151 33.5093C8.21004 33.8543 7.96857 34.1647 7.79609 34.4752C6.8992 33.3368 6.51974 32.9919 6.10579 31.0946ZM27.8727 32.9919C24.5266 32.6124 22.4569 30.7496 23.5952 27.8175C21.9049 29.0938 22.2499 31.0601 23.5263 32.2675L23.4918 32.233C19.8697 35.7171 15.6267 33.6818 11.4182 30.5772C11.7286 31.888 11.3837 32.5434 10.8662 31.0256C10.7972 29.1628 14.4193 27.507 12.0391 22.9191C10.9007 22.988 10.2108 23.9194 10.1073 25.8857C9.86585 27.2311 7.7271 26.7481 8.21004 22.988C9.86585 22.988 11.6941 23.057 12.1426 22.3326C11.0732 22.2291 10.8317 21.4012 10.9697 20.2974L7.31315 20.1939L8.21004 18.2966C8.00307 16.3303 7.14067 17.0202 6.17478 18.1931C6.45075 17.0202 6.38176 16.4683 5.9678 16.5028C4.93293 17.7102 3.82905 18.6071 2.65619 19.1245C2.41472 18.4691 1.89728 18.0896 0.896895 18.1241C0.896895 20.2629 0.068992 22.4706 0 23.264C2.27673 25.3338 2.13875 30.6462 5.38137 31.0946C6.20928 33.0609 6.24377 33.9233 7.65811 34.7512C6.34726 36.8554 6.55424 37.7868 7.41664 37.6833H7.38214C13.7984 42.8577 21.2495 42.5818 24.0437 35.5101C20.9046 41.5124 14.4538 41.3054 8.72748 37.0969L8.38252 37.2349C9.55539 36.476 11.0732 34.7512 12.1426 32.164C17.179 35.2341 21.215 35.6826 24.0092 32.6124C25.0096 33.3368 26.4239 33.6473 27.8727 32.9919Z" fill="#19191A"/>
    <path d="M55.5387 29.2318C54.5728 30.7497 53.4345 31.888 49.9849 32.6124C52.3651 31.3706 53.2965 30.4392 54.5383 29.1628C54.1934 29.1973 54.5383 29.1628 54.3659 29.3353L55.5387 29.2318Z" fill="#19191A"/>
    <path d="M62.6792 27.714L63.6106 24.8853L55.5731 27.4725L50.2262 26.8171L47.6735 25.9547L45.3967 25.5407L42.9475 24.4369L42.3266 23.9884L42.1196 25.1613L43.258 26.7481L46.5351 28.1279L49.7432 28.8868L54.2277 29.3008H56.263L62.6792 27.714Z" fill="white"/>
    <path d="M63.8521 24.5404C63.8866 24.2644 63.9211 24.023 63.8866 23.816C63.7831 23.0226 63.1622 22.4706 62.6448 22.0222L62.5413 21.9187C61.3684 20.8838 59.9886 20.2284 58.6432 20.1249C58.3673 20.0904 58.1258 20.0904 57.8843 20.1249C57.7463 20.1249 57.6084 20.1249 57.4359 20.1249C57.2979 20.1249 57.1599 20.1249 57.0564 20.0904C56.5735 19.9869 56.125 19.8834 55.6421 19.7455C54.8832 19.5385 54.0553 19.297 53.1239 19.2625C52.9514 19.2625 52.7789 19.2625 52.5719 19.2625C52.158 19.297 51.7785 19.4005 51.3991 19.504C51.0196 19.6075 50.6747 19.711 50.3987 19.711H50.3642C50.0882 19.711 49.7778 19.642 49.4673 19.573C49.1223 19.504 48.7429 19.4005 48.3289 19.4005C47.8805 19.4005 47.432 19.504 47.0526 19.642C46.8111 19.7455 46.6041 19.8834 46.4317 20.0214C46.2592 20.1594 46.0867 20.2629 45.9142 20.3319C45.5003 20.5044 45.0173 20.6424 44.5689 20.7458C43.465 21.0563 42.4301 21.3323 42.0162 22.3672C41.9472 22.5396 41.9472 22.7121 41.9127 22.9536C41.9127 23.1261 41.8782 23.264 41.8437 23.4365C41.8092 23.5745 41.7747 23.7125 41.7402 23.816C41.6712 24.0575 41.6367 24.2644 41.6367 24.5059C41.6712 24.8509 41.7747 25.0923 41.8782 25.3683C41.9472 25.5063 42.0162 25.6443 42.0507 25.8167V25.8512C44.2584 28.0245 48.3289 29.4388 52.9859 29.6113C54.5727 29.6803 56.1595 29.5768 57.6429 29.3353C59.3332 29.0594 61.2649 28.7489 62.5758 27.7485C62.9552 27.4726 63.4037 26.9551 63.5762 26.4377C63.6797 26.1617 63.6796 25.9202 63.6796 25.6098C63.6796 25.4718 63.6796 25.3338 63.6796 25.1613C63.8176 24.9199 63.8521 24.7474 63.8521 24.5404ZM44.5344 26.9206C43.5685 26.4377 42.5681 25.9547 42.2576 24.7474C42.8441 25.9892 44.0859 26.8171 45.9487 27.1966C46.0867 27.2311 46.2247 27.2311 46.3282 27.2311C46.3972 27.2311 46.4662 27.2311 46.5007 27.2311C46.5696 27.2311 46.6386 27.2311 46.7076 27.2311C46.8801 27.2311 47.0181 27.2656 47.1216 27.2656C47.432 27.3346 47.777 27.4381 48.122 27.576C48.3289 27.645 48.5704 27.7485 48.8119 27.8175C50.4677 28.3005 52.5374 28.6109 54.5037 28.6799C55.9181 28.7144 57.3669 28.4384 58.7122 28.0935C58.8847 28.059 59.0227 28.0245 59.1952 27.99C60.644 27.645 62.0238 27.3346 62.9552 26.3342C62.9897 26.2997 63.0587 26.2307 63.0932 26.1617C63.1622 26.0927 63.1967 26.0237 63.2657 25.9892C63.0242 26.9206 62.2653 27.3346 61.4719 27.714C60.6785 28.0935 59.7126 28.3005 58.9192 28.4384C57.0909 28.7834 55.0557 28.9214 53.0549 28.8524C49.8813 28.7489 46.9491 28.0935 44.8103 27.0241C44.7069 26.9896 44.6379 26.9551 44.5344 26.9206ZM60.8855 26.8171C60.3335 26.9896 59.7471 27.1276 59.1952 27.2311C58.9192 27.3001 58.6777 27.3346 58.4363 27.4036C56.7805 27.783 55.3316 27.9555 53.9173 27.8865C53.6068 27.8865 53.2964 27.852 52.9859 27.8175C51.0886 27.645 49.4328 27.1966 47.777 26.7136C47.3631 26.6102 46.9146 26.5412 46.5007 26.4722C46.0522 26.4032 45.6038 26.3342 45.1898 26.1962C43.81 25.7478 42.3266 25.0923 42.4991 22.8846C42.9821 21.8842 43.9135 21.6082 44.9138 21.2978C45.0518 21.2633 45.1553 21.2288 45.2933 21.1943C45.6383 21.0908 45.9832 20.9183 46.3627 20.7458C47.0871 20.4009 47.8115 20.0904 48.5359 20.0904H48.5704C48.8119 20.0904 49.0534 20.1594 49.2603 20.1939C49.5018 20.2284 49.7778 20.2974 50.0192 20.2974C50.4332 20.2974 50.8127 20.1939 51.2266 20.0904C51.5716 19.9869 51.9165 19.9179 52.227 19.8834C52.434 19.8834 52.6754 19.8834 52.9169 19.8834C53.8483 19.9179 54.7452 20.1249 55.6076 20.2974C55.8146 20.3319 56.0215 20.4009 56.2285 20.4354C56.194 20.4699 56.125 20.4699 56.0905 20.5044C55.9525 20.5389 55.7801 20.6079 55.7456 20.7113L55.7111 20.7803L55.7801 20.8148C55.9181 20.8493 56.056 20.8838 56.194 20.8838C56.47 20.8838 56.7115 20.8493 56.9874 20.8148C57.1944 20.7803 57.4014 20.7458 57.5739 20.7458C58.6432 20.7113 59.9196 21.0563 61.1269 21.7462C62.6448 22.5741 63.4382 23.402 63.4382 24.1954C63.4382 24.6439 63.1967 25.3338 62.9552 25.6443C62.5068 26.1272 61.5754 26.6102 60.8855 26.8171Z" fill="#19191A"/>
    <path d="M63.921 23.54C63.9555 23.264 63.99 23.0225 63.9555 22.8156C63.852 22.0221 63.2311 21.4702 62.7136 21.0218L62.6101 20.9183C61.4373 19.8834 60.0574 19.228 58.7121 19.1245C58.4361 19.09 58.1946 19.09 57.9532 19.1245C57.8152 19.1245 57.6772 19.1245 57.5047 19.1245C57.3667 19.1245 57.2288 19.1245 57.1253 19.09C56.6423 18.9865 56.1939 18.883 55.7109 18.745C54.952 18.5381 54.1241 18.2966 53.1927 18.2621C53.0202 18.2621 52.8478 18.2621 52.6408 18.2621C52.2268 18.2966 51.8474 18.4001 51.4679 18.5036C51.0885 18.607 50.7435 18.7105 50.4675 18.7105H50.4331C50.1571 18.7105 49.8466 18.6415 49.5362 18.5725C49.1912 18.5036 48.8117 18.4001 48.3978 18.4001C47.9493 18.4001 47.5009 18.5036 47.1214 18.6415C46.88 18.745 46.673 18.883 46.5005 19.021C46.328 19.159 46.1556 19.2625 45.9831 19.3315C45.5691 19.5039 45.0862 19.6419 44.6377 19.7454C43.5339 20.0559 42.499 20.3318 42.085 21.3667C42.016 21.5392 42.016 21.7117 41.9815 21.9532C41.9815 22.1256 41.947 22.2636 41.9125 22.4361C41.878 22.5741 41.8436 22.7121 41.8091 22.8156C41.7401 23.057 41.7056 23.264 41.7056 23.5055C41.7401 23.8504 41.8436 24.0919 41.947 24.3679C42.016 24.5059 42.085 24.6438 42.1195 24.8163V24.8508C44.3273 27.0241 48.3978 28.4384 53.0547 28.6109C54.6416 28.6799 56.2284 28.5764 57.7117 28.3349C59.402 28.0589 61.3338 27.7485 62.6446 26.7481C63.0241 26.4721 63.4725 25.9547 63.645 25.4373C63.7485 25.1613 63.7485 24.9198 63.7485 24.6093C63.7485 24.4714 63.7485 24.3334 63.7485 24.1609C63.8865 23.9194 63.8865 23.7125 63.921 23.54ZM44.6032 25.8857C43.6373 25.4028 42.637 24.9198 42.3265 23.7125C42.9129 24.9543 44.1548 25.7822 46.0176 26.1617C46.1555 26.1962 46.2935 26.1962 46.397 26.1962C46.466 26.1962 46.535 26.1962 46.5695 26.1962C46.6385 26.1962 46.7075 26.1962 46.7765 26.1962C46.949 26.1962 47.0869 26.2307 47.1904 26.2307C47.5009 26.2996 47.8459 26.4031 48.1908 26.5411C48.3978 26.6101 48.6393 26.7136 48.8807 26.7826C50.5365 27.2655 52.6063 27.6105 54.5726 27.645C55.9869 27.6795 57.4357 27.4035 58.7811 27.0586C58.9536 27.0241 59.0915 26.9896 59.264 26.9551C60.7129 26.6101 62.0927 26.2996 63.0241 25.2993C63.0586 25.2648 63.1276 25.1958 63.1621 25.1268C63.2311 25.0578 63.2656 24.9888 63.3345 24.9543C63.0931 25.8857 62.3342 26.2996 61.5408 26.6791C60.7473 27.0586 59.7815 27.2655 58.9881 27.4035C57.1598 27.7485 55.1245 27.8865 53.1237 27.8175C49.9501 27.714 47.0179 27.0586 44.8792 25.9892C44.7757 25.9892 44.6722 25.9202 44.6032 25.8857ZM60.9543 25.8167C60.4024 25.9892 59.816 26.1272 59.264 26.2307C58.9881 26.2996 58.7466 26.3341 58.5051 26.4031C56.8493 26.7826 55.4005 26.9551 53.9861 26.8861C53.6757 26.8861 53.3652 26.8516 53.0547 26.8171C51.1575 26.6446 49.5017 26.1962 47.8459 25.7132C47.4319 25.6097 46.9835 25.5407 46.5695 25.4717C46.1211 25.4028 45.6726 25.3338 45.2587 25.1958C43.8788 24.7473 42.3955 24.0919 42.568 21.8842C43.0509 20.8838 43.9823 20.6078 44.9827 20.2973C45.1207 20.2629 45.2242 20.2284 45.3621 20.1939C45.7071 20.0904 46.0521 19.9179 46.4315 19.7454C47.1559 19.4005 47.8803 19.09 48.6048 19.09H48.6393C48.8807 19.09 49.1222 19.159 49.3292 19.1935C49.5707 19.228 49.8466 19.297 50.0881 19.297C50.502 19.297 50.8815 19.1935 51.2955 19.09C51.6404 18.9865 51.9854 18.9175 52.2958 18.883C52.5028 18.883 52.7443 18.883 52.9858 18.883C53.9171 18.9175 54.814 19.1245 55.6764 19.297C55.8834 19.3315 56.0904 19.4005 56.2974 19.4349C56.2629 19.4694 56.1939 19.4694 56.1594 19.5039C56.0214 19.5384 55.8489 19.6074 55.8144 19.7109L55.7799 19.7799L55.8489 19.8144C55.9869 19.8489 56.1249 19.8834 56.2629 19.8834C56.5388 19.8834 56.7803 19.8489 57.0563 19.8144C57.2633 19.7799 57.4702 19.7454 57.6427 19.7454C58.7121 19.7109 59.9884 20.0559 61.1958 20.7458C62.7136 21.5737 63.507 22.4016 63.507 23.195C63.507 23.6435 63.2656 24.3334 63.0241 24.6438C62.5756 25.0923 61.6442 25.5752 60.9543 25.8167Z" fill="#19191A"/>
    <path fill-rule="evenodd" clip-rule="evenodd" d="M56.3663 19.435C56.4698 19.5385 55.9179 19.6075 55.8144 19.7455C56.4353 19.9179 57.0218 19.6765 57.6082 19.6765C58.8501 19.642 60.1609 20.0904 61.1613 20.6769C61.8167 21.0563 63.4725 22.0222 63.507 23.1951C63.507 23.678 63.2655 24.3679 63.0241 24.6784C62.6101 25.1958 61.7132 25.6788 60.9888 25.9202C60.1954 26.1617 59.333 26.3342 58.5396 26.5067C56.8838 26.8861 55.09 27.1621 53.0547 26.9551C51.123 26.7481 49.4671 26.2997 47.8458 25.8512C46.9834 25.6098 46.052 25.5753 45.2586 25.3338C43.9133 24.9199 42.361 24.2299 42.5335 21.9187C43.0854 20.7458 44.2238 20.5044 45.3621 20.1594C46.328 19.8489 47.5009 19.021 48.6047 19.0555C49.1222 19.0555 49.6051 19.2625 50.0881 19.2625C50.8125 19.2625 51.5714 18.8831 52.2958 18.8486C53.7446 18.7796 55.0555 19.159 56.3663 19.435ZM61.4028 23.7815C60.5404 23.609 59.7814 24.9544 58.919 24.9199C58.4706 24.8854 58.0221 24.5749 57.5392 24.5404C56.5043 24.4024 55.7454 24.6094 54.814 24.6784C53.3307 24.7819 51.9164 23.8505 50.4675 23.7815C50.0536 23.7815 49.6051 23.8505 49.1912 23.9195C48.8117 23.9885 48.3288 24.2644 47.9838 24.2299C47.5354 24.1954 46.9489 23.678 46.5005 23.402C45.9831 23.0916 45.4311 22.7466 44.9137 22.6776C44.4652 22.6086 44.1203 22.6776 43.9133 23.1261C45.5346 22.8846 46.397 24.4714 47.7423 24.6784C48.3633 24.7819 49.1567 24.4024 49.8121 24.3679C50.64 24.3334 51.4334 24.4714 52.1923 24.7474C52.9512 25.0233 53.7101 25.2993 54.4691 25.2993C54.952 25.2993 55.4694 25.1613 55.9524 25.0923C57.1942 24.9888 58.3326 25.2648 59.5055 25.4718C59.6435 25.3338 59.3675 25.2303 59.4365 25.1613C60.2299 24.9199 60.7473 24.1954 61.6787 24.1609C61.7477 23.885 61.5062 23.816 61.4028 23.7815Z" fill="white"/>
    <path d="M61.9202 24.1954C61.8857 23.816 61.6097 23.747 61.5407 23.747C61.5062 23.747 61.4372 23.747 61.4028 23.747C60.9888 23.747 60.5748 24.0229 60.1954 24.3334C59.8159 24.6094 59.4365 24.9198 59.057 24.8853C58.8155 24.8853 58.6086 24.7818 58.3671 24.6784C58.1601 24.6094 57.9187 24.5059 57.7117 24.4714C57.5392 24.4369 57.4012 24.4369 57.2287 24.4369C56.7113 24.4024 56.2628 24.4714 55.8144 24.5404C55.5384 24.5749 55.2625 24.6094 54.952 24.6439C54.8485 24.6439 54.7105 24.6439 54.607 24.6439C53.9171 24.6094 53.2617 24.4024 52.6063 24.1954C51.9509 23.9884 51.2954 23.7815 50.64 23.747C50.295 23.747 49.8811 23.7815 49.3636 23.8849C49.2257 23.9194 49.0532 23.9539 48.9152 24.0229C48.6737 24.1264 48.3978 24.1954 48.1563 24.1954C47.8458 24.1609 47.4319 23.8849 47.0869 23.6435C46.9489 23.54 46.8109 23.471 46.7075 23.3675L46.673 23.333C46.1555 23.0225 45.6036 22.6776 45.1206 22.6086C45.0517 22.6086 44.9827 22.5741 44.9137 22.5741C44.4997 22.5741 44.2582 22.7121 44.0858 23.057L44.0513 23.1605H44.1548C44.2927 23.126 44.4307 23.126 44.5687 23.126C45.2931 23.1605 45.8796 23.54 46.4315 23.9194C46.9144 24.2644 47.3974 24.5749 47.9838 24.6784C48.0528 24.6784 48.0873 24.6784 48.1563 24.6784C48.4668 24.6784 48.8462 24.6094 49.1912 24.5059C49.5016 24.4369 49.8121 24.3679 50.0881 24.3334C50.8815 24.2989 51.6749 24.4369 52.4683 24.7128L52.5028 24.7473C53.2617 25.0233 53.9861 25.2648 54.7105 25.2993H54.745C55.0555 25.2993 55.3315 25.2648 55.6419 25.1958C55.8489 25.1613 56.0559 25.1268 56.2628 25.0923C56.5388 25.0578 56.8148 25.0578 57.0908 25.0923C57.8497 25.1268 58.5741 25.2648 59.3675 25.4028C59.5055 25.4373 59.6779 25.4718 59.8159 25.4718H59.8504L59.8849 25.4373C59.9194 25.4028 59.9539 25.3683 59.9539 25.3338C59.9539 25.2648 59.8849 25.1958 59.8504 25.1613C60.1609 25.0578 60.4369 24.8853 60.7128 24.7128C61.1268 24.4714 61.5062 24.1954 62.0582 24.1954H62.1272H61.9202Z" fill="#19191A"/>
    <path d="M52.3996 21.9878C52.1582 22.0568 52.1927 22.2637 52.4341 22.1947C52.9516 22.0223 53.7105 22.1602 53.814 22.9882C53.8485 23.1261 54.2624 23.0226 54.2279 22.8502C54.1244 21.7808 53.0206 21.7808 52.3996 21.9878Z" fill="#19191A"/>
    <path d="M58.2983 21.9188C57.9878 22.3673 57.5394 22.4017 57.1599 22.0913C57.0219 21.9533 56.608 22.2293 56.815 22.4017C57.3669 22.8847 58.1948 22.7812 58.6432 22.0913C58.8157 21.8153 58.4363 21.7463 58.2983 21.9188Z" fill="#19191A"/>
    <path d="M57.4014 20.7459C57.4704 20.6769 57.5049 20.539 57.4359 20.4355C57.3325 20.332 57.229 20.401 57.1255 20.47C56.9875 20.5734 56.815 20.5734 56.677 20.47C56.5735 20.401 56.4701 20.401 56.3666 20.5045C56.2976 20.5734 56.2286 20.7459 56.3321 20.8149C56.6425 21.0219 57.022 20.9874 57.4014 20.7459Z" fill="#19191A"/>
    <path d="M50.6401 20.125C50.8125 19.9525 50.3986 20.0215 50.3296 20.0905C49.9846 20.401 49.5017 20.47 49.2947 19.9525C49.2257 19.8146 48.8118 19.987 48.8808 20.0905C49.1912 20.9184 50.1226 20.5735 50.6401 20.125Z" fill="#19191A"/>
    <path d="M46.1557 20.8494C45.4658 20.4354 44.6379 20.9529 44.086 21.5393C43.879 21.7463 44.2929 21.8153 44.4309 21.6773C44.7759 21.2978 45.3623 20.8494 45.8108 21.1253C45.9487 21.2288 46.3627 20.9529 46.1557 20.8494Z" fill="#19191A"/>
    <path d="M53.1928 22.8847C53.3653 22.7122 52.9513 22.7812 52.8823 22.8502C52.5374 23.1606 52.0544 23.2296 51.8475 22.7122C51.7785 22.5742 51.3645 22.7467 51.4335 22.8502C51.7785 23.6781 52.7099 23.3331 53.1928 22.8847Z" fill="#19191A"/>
    <path d="M53.6413 21.0218C53.6413 21.0218 52.9514 19.9179 53.0203 19.159C53.1238 18.4001 54.6417 17.3308 54.2277 16.5373C53.8138 15.7439 52.8134 15.468 52.8824 14.5711C52.9514 13.6742 54.3657 11.6389 54.3657 11.6389C54.3657 11.6389 52.7444 13.1912 52.4339 14.3296C52.1235 15.468 52.7099 16.5028 53.1238 16.9513C53.5378 17.3997 52.6064 18.2621 52.4339 18.8831C52.2959 19.4695 53.6413 21.0218 53.6413 21.0218Z" fill="#19191A"/>
    <path d="M54.6071 20.9529C54.6071 20.9529 53.9172 20.1595 54.4001 19.2281C54.883 18.2967 55.504 17.8827 55.4005 17.4343C55.297 16.9858 54.883 16.4684 54.883 16.4684C54.883 16.4684 55.642 16.9513 55.7109 17.6412C55.7799 18.3312 54.9175 18.7796 54.6761 19.6075C54.4346 20.4354 54.6071 20.9529 54.6071 20.9529Z" fill="#19191A"/>
    <path d="M51.8475 20.9874C51.8475 20.9874 52.3304 20.2975 52.0889 19.4351C51.813 18.5727 51.4335 18.1587 51.537 17.7793C51.6405 17.3998 51.9165 16.9514 51.9165 16.9514C51.9165 16.9514 51.399 17.3653 51.33 17.9517C51.261 18.5727 51.7785 19.0211 51.9165 19.78C51.9855 20.5389 51.8475 20.9874 51.8475 20.9874Z" fill="#19191A"/>
    <path fill-rule="evenodd" clip-rule="evenodd" d="M2.75974 19.78L2.65625 21.8153L3.20819 22.0913L2.75974 19.78Z" fill="white"/>
    <path fill-rule="evenodd" clip-rule="evenodd" d="M127.009 29.2363C127.009 29.1778 127.038 29.1486 127.038 29.0901C127.155 28.447 127.184 27.7162 127.184 27.0731C127.184 26.3715 127.184 25.6115 127.038 24.8806C127.038 24.8222 127.009 24.7637 127.009 24.676C126.979 24.7637 126.979 24.8514 126.979 24.8806C126.863 25.553 126.833 26.2838 126.833 26.9562C126.833 27.6285 126.863 28.3301 126.979 28.9732C126.979 29.0609 127.009 29.1486 127.009 29.2363ZM119.233 24.2375C119.233 24.2667 119.204 24.296 119.204 24.3252C118.999 25.0853 118.97 25.9915 118.94 26.7808C118.94 27.57 118.94 28.5347 119.145 29.2948C119.145 29.2948 119.145 29.2948 119.145 29.324C119.145 29.2948 119.174 29.2655 119.174 29.2655C119.408 28.5347 119.467 27.5993 119.467 26.81C119.467 26.0207 119.437 25.1145 119.233 24.3837C119.262 24.3252 119.233 24.2667 119.233 24.2375ZM82.9259 24.2375C82.9259 24.2667 82.8966 24.296 82.8966 24.3252C82.692 25.0853 82.6628 25.9915 82.6336 26.7808C82.6336 27.57 82.6336 28.5347 82.8382 29.2948C82.8382 29.2948 82.8382 29.2948 82.8382 29.324C82.8382 29.2948 82.8674 29.2655 82.8674 29.2655C83.1013 28.5347 83.1597 27.5993 83.1597 26.81C83.1597 26.0207 83.1305 25.1145 82.9259 24.3837C82.9551 24.3252 82.9259 24.2667 82.9259 24.2375ZM77.9563 20.6419C77.9563 20.7881 77.9563 20.9342 77.9563 21.0804C77.9563 21.7527 77.9563 22.4543 77.9563 23.1267C77.9563 23.9744 77.9856 24.7929 78.0148 25.6407C78.044 26.5177 78.0733 27.3946 78.1025 28.3009C78.1317 28.8855 78.1317 29.4702 78.161 30.0548C78.161 29.9963 78.161 29.9379 78.161 29.8794C78.1902 28.0085 78.1902 26.1376 78.161 24.2667C78.1317 23.3313 78.1317 22.2789 78.044 21.3435L77.9563 20.6419ZM86.5215 21.6066C86.5215 21.5773 86.5215 21.5481 86.4923 21.5189L86.2292 20.3496H95.6421L95.4082 21.4896C95.379 21.665 95.3498 21.8697 95.3498 22.0451C95.3205 22.4251 95.3205 22.7759 95.2913 23.1559C95.2621 24.3837 95.2621 25.6114 95.2621 26.8685C95.2621 28.1255 95.2621 29.3825 95.3205 30.6395C95.3498 31.2241 95.3498 31.9257 95.4375 32.5104L95.6128 33.592H90.8479C90.5264 33.6797 90.1756 33.7089 89.8248 33.7089C89.2986 33.7089 88.7724 33.6212 88.3047 33.3581C87.8077 33.095 87.3985 32.715 87.1061 32.2473C86.9307 31.9549 86.8138 31.6334 86.7261 31.2826C86.5215 31.7211 86.2876 32.1596 85.9953 32.5396C85.3522 33.3581 84.446 33.7966 83.3936 33.7966C83.1305 33.7966 82.8966 33.7674 82.6336 33.7089C82.6336 33.8843 82.6628 34.0305 82.6628 34.2058C82.692 34.9367 82.7213 35.7259 82.8382 36.486L82.9551 37.2753L77.8686 39L77.9856 37.5676C78.0148 37.3337 78.0148 37.0706 78.0148 36.8368C78.044 36.3106 78.044 35.8136 78.044 35.2875C78.044 34.7028 78.0733 34.1474 78.0733 33.5627L73.2499 33.592L73.3083 32.5981C73.3376 31.9257 73.396 31.2826 73.4253 30.6102C73.4545 29.821 73.4837 29.0024 73.513 28.2132C73.5422 27.3362 73.5422 26.4592 73.5714 25.6115C73.6007 24.7929 73.6007 24.0037 73.6007 23.1851C73.6007 22.542 73.6007 21.8989 73.5714 21.2558C73.5714 20.8758 73.5422 20.4957 73.513 20.1157C73.513 20.0572 73.4837 19.9696 73.4837 19.9111C73.3668 19.8819 73.2206 19.8819 73.1037 19.8819C72.7529 19.8819 72.4021 19.8819 72.0513 19.8819H71.0574L71.1159 18.8879C71.1451 18.4495 71.1451 17.9817 71.1451 17.514C71.1451 17.0755 71.1451 16.5786 71.0867 16.1401L70.9697 15.0292L72.0806 15.0877C72.4898 15.1169 72.8991 15.1169 73.2791 15.1169C74.0392 15.1169 74.77 15.1169 75.53 15.1169C76.6993 15.1169 77.8979 15.1169 79.0672 15.0585L80.1488 15L80.0611 16.0816C80.0318 16.5201 80.0026 17.0171 80.0026 17.4555C80.0026 17.9233 80.0026 18.3618 80.0318 18.8295L80.0903 19.8234H79.0964C78.7748 19.8234 78.4533 19.8234 78.1317 19.8526C78.0733 19.8526 78.0148 19.8526 77.9563 19.8819C77.9563 19.9111 77.9563 19.9403 77.9563 19.9695V19.9988V20.028C77.9563 20.1449 77.9271 20.2619 77.9271 20.3788H82.0781C82.5166 20.2034 83.0136 20.1157 83.4813 20.1157C84.329 20.1157 85.1183 20.3496 85.7907 20.8758C86.1122 21.0219 86.3461 21.285 86.5215 21.6066ZM102.424 24.676C102.366 24.676 102.307 24.676 102.249 24.676C102.19 24.676 102.132 24.676 102.073 24.676C102.044 24.9099 102.073 25.2022 102.044 25.3776C102.015 26.2253 102.044 27.0438 102.044 27.8916C102.044 28.7393 102.073 29.5871 102.102 30.4641C102.102 30.8441 102.102 31.2534 102.132 31.6626C102.161 31.9549 102.161 32.218 102.219 32.5104C102.249 32.2473 102.278 31.9549 102.307 31.6918C102.336 31.341 102.336 30.961 102.366 30.6102C102.395 29.7917 102.395 28.9732 102.424 28.1839C102.424 27.3362 102.453 26.5177 102.453 25.6699C102.453 25.3191 102.453 24.9976 102.424 24.676ZM137.123 20.3788H146.302L146.068 21.5189C146.039 21.6943 146.01 21.8989 146.01 22.0743C145.981 22.4543 145.981 22.8051 145.951 23.1851C145.922 24.4129 145.922 25.6407 145.922 26.8977C145.922 28.1547 145.922 29.4117 145.981 30.6687C146.01 31.2533 146.01 31.9549 146.098 32.5396L146.273 33.6212H141.508C141.187 33.7089 140.836 33.7381 140.485 33.7381C139.959 33.7381 139.433 33.6504 138.965 33.3873C138.468 33.1242 138.059 32.7442 137.766 32.2765C137.474 31.8088 137.357 31.2826 137.328 30.7564C137.299 30.2594 137.299 29.704 137.299 29.2071C137.299 28.1547 137.299 27.1023 137.299 26.0499C137.299 25.8453 137.299 25.6407 137.299 25.4361L136.48 24.7052C136.334 24.6468 136.012 24.6175 135.866 24.5883C135.749 24.5883 135.428 24.5591 135.311 24.676L135.252 24.7345L135.194 24.7637C135.077 24.8514 135.018 25.056 134.989 25.173C134.872 25.7868 134.872 26.6638 134.872 27.3069C134.902 29.0024 134.931 30.8149 135.165 32.5104L135.311 33.5627H130.254L130.341 32.5396C130.37 32.3642 130.37 32.1888 130.37 32.0134C130.137 32.3934 129.815 32.715 129.464 32.9781C128.733 33.5043 127.886 33.7381 127.009 33.7381C126.161 33.7089 125.342 33.5043 124.641 33.0365C123.939 32.5688 123.442 31.8965 123.121 31.1364C122.916 31.6334 122.653 32.1303 122.331 32.5396C121.688 33.3581 120.782 33.7966 119.73 33.7966C119.467 33.7966 119.233 33.7674 118.97 33.7089C118.97 33.8843 118.999 34.0305 118.999 34.2058C119.028 34.8197 119.057 35.4629 119.145 36.0767L119.262 37.1291H114.38L114.409 36.1644C114.439 35.3167 114.439 34.4397 114.439 33.592H110.609C110.288 33.6797 109.937 33.7089 109.586 33.7089C109.06 33.7089 108.534 33.6212 108.066 33.3581C107.569 33.095 107.16 32.715 106.867 32.2473C106.867 32.2473 106.867 32.2473 106.867 32.218C106.867 32.335 106.897 32.4227 106.897 32.5396L107.014 33.592H97.4253L97.6299 32.4811C97.7176 31.9842 97.7176 31.341 97.7468 30.8441C97.7761 29.6748 97.8053 28.5347 97.8053 27.3654C97.8053 26.1376 97.8053 24.9391 97.7761 23.7113C97.7468 22.9805 97.7468 22.2205 97.6591 21.4896L97.5422 20.3496L98.6823 20.4373C99.0623 20.4665 99.4716 20.4665 99.8516 20.4665C100.699 20.4665 101.518 20.4665 102.366 20.4665C103.593 20.4665 104.821 20.4373 106.049 20.4373L106.02 20.3788H114.293V20.3203H118.502C118.94 20.1449 119.437 20.0572 119.905 20.0572C120.753 20.0572 121.542 20.2911 122.215 20.8173C122.77 21.2558 123.121 21.8989 123.355 22.542C123.384 22.4543 123.442 22.3666 123.472 22.2789C123.822 21.5773 124.319 20.9927 124.962 20.5542C125.606 20.1157 126.307 19.8819 127.067 19.8819C127.769 19.8526 128.441 19.9988 129.084 20.3788C129.757 20.7588 130.224 21.402 130.604 22.0743C130.604 21.7527 130.575 21.4604 130.546 21.1681L130.458 20.1742L133.82 20.1449C134.668 20.0865 136.042 20.0865 137.123 20.3788Z" fill="#FDDDA7"/>
    <path d="M142.853 32.0427V31.7503C142.561 32.0719 142.181 32.3058 141.771 32.4812C141.362 32.6566 140.924 32.7443 140.485 32.7443C140.076 32.7443 139.696 32.6566 139.374 32.5104C139.053 32.335 138.79 32.1011 138.556 31.7503C138.38 31.458 138.263 31.1072 138.234 30.6395C138.205 30.201 138.205 28.6517 138.205 26.0208C138.234 23.3898 138.176 21.8113 138.059 21.3435H140.953C140.836 21.9574 140.777 24.3253 140.777 28.4763C140.807 29.1486 140.865 29.6748 140.953 30.0256C141.07 30.3764 141.245 30.5518 141.508 30.5518C141.8 30.5518 142.034 30.3764 142.21 30.0549C142.385 29.7333 142.473 29.0317 142.502 27.9793C142.502 23.9745 142.473 21.7528 142.414 21.3435H145.133C145.016 21.8989 144.958 23.7406 144.987 26.8685C144.987 29.9964 145.045 31.9257 145.162 32.6566H142.794C142.853 32.5396 142.853 32.3642 142.853 32.0427ZM137.649 21.5774L137.036 23.916C136.86 23.7698 136.509 23.6821 135.925 23.6237C135.34 23.5652 134.902 23.6821 134.609 23.9745C134.346 24.1791 134.142 24.5007 134.054 24.9391C133.966 25.3776 133.908 26.1669 133.908 27.2778C133.966 29.6748 134.054 31.4288 134.2 32.5981H131.218C131.306 31.575 131.364 29.5871 131.394 26.6931C131.423 23.7991 131.394 21.9282 131.335 21.0512L133.703 21.022C135.749 21.022 137.036 21.1974 137.649 21.5774ZM123.822 30.3764C123.647 29.8795 123.53 29.3533 123.472 28.8271C123.413 28.3009 123.384 27.7455 123.384 27.1901C123.384 26.6346 123.413 26.0792 123.472 25.553C123.53 25.0268 123.589 24.5884 123.647 24.2668C123.735 23.8283 123.939 23.3021 124.232 22.6882C124.553 22.1036 124.933 21.6359 125.43 21.2851C125.927 20.9343 126.453 20.7881 127.038 20.7881C127.564 20.7589 128.061 20.8758 128.529 21.1389C128.997 21.402 129.435 21.9282 129.815 22.7175C130.195 23.5067 130.429 24.296 130.546 25.1145C130.634 25.9331 130.692 26.6054 130.663 27.1901C130.634 27.7455 130.604 28.3009 130.517 28.8563C130.429 29.3825 130.312 29.8795 130.166 30.3472C129.815 31.2242 129.406 31.838 128.909 32.2181C128.412 32.5981 127.798 32.7735 127.009 32.7735C126.307 32.7443 125.664 32.5689 125.138 32.2181C124.582 31.8673 124.144 31.2534 123.822 30.3764ZM127.009 30.6103C127.272 30.6103 127.476 30.5226 127.623 30.318C127.74 30.1426 127.857 29.7918 127.973 29.2656C128.061 28.7394 128.12 28.0378 128.149 27.1024C128.178 26.1669 128.12 25.3776 128.003 24.7345C127.886 24.0914 127.769 23.6529 127.623 23.419C127.506 23.1852 127.301 23.0683 127.038 23.0683C126.775 23.0683 126.57 23.1852 126.453 23.419C126.307 23.6529 126.19 24.0914 126.073 24.7345C125.956 25.3776 125.898 26.1377 125.898 27.0147C125.898 27.8916 125.956 28.6225 126.073 29.1779C126.19 29.7625 126.307 30.1426 126.424 30.318C126.541 30.5226 126.746 30.6103 127.009 30.6103ZM117.537 22.1913L117.713 21.9866C117.947 21.6943 118.239 21.4312 118.619 21.2558C118.999 21.0804 119.408 20.9927 119.847 20.9927C120.519 20.9927 121.104 21.1681 121.542 21.5482C122.01 21.9282 122.332 22.5421 122.536 23.4483C122.653 23.916 122.741 24.413 122.77 24.9684C122.828 25.5238 122.829 26.0792 122.829 26.6346C122.829 27.1901 122.799 27.7162 122.77 28.2424C122.712 28.7686 122.653 29.2071 122.565 29.5579C122.332 30.5518 122.01 31.3411 121.542 31.9257C121.075 32.5104 120.461 32.8027 119.701 32.8027C119.408 32.8027 119.145 32.7443 118.911 32.6566C118.707 32.5689 118.473 32.4227 118.239 32.2473L117.976 31.9842C117.947 32.3935 117.976 33.1243 118.034 34.1767C118.064 34.9659 118.122 35.6091 118.181 36.106H115.316C115.345 34.8198 115.374 32.715 115.403 29.821C115.433 25.2022 115.403 22.3082 115.257 21.1974H117.567C117.567 21.3435 117.567 21.6359 117.537 22.1913ZM119.174 23.0683C118.765 23.0683 118.473 23.3898 118.297 24.0622C118.122 24.7345 118.034 25.6115 118.005 26.7223C117.976 27.9209 118.064 28.8271 118.239 29.4994C118.414 30.1718 118.677 30.4933 119.057 30.4933C119.525 30.4933 119.876 30.1718 120.081 29.4994C120.285 28.8271 120.402 27.9209 120.431 26.7808C120.461 25.67 120.373 24.7637 120.168 24.0914C119.993 23.419 119.642 23.0683 119.174 23.0683ZM111.954 32.0427V31.7503C111.662 32.0719 111.282 32.3058 110.872 32.4812C110.463 32.6566 110.025 32.7443 109.586 32.7443C109.177 32.7443 108.797 32.6566 108.475 32.5104C108.154 32.335 107.891 32.1011 107.657 31.7503C107.481 31.458 107.364 31.1072 107.335 30.6395C107.306 30.201 107.306 28.6517 107.306 26.0208C107.335 23.3898 107.277 21.8113 107.16 21.3435H110.054C109.937 21.9574 109.878 24.3253 109.878 28.4763C109.908 29.1486 109.966 29.6748 110.054 30.0256C110.171 30.3764 110.346 30.5518 110.609 30.5518C110.902 30.5518 111.135 30.3764 111.311 30.0549C111.486 29.7333 111.574 29.0317 111.603 27.9793C111.603 23.9745 111.574 21.7528 111.515 21.3435H114.234C114.117 21.8989 114.059 23.7406 114.088 26.8685C114.088 29.9964 114.146 31.9257 114.263 32.6566H111.895C111.925 32.5396 111.954 32.3642 111.954 32.0427ZM101.196 24.1206C101.109 24.4714 101.079 25.7284 101.138 27.8916C101.167 30.0549 101.196 31.3119 101.226 31.6919C101.255 32.0719 101.284 32.3642 101.313 32.5981H98.5069C98.6239 31.9842 98.6823 30.2303 98.7116 27.307C98.7408 24.3837 98.6823 22.4251 98.5654 21.3435C98.9454 21.3728 100.202 21.3728 102.307 21.3728C104.412 21.3435 105.64 21.3435 106.02 21.3435C105.903 22.0743 105.815 23.7406 105.815 26.3423C105.815 28.944 105.815 30.5226 105.844 31.078C105.874 31.6334 105.903 32.1304 105.961 32.5689H103.213C103.243 32.3058 103.272 32.0134 103.301 31.6919C103.33 31.3703 103.36 30.1718 103.389 28.0963C103.418 26.0208 103.418 24.7053 103.389 24.1791C103.33 23.8283 102.95 23.6529 102.278 23.6821C101.576 23.7406 101.226 23.8868 101.196 24.1206ZM92.2219 32.0427V31.7503C91.9296 32.0719 91.5496 32.3058 91.1403 32.4812C90.7311 32.6566 90.2926 32.7443 89.8541 32.7443C89.4448 32.7443 89.0648 32.6566 88.7432 32.5104C88.4217 32.335 88.1586 32.1011 87.9247 31.7503C87.7493 31.458 87.6324 31.1072 87.6032 30.6395C87.5739 30.1718 87.5739 28.6517 87.5739 25.9915C87.6032 23.3606 87.5447 21.782 87.4278 21.3143H90.3218C90.2049 21.9282 90.1464 24.296 90.1464 28.4471C90.1756 29.1194 90.2341 29.6456 90.3218 29.9964C90.4387 30.3472 90.6141 30.5226 90.8772 30.5226C91.1695 30.5226 91.4034 30.3472 91.5788 30.0256C91.7542 29.7041 91.8419 29.0025 91.8711 27.9501C91.8711 23.9452 91.8419 21.7236 91.7834 21.3143H94.5021C94.3851 21.8697 94.3267 23.7114 94.3559 26.8393C94.3559 29.9672 94.4144 31.8965 94.5313 32.6273H92.1635C92.1927 32.5396 92.2219 32.3642 92.2219 32.0427ZM81.2304 22.1913L81.4058 21.9866C81.6397 21.6943 81.932 21.4312 82.3121 21.2558C82.6921 21.0804 83.1013 20.9927 83.5398 20.9927C84.2122 20.9927 84.7968 21.1681 85.2353 21.5482C85.703 21.9282 86.0246 22.5421 86.2292 23.4483C86.3462 23.916 86.4339 24.413 86.4631 24.9684C86.5216 25.5238 86.5216 26.0792 86.5216 26.6346C86.5216 27.1901 86.4923 27.7162 86.4631 28.2424C86.4046 28.7686 86.3462 29.2071 86.2585 29.5579C86.0246 30.5518 85.703 31.3411 85.2353 31.9257C84.7676 32.5104 84.1537 32.8027 83.3937 32.8027C83.1013 32.8027 82.8382 32.7443 82.6044 32.6566C82.3998 32.5689 82.1659 32.4227 81.932 32.2473L81.6689 31.9842C81.6397 32.3935 81.6689 33.1243 81.7274 34.1767C81.7859 35.229 81.8443 36.0183 81.932 36.5445L78.9503 37.5676C79.0088 37.0415 79.038 34.469 79.0965 29.821C79.1257 25.2022 79.0965 22.3082 78.9503 21.1974H81.2597C81.2889 21.3435 81.2597 21.6359 81.2304 22.1913ZM82.8675 23.0683C82.4582 23.0683 82.1659 23.3898 81.9905 24.0622C81.8151 24.7345 81.7274 25.6115 81.6982 26.7223C81.6689 27.9209 81.7566 28.8271 81.932 29.4994C82.1074 30.1718 82.3705 30.4933 82.7505 30.4933C83.2183 30.4933 83.5691 30.1718 83.7737 29.4994C83.9783 28.8271 84.0952 27.9209 84.1245 26.7808C84.1537 25.67 84.066 24.7637 83.8614 24.0914C83.686 23.419 83.3352 23.0683 82.8675 23.0683ZM74.3023 32.6273C74.3315 32.0719 74.3608 31.3996 74.4192 30.6395C74.4485 29.8795 74.4777 29.0609 74.5069 28.184C74.5362 27.3362 74.5362 26.4592 74.5654 25.5823C74.5946 24.7053 74.5946 23.8868 74.5946 23.1267C74.5946 22.3667 74.5946 21.7236 74.5654 21.1681C74.5362 20.6127 74.5362 20.2035 74.5069 19.9696C74.4777 19.7065 74.4192 19.4726 74.3315 19.2972C74.2438 19.1218 74.0977 19.0049 73.9223 18.9465C73.7177 18.888 73.4838 18.8588 73.2207 18.8588C72.9284 18.8588 72.5776 18.8588 72.1391 18.8588C72.1683 18.5664 72.1683 18.0695 72.1683 17.4556C72.1683 16.8125 72.1391 16.3447 72.1099 15.994C72.6068 16.0232 73.7761 16.0524 75.6178 16.0232C77.4594 16.0232 78.658 15.994 79.2134 15.9647C79.1842 16.3155 79.1549 16.8125 79.1549 17.4264C79.1549 18.0402 79.1549 18.508 79.1842 18.8295C78.7749 18.8295 78.4533 18.8295 78.161 18.8588C77.8687 18.888 77.6641 18.9172 77.5179 19.0049C77.3717 19.0926 77.2548 19.1803 77.1963 19.2972C77.1379 19.4142 77.1086 19.5896 77.0794 19.8234C77.0502 20.0573 77.0209 20.4665 77.0209 21.0804C77.0209 21.6651 77.0209 22.3667 77.0209 23.1267C77.0209 23.916 77.0502 24.7637 77.0794 25.6407C77.1086 26.5469 77.1379 27.4239 77.1671 28.3009C77.1963 29.1779 77.2256 29.9672 77.2548 30.7272C77.284 31.458 77.3133 32.1011 77.3425 32.5981L74.3023 32.6273Z" fill="#FF7500"/>
</svg>
