<svg width="25" height="25" viewBox="0 0 25 25" fill="none" xmlns="http://www.w3.org/2000/svg">
    <path d="M20.55 11.7659H4.45C3.92533 11.7659 3.5 12.1913 3.5 12.7159V12.8159C3.5 13.3406 3.92533 13.7659 4.45 13.7659H20.55C21.0747 13.7659 21.5 13.3406 21.5 12.8159V12.7159C21.5 12.1913 21.0747 11.7659 20.55 11.7659Z" fill="#19191A"/>
    <path d="M20.55 16.7659H4.45C3.92533 16.7659 3.5 17.1913 3.5 17.7159V17.8159C3.5 18.3406 3.92533 18.7659 4.45 18.7659H20.55C21.0747 18.7659 21.5 18.3406 21.5 17.8159V17.7159C21.5 17.1913 21.0747 16.7659 20.55 16.7659Z" fill="#19191A"/>
    <path d="M20.55 6.76593H4.45C3.92533 6.76593 3.5 7.19126 3.5 7.71593V7.81593C3.5 8.3406 3.92533 8.76593 4.45 8.76593H20.55C21.0747 8.76593 21.5 8.3406 21.5 7.81593V7.71593C21.5 7.19126 21.0747 6.76593 20.55 6.76593Z" fill="#19191A"/>
</svg>
