<svg width="21" height="21" viewBox="0 0 21 21" fill="none" xmlns="http://www.w3.org/2000/svg">
    <path d="M7 9.76593C8.93437 9.76593 10.5 8.2003 10.5 6.26593C10.5 4.33156 8.93437 2.76593 7 2.76593C5.06562 2.76593 3.5 4.33156 3.5 6.26593C3.5 8.2003 5.06562 9.76593 7 9.76593ZM7 4.76593C7.82812 4.76593 8.5 5.43781 8.5 6.26593C8.5 7.09406 7.82812 7.76593 7 7.76593C6.17188 7.76593 5.5 7.09406 5.5 6.26593C5.5 5.43781 6.17188 4.76593 7 4.76593ZM14 11.7659C12.0656 11.7659 10.5 13.3316 10.5 15.2659C10.5 17.2003 12.0656 18.7659 14 18.7659C15.9344 18.7659 17.5 17.2003 17.5 15.2659C17.5 13.3316 15.9344 11.7659 14 11.7659ZM14 16.7659C13.1719 16.7659 12.5 16.0941 12.5 15.2659C12.5 14.4378 13.1719 13.7659 14 13.7659C14.8281 13.7659 15.5 14.4378 15.5 15.2659C15.5 16.0941 14.8281 16.7659 14 16.7659ZM15.7594 2.77218L16.7469 2.76906C17.3531 2.76593 17.7125 3.45031 17.3625 3.95031L5.91875 18.4409C5.84975 18.5393 5.75807 18.6197 5.65145 18.6752C5.54484 18.7306 5.42644 18.7596 5.30625 18.7597L4.2625 18.7628C3.65312 18.7628 3.29688 18.0784 3.64687 17.5816L15.1469 3.09093C15.2875 2.89093 15.5156 2.77218 15.7594 2.77218Z" fill="#19191A"/>
</svg>
