<svg width="19" height="21" viewBox="0 0 19 21" fill="none" xmlns="http://www.w3.org/2000/svg">
    <path d="M13 12.6409C11.8789 12.6409 11.3398 13.2659 9.5 13.2659C7.66016 13.2659 7.125 12.6409 6 12.6409C3.10156 12.6409 0.75 14.9925 0.75 17.8909V18.8909C0.75 19.9261 1.58984 20.7659 2.625 20.7659H16.375C17.4102 20.7659 18.25 19.9261 18.25 18.8909V17.8909C18.25 14.9925 15.8984 12.6409 13 12.6409ZM16.375 18.8909H2.625V17.8909C2.625 16.0316 4.14062 14.5159 6 14.5159C6.57031 14.5159 7.49609 15.1409 9.5 15.1409C11.5195 15.1409 12.4258 14.5159 13 14.5159C14.8594 14.5159 16.375 16.0316 16.375 17.8909V18.8909ZM9.5 12.0159C12.6055 12.0159 15.125 9.4964 15.125 6.39093C15.125 3.28546 12.6055 0.76593 9.5 0.76593C6.39453 0.76593 3.875 3.28546 3.875 6.39093C3.875 9.4964 6.39453 12.0159 9.5 12.0159ZM9.5 2.64093C11.5664 2.64093 13.25 4.32452 13.25 6.39093C13.25 8.45734 11.5664 10.1409 9.5 10.1409C7.43359 10.1409 5.75 8.45734 5.75 6.39093C5.75 4.32452 7.43359 2.64093 9.5 2.64093Z" fill="#19191A" stroke="#19191A" stroke-width="0.0390625"/>
</svg>
