<svg width="62" height="62" fill="none" xmlns="http://www.w3.org/2000/svg"><g fill="#000"><path d="M42.622 0c-3.306.229-7.169 2.344-9.42 5.1-2.054 2.499-3.743 6.211-3.085 9.819 3.612.112 7.343-2.054 9.506-4.856C41.645 7.455 43.176 3.766 42.622 0z"></path><path d="M55.683 20.8c-3.173-3.979-7.633-6.288-11.846-6.288-5.56 0-7.912 2.662-11.776 2.662-3.983 0-7.01-2.654-11.818-2.654-4.724 0-9.754 2.886-12.943 7.823-4.483 6.952-3.716 20.022 3.55 31.155 2.6 3.983 6.072 8.463 10.613 8.502 4.042.038 5.181-2.593 10.657-2.62 5.475-.03 6.513 2.654 10.547 2.612 4.546-.035 8.207-4.999 10.807-8.982 1.864-2.856 2.558-4.294 4.003-7.518C46.965 41.49 45.28 26.54 55.683 20.801z"></path></g></svg>