<svg width="24" height="25" viewBox="0 0 24 25" fill="none" xmlns="http://www.w3.org/2000/svg">
<path d="M4 11.5319V19.5319C4 20.0623 4.21071 20.571 4.58579 20.9461C4.96086 21.3211 5.46957 21.5319 6 21.5319H18C18.5304 21.5319 19.0391 21.3211 19.4142 20.9461C19.7893 20.571 20 20.0623 20 19.5319V11.5319" stroke="#CC5502" stroke-width="1.5" stroke-linecap="round" stroke-linejoin="round"/>
<path d="M12 6.03186C12 5.1036 11.6313 4.21336 10.9749 3.55699C10.3185 2.90061 9.42826 2.53186 8.5 2.53186C7.83696 2.53186 7.20107 2.79525 6.73223 3.26409C6.26339 3.73293 6 4.36882 6 5.03186C6 5.6949 6.26339 6.33079 6.73223 6.79963C7.20107 7.26847 7.83696 7.53186 8.5 7.53186H12M12 6.03186V7.53186M12 6.03186C12 5.1036 12.3687 4.21336 13.0251 3.55699C13.6815 2.90061 14.5717 2.53186 15.5 2.53186C16.163 2.53186 16.7989 2.79525 17.2678 3.26409C17.7366 3.73293 18 4.36882 18 5.03186C18 5.36017 17.9353 5.68525 17.8097 5.98857C17.6841 6.29188 17.4999 6.56748 17.2678 6.79963C17.0356 7.03177 16.76 7.21592 16.4567 7.34156C16.1534 7.4672 15.8283 7.53186 15.5 7.53186H12" stroke="#CC5502" stroke-width="1.5" stroke-linejoin="round"/>
<path d="M12 11.5319V21.5319M3 7.53186H21V11.5319H3V7.53186Z" stroke="#CC5502" stroke-width="1.5" stroke-linecap="round" stroke-linejoin="round"/>
</svg>
