<svg width="121" height="121" viewBox="0 0 121 121" fill="none" xmlns="http://www.w3.org/2000/svg">
<path d="M114.54 82.0153C111.647 84.0377 108.321 85.3524 104.83 85.854C101.339 86.3557 97.7795 86.0304 94.4362 84.9042C94.1333 84.7959 93.8089 84.7625 93.4904 84.8069C93.1719 84.8512 92.8688 84.972 92.6068 85.1589L83.6094 91.5606L85.9247 94.8326L94.0883 89.0148C97.9038 90.1331 101.92 90.3832 105.844 89.7471C109.768 89.111 113.501 87.6045 116.772 85.3375C117.95 84.5387 119.067 83.6522 120.113 82.6854L117.402 79.7363C116.507 80.5675 115.55 81.3294 114.54 82.0153Z" fill="#FF7500"/>
<path d="M94.4048 52.0756C91.5431 53.9102 89.2506 56.5123 87.7873 59.5871C86.324 62.662 85.7482 66.0866 86.1252 69.4729L60.7786 85.7749L35.428 69.483C35.8132 66.0955 35.2401 62.6677 33.7745 59.5917C32.3089 56.5157 30.0098 53.9159 27.1404 52.0896C23.3315 49.4555 18.6998 48.2965 14.1042 48.8276C11.9364 49.0405 9.84226 49.7311 7.97121 50.8499C6.10016 51.9687 4.49837 53.4882 3.28023 55.2999C2.06208 57.1117 1.25762 59.1709 0.924288 61.3306C0.590954 63.4903 0.73697 65.6972 1.35191 67.7938C2.58378 72.2659 5.39061 76.1378 9.2516 78.6912C12.0161 80.6796 15.2833 81.8459 18.6783 82.0563C22.0732 82.2668 25.4586 81.5128 28.446 79.8809L48.1223 93.8978L29.3977 105.945C28.5127 106.509 27.7495 107.246 27.1534 108.111C26.5573 108.977 26.1404 109.954 25.9275 110.984C25.7146 112.014 25.7099 113.077 25.9138 114.109C26.1177 115.141 26.5259 116.122 27.1144 116.993C27.7006 117.862 28.4539 118.604 29.3302 119.177C30.2065 119.75 31.188 120.141 32.217 120.328C33.2461 120.515 34.3021 120.494 35.3228 120.265C36.3436 120.037 37.3086 119.607 38.1612 118.999L60.7786 102.905L83.396 119.011C84.2495 119.637 85.2203 120.085 86.2502 120.326C87.2801 120.567 88.3478 120.597 89.3896 120.414C90.4313 120.231 91.4255 119.839 92.3126 119.261C93.1997 118.684 93.9615 117.932 94.5524 117.052C95.1432 116.172 95.5509 115.182 95.7511 114.14C95.9512 113.098 95.9397 112.026 95.7172 110.989C95.4947 109.951 95.0658 108.97 94.4562 108.103C93.8465 107.236 93.0688 106.501 92.1694 105.943L73.4229 93.9059L93.1132 79.8829C96.1002 81.5153 99.4854 82.27 102.88 82.0603C106.275 81.8506 109.543 80.685 112.308 78.6972C120.525 73.1322 123.208 62.632 118.284 55.2894C113.359 47.9469 102.64 46.5105 94.4048 52.0756ZM35.8459 115.735C34.9916 116.312 33.9463 116.531 32.9333 116.345C31.9202 116.16 31.0195 115.584 30.4234 114.742C30.1349 114.315 29.9348 113.834 29.8349 113.328C29.7351 112.822 29.7375 112.3 29.8421 111.795C29.9467 111.29 30.1514 110.811 30.4439 110.387C30.7364 109.963 31.1109 109.602 31.5451 109.325L51.6372 96.3975L57.3136 100.438L35.8459 115.735ZM91.7096 111.797C91.8662 112.558 91.7909 113.349 91.4935 114.066C91.196 114.784 90.6902 115.395 90.0418 115.821C89.3934 116.246 88.6325 116.465 87.858 116.451C87.0835 116.436 86.3314 116.188 85.6993 115.739L29.6377 75.8164C29.2958 75.5732 28.8865 75.4439 28.4674 75.4467C28.0484 75.4496 27.6408 75.5845 27.3023 75.8324C24.9337 77.3835 22.1488 78.17 19.3216 78.0865C16.4944 78.0029 13.7605 77.0532 11.487 75.365C8.42804 73.3518 6.20033 70.294 5.21678 66.7586C4.74615 65.2142 4.6256 63.5838 4.86396 61.9866C5.10232 60.3895 5.69355 58.866 6.5944 57.5277C7.49525 56.1894 8.68291 55.0701 10.0705 54.2517C11.4581 53.4333 13.0105 52.9366 14.614 52.7978C18.2491 52.3884 21.9088 53.315 24.915 55.4058C27.325 56.8899 29.2246 59.0783 30.359 61.6771C31.4935 64.276 31.8083 67.1608 31.2612 69.9444C31.1584 70.3524 31.1861 70.7825 31.3404 71.1739C31.4947 71.5652 31.7678 71.898 32.1209 72.1251L90.0121 109.323C90.4463 109.6 90.8204 109.961 91.1121 110.386C91.4038 110.811 91.607 111.291 91.7096 111.797ZM110.064 75.361C107.79 77.0488 105.055 77.9978 102.228 78.0807C99.4004 78.1635 96.6153 77.3762 94.2468 75.8244C93.9083 75.5765 93.5008 75.4416 93.0817 75.4387C92.6627 75.4358 92.2533 75.5651 91.9115 75.8084L69.792 91.5647L64.4895 88.1542L89.4302 72.105C89.7826 71.8782 90.0552 71.5461 90.2094 71.1556C90.3637 70.765 90.3918 70.3358 90.29 69.9283C89.7538 67.1443 90.0745 64.2625 91.2094 61.6657C92.3444 59.0689 94.2399 56.88 96.6441 55.3897C103.042 51.0625 111.268 52.0174 114.965 57.5123C118.662 63.0071 116.46 71.0337 110.064 75.361Z" fill="#FF7500"/>
<path d="M22.6455 4.20881L20.4322 0.866562C15.6024 4.07763 11.9803 8.81577 10.1411 14.3285C8.30201 19.8412 8.35128 25.8124 10.2811 31.2939L14.05 29.9537C12.4182 25.3149 12.3779 20.262 13.9356 15.5975C15.4933 10.9331 18.5596 6.92464 22.6475 4.20881H22.6455Z" fill="#FF7500"/>
<path d="M18.2895 37.1799C17.3268 36.0841 16.4736 34.8961 15.7422 33.633L12.2812 35.6392C13.1448 37.1325 14.1527 38.5369 15.2904 39.832L18.2895 37.1799Z" fill="#FF7500"/>
<path d="M82.7315 69.1419L88.4239 40.5863C93.0518 40.1823 97.3447 37.9981 100.404 34.4908C103.464 30.9835 105.053 26.4249 104.84 21.7687C104.626 17.1126 102.626 12.7197 99.2583 9.50925C95.8905 6.29881 91.4157 4.51958 86.7703 4.54383C82.7274 4.52947 78.8004 5.89878 75.6376 8.42574C73.9902 5.9937 71.7749 4.00293 69.1849 2.62699C66.5948 1.25105 63.7086 0.531723 60.7779 0.531723C57.8472 0.531723 54.961 1.25105 52.371 2.62699C49.7809 4.00293 47.5656 5.9937 45.9183 8.42574C42.7555 5.89878 38.8285 4.52947 34.7855 4.54383C30.156 4.5434 25.7044 6.33325 22.3563 9.54125C19.0081 12.7493 17.021 17.1286 16.8081 21.7688C16.5952 26.409 18.1728 30.953 21.213 34.4561C24.2532 37.9592 28.522 40.1519 33.132 40.5783L38.8243 69.1419L42.7432 68.3555L41.6235 62.7222H79.9323L78.8127 68.3394L82.7315 69.1419ZM73.0803 58.7099L74.7538 46.9579L70.795 46.3881L69.0415 58.7099H62.7773V36.6423H58.7785V58.7099H52.5143L50.7608 46.3881L46.802 46.9579L48.4755 58.7099H40.8237L36.7449 38.2472C36.6527 37.794 36.4074 37.3868 36.0503 37.0943C35.6932 36.8019 35.2464 36.6422 34.7855 36.6423C31.0735 36.6423 27.5136 35.1627 24.8889 32.5291C22.2641 29.8956 20.7896 26.3236 20.7896 22.5992C20.7896 18.8747 22.2641 15.3028 24.8889 12.6693C27.5136 10.0357 31.0735 8.55614 34.7855 8.55614C36.6909 8.55124 38.5768 8.94065 40.3255 9.70004C42.0741 10.4594 43.6479 11.5725 44.9485 12.9697C45.1708 13.2055 45.4467 13.3836 45.7526 13.4889C46.0586 13.5942 46.3854 13.6234 46.7051 13.5741C47.0248 13.5248 47.3278 13.3984 47.5881 13.2058C47.8484 13.0131 48.0582 12.76 48.1996 12.4681C49.3418 10.0947 51.1278 8.09255 53.3527 6.69147C55.5776 5.2904 58.1511 4.54721 60.7779 4.54721C63.4047 4.54721 65.9782 5.2904 68.2031 6.69147C70.428 8.09255 72.2141 10.0947 73.3563 12.4681C73.4976 12.76 73.7075 13.0131 73.9678 13.2058C74.2281 13.3984 74.531 13.5248 74.8507 13.5741C75.1704 13.6234 75.4972 13.5942 75.8032 13.4889C76.1091 13.3836 76.3851 13.2055 76.6073 12.9697C77.9079 11.5725 79.4817 10.4594 81.2303 9.70004C82.979 8.94065 84.8649 8.55124 86.7703 8.55614C90.4823 8.55614 94.0422 10.0357 96.667 12.6693C99.2917 15.3028 100.766 18.8747 100.766 22.5992C100.766 26.3236 99.2917 29.8956 96.667 32.5291C94.0422 35.1627 90.4823 36.6423 86.7703 36.6423C86.3094 36.6422 85.8626 36.8019 85.5056 37.0943C85.1485 37.3868 84.9031 37.794 84.8109 38.2472L80.7321 58.7099H73.0803Z" fill="#FF7500"/>
</svg>
