<svg width="33" height="32" viewBox="0 0 33 32" fill="none" xmlns="http://www.w3.org/2000/svg">
<g clip-path="url(#clip0_52313_27588)">
<mask id="mask0_52313_27588" style="mask-type:luminance" maskUnits="userSpaceOnUse" x="0" y="0" width="33" height="32">
<path d="M32.3359 0H0.335938V32H32.3359V0Z" fill="white"/>
</mask>
<g mask="url(#mask0_52313_27588)">
<path d="M5.01 22.5662C2.94062 22.5662 1.25781 24.249 1.25781 26.3183C1.25781 28.4062 2.94638 30.0677 5.0155 30.0677C7.34293 30.0677 8.76219 28.3586 8.76219 26.3183C8.76219 24.2489 7.07937 22.5662 5.01 22.5662ZM5.01 27.2564C4.49194 27.2564 4.07194 26.8364 4.07194 26.3183C4.07194 25.8001 4.49194 25.3803 5.01 25.3803C5.52807 25.3803 5.94806 25.8001 5.94806 26.3183C5.94806 26.8364 5.528 27.2564 5.01 27.2564Z" fill="#FF7500"/>
<path d="M20.6484 28.1942C21.3051 29.3199 22.5057 30.0704 23.894 30.0704C25.2824 30.0704 26.483 29.3199 27.1396 28.1942H20.6484Z" fill="#FF7500"/>
<path d="M26.7085 13.1859H20.1422C18.6287 13.1859 17.3281 14.4664 17.3281 16.0001V17.8762C17.3281 18.2811 17.564 18.5013 17.8294 18.8143H26.7086C28.3041 18.8143 29.5227 17.4644 29.5227 16.0001C29.5227 14.5141 28.2992 13.1859 26.7085 13.1859Z" fill="#FF7500"/>
<path d="M14.3878 9.43389H11.5736V8.49589C11.5736 6.93864 10.3167 5.68176 8.7595 5.68176H6.88337C6.358 5.68176 5.94531 6.09445 5.94531 6.61982V10.372C5.94525 10.8973 6.35793 11.3101 6.88331 11.3101H7.5025L6.358 15.0811C6.52693 15.0623 6.71443 15.0623 6.88337 15.0623C9.52862 15.0623 11.9113 16.3005 13.4498 18.2142V14.1243C13.4498 13.0736 13.0745 12.098 12.493 11.3102H14.3878C14.9131 11.3102 15.3258 10.8974 15.3258 10.3721C15.3257 9.84657 14.9131 9.43389 14.3878 9.43389Z" fill="#FF7500"/>
<path d="M32.1859 22.829C31.7918 21.178 31.1352 19.9211 30.3097 18.9642C29.4468 20.0149 28.171 20.6902 26.7077 20.6902C23.6553 20.6902 21.7985 20.6902 18.7718 20.6902C19.0532 21.9847 18.7342 23.3731 17.8337 24.4424H13.4499V23.5044C13.4499 19.8835 10.5044 16.938 6.8835 16.938C3.00981 16.9381 0.335938 20.303 0.335938 23.1667C1.34894 21.6845 3.075 20.6902 5.00744 20.6902C8.10306 20.6902 10.6357 23.2229 10.6357 26.3186H29.4655C31.2881 26.3186 32.6555 24.5903 32.1859 22.829Z" fill="#FF7500"/>
<path d="M29.5216 1.92917H22.0172C20.4654 1.92917 19.2031 3.19155 19.2031 4.74329V5.68136H32.3357V4.74329C32.3357 3.19148 31.0734 1.92917 29.5216 1.92917Z" fill="#FF7500"/>
<path d="M19.2031 7.55783V11.4049C19.5064 11.3431 19.82 11.31 20.1412 11.31H26.7076C28.7812 11.31 30.5245 12.6719 31.1421 14.5412C31.8618 14.0308 32.3359 13.1954 32.3359 12.2481V7.55783H19.2031Z" fill="#FF7500"/>
</g>
</g>
<defs>
<clipPath id="clip0_52313_27588">
<rect width="32" height="32" fill="white" transform="translate(0.335938)"/>
</clipPath>
</defs>
</svg>
