<svg width="34" height="38" viewBox="0 0 34 38" fill="none" xmlns="http://www.w3.org/2000/svg">
<path d="M17 1.94077C20.3815 1.94077 23.6245 3.4223 26.0156 6.05944C28.4067 8.69658 29.75 12.2733 29.75 16.0028C29.75 21.8245 25.7267 27.9243 17.85 34.4397C17.6048 34.6425 17.3065 34.7522 17 34.7522C16.6935 34.7522 16.3952 34.6425 16.15 34.4397C8.27333 27.9243 4.25 21.8245 4.25 16.0028C4.25 12.2733 5.5933 8.69658 7.98439 6.05944C10.3755 3.4223 13.6185 1.94077 17 1.94077ZM17 11.3155C15.8728 11.3155 14.7918 11.8093 13.9948 12.6883C13.1978 13.5674 12.75 14.7596 12.75 16.0028C12.75 17.246 13.1978 18.4382 13.9948 19.3173C14.7918 20.1963 15.8728 20.6901 17 20.6901C18.1272 20.6901 19.2082 20.1963 20.0052 19.3173C20.8022 18.4382 21.25 17.246 21.25 16.0028C21.25 14.7596 20.8022 13.5674 20.0052 12.6883C19.2082 11.8093 18.1272 11.3155 17 11.3155Z" fill="#FF7500"/>
<circle cx="17.0005" cy="14.545" r="9.63333" fill="#FFF9ED"/>
<path d="M24.1045 15.1734C24.1045 19.1692 20.8566 22.4172 16.8608 22.4172C12.865 22.4172 9.61719 19.1692 9.61719 15.1734C9.61719 11.1775 12.865 7.9295 16.8608 7.9295C20.8566 7.9295 24.1045 11.1672 24.1045 15.1734Z" fill="#FDDDA7"/>
<path fill-rule="evenodd" clip-rule="evenodd" d="M14.5395 13.2984C14.642 13.5853 14.9801 13.4624 15.2465 13.3292C15.3797 13.2677 15.5948 13.1242 15.769 13.1038C15.8715 13.0935 15.9534 13.155 16.0251 13.1857C16.1583 13.2574 16.271 13.196 16.312 13.0935C16.312 13.0935 16.3735 13.1652 16.3223 13.2062C16.2813 13.2472 16.2198 13.3906 16.435 13.4419C16.6604 13.4931 16.6194 13.5341 16.7526 13.5033C16.9472 13.4624 17.1009 13.2882 16.9472 13.1038C17.019 13.114 17.0907 13.196 17.1214 13.2574C17.2444 13.1652 17.4185 13.1652 17.562 13.2267C17.7259 13.2984 18.0845 13.5238 18.0128 13.1038C18.4329 13.4829 18.105 14.7636 16.9575 14.1078C16.7833 14.0054 16.6911 14.0156 16.5169 14.0976C16.3223 14.1898 16.0764 14.3435 15.81 14.4152C15.0825 14.6201 14.3756 14.0259 14.5395 13.2984Z" fill="#19191A"/>
<path d="M14.7026 10.0402C14.262 10.5935 14.2415 11.2697 14.5796 12.0586C14.5796 12.0586 16.0243 10.0197 18.0836 11.7103C18.0836 11.7103 18.3603 9.6201 16.8542 9.44592C16.8542 9.44592 17.5713 9.13854 18.1041 9.92747C19.3336 11.3926 20.6143 7.63239 18.5754 6.64879C18.5754 6.64879 17.5099 6.12625 16.2599 6.90494C16.2599 6.90494 16.7722 7.1201 16.8132 7.33526C16.0652 7.20207 15.3993 7.02789 14.928 6.77174C14.928 6.77174 13.3399 6.44387 13.4629 8.57502C13.4629 8.57502 14.2518 8.28813 14.4362 8.57502C11.8338 8.73895 11.6699 11.7717 13.9854 11.2082C13.9751 11.2185 14.1698 10.1939 14.7026 10.0402Z" fill="white"/>
<path d="M14.2523 10.9521C14.2626 10.7984 14.2933 10.6447 14.3343 10.5013C14.1499 10.8189 14.0781 11.2287 14.0781 11.2287L14.0679 11.2902L14.0064 11.3005C13.2892 11.4746 12.7872 11.3209 12.5106 11.0033C12.3569 10.8291 12.2749 10.614 12.2544 10.3886C12.2339 10.1632 12.2852 9.91726 12.3979 9.67135C12.6233 9.20004 13.1048 8.75947 13.8322 8.5648C13.6478 8.60578 13.4839 8.65701 13.4839 8.65701L13.3609 8.69799L13.3507 8.59554C13.2175 6.34144 14.9285 6.6898 14.9285 6.6898H14.949L14.9593 6.70005C15.1847 6.823 15.4715 6.92545 15.7789 7.01767C16.0248 7.08939 16.2912 7.15086 16.5678 7.20209C16.4244 7.08939 16.2092 6.99718 16.2092 6.99718L16.0453 6.92545L16.199 6.823C17.5002 6.01357 18.6067 6.5566 18.6067 6.5566C19.5186 6.99718 19.8054 7.97054 19.7235 8.8107C19.6927 9.17955 19.5903 9.51767 19.4366 9.78406C19.2829 10.0607 19.078 10.2656 18.8423 10.3271C18.5862 10.3988 18.2993 10.3066 18.0227 9.97873L18.0125 9.96849C17.8075 9.67135 17.5719 9.53816 17.3772 9.49717C18.3915 10.0402 18.1764 11.7 18.1764 11.7103L18.1559 11.8845L18.0227 11.7718C16.0453 10.1427 14.6621 12.0996 14.6621 12.0996L14.5597 12.2431L14.488 12.0791C14.3138 11.6898 14.2318 11.3107 14.2523 10.9521ZM14.7748 10.1017C14.5699 10.3578 14.4572 10.6447 14.4367 10.9623C14.4265 11.239 14.4777 11.5464 14.6007 11.864C14.9695 11.4336 16.2605 10.2144 17.992 11.5156C18.0227 11.0238 17.9817 9.67135 16.8342 9.53816L16.4551 9.49717L16.8035 9.35373C16.8035 9.35373 17.5924 9.01562 18.1661 9.86603C18.3813 10.1222 18.5965 10.1939 18.7809 10.1427C18.9653 10.0914 19.1292 9.9275 19.2522 9.69185C19.3854 9.44594 19.4776 9.12832 19.5083 8.79021C19.58 8.01152 19.3239 7.13037 18.5042 6.73078C18.494 6.72054 17.5719 6.27996 16.4346 6.89472C16.5986 6.98693 16.8445 7.15086 16.8752 7.3148L16.9059 7.45824L16.783 7.43775C16.4039 7.36603 16.0453 7.29431 15.7277 7.20209C15.4101 7.10988 15.1232 7.00742 14.8773 6.87423C14.7236 6.85373 13.4839 6.70005 13.5351 8.45209C13.781 8.38037 14.324 8.26767 14.4982 8.52381L14.5904 8.66726L14.4162 8.6775C13.4327 8.73898 12.8077 9.23078 12.5618 9.76357C12.4696 9.96849 12.4184 10.1836 12.4388 10.3783C12.4491 10.573 12.5208 10.7472 12.6438 10.8804C12.8692 11.1365 13.279 11.2595 13.8835 11.1263C13.9347 10.8906 14.1601 10.0812 14.6621 9.93775L14.9593 9.85578L14.7748 10.1017Z" fill="#19191A"/>
<path d="M18.0305 14.5382C18.0408 15.03 17.8871 15.3066 17.5695 15.8087H17.2416C18.3993 16.0648 19.2907 16.8333 19.5673 17.8271C18.4916 17.3558 16.9547 17.6837 17.0264 16.0648C16.5142 18.1038 19.1575 17.489 19.721 18.2575C19.7928 18.3497 19.885 18.2575 19.885 18.1345C19.762 16.9665 19.2292 16.0853 17.7334 15.7677C18.2764 15.3886 18.3071 14.989 18.0305 14.5382Z" fill="#19191A"/>
<path d="M17.2266 15.9725C17.8003 15.9418 18.1077 16.2082 18.1589 16.782C17.954 16.3414 17.6261 16.0955 17.2266 15.9725Z" fill="#19191A"/>
<path d="M18.2734 14.989C19.7181 14.8353 20.5377 15.4808 20.7529 16.9049C20.7734 17.0176 20.548 17.0381 20.3943 16.9562C20.1381 16.8127 19.7898 16.8025 19.4517 16.8332L19.2263 16.5463C19.7181 16.5053 20.1689 16.5463 20.466 16.7205C20.2201 15.6857 19.3902 15.1939 18.2734 14.989Z" fill="#19191A"/>
<path d="M19.3605 16.0648C19.1761 15.6344 18.8175 15.4603 18.3359 15.4603C18.715 15.6242 19.0634 15.8189 19.3605 16.0648Z" fill="#19191A"/>
<path d="M13.2231 11.8435C13.1309 11.6795 13.0182 11.5873 12.8747 11.5668C12.7005 11.5361 12.5059 11.6283 12.301 11.8435L12.3112 11.782C12.3215 11.7308 12.3215 11.6795 12.3215 11.6283C12.301 11.4951 12.2395 11.4131 12.1268 11.3926C12.0346 11.3824 11.9321 11.3926 11.8092 11.4336C11.6043 11.4849 11.4916 11.5976 11.4608 11.7615V11.7717C11.4198 12.0176 11.5428 12.3762 11.8194 12.8476C11.9014 12.9705 11.9424 13.032 11.9526 13.0422C11.9629 13.0422 11.9629 13.0422 11.9629 13.0422C12.0756 13.0012 12.219 12.9295 12.3932 12.8373C12.4956 12.7861 12.6391 12.7041 12.803 12.5914C13.0796 12.3967 13.2231 12.2123 13.2538 12.0689L13.2641 12.0381C13.2538 11.9664 13.2436 11.9049 13.2231 11.8435Z" fill="white"/>
<path d="M13.1118 11.5873C13.1732 11.6386 13.2347 11.7103 13.2859 11.8025L13.2962 11.8128C13.3064 11.8537 13.3167 11.8845 13.3269 11.9152C13.3372 11.9459 13.3372 11.9869 13.3269 12.0177L13.3167 12.0484C13.3064 12.1406 13.2552 12.2328 13.163 12.3353C13.081 12.4275 12.9683 12.53 12.8351 12.6324C12.7532 12.6939 12.6712 12.7349 12.6097 12.7861C12.538 12.8271 12.4765 12.8578 12.4253 12.8886C12.3331 12.9398 12.2614 12.9808 12.1897 13.0115C12.1179 13.0423 12.0565 13.073 11.995 13.1037C11.9847 13.1037 11.9745 13.114 11.9643 13.114C11.954 13.114 11.9438 13.114 11.9438 13.114C11.9233 13.114 11.8925 13.0832 11.8515 13.032C11.8311 13.0013 11.8003 12.95 11.7593 12.8886C11.6159 12.6529 11.5134 12.4377 11.452 12.2533C11.3905 12.0587 11.37 11.8947 11.3905 11.7615V11.7513C11.411 11.6488 11.452 11.5668 11.5237 11.4951C11.5954 11.4337 11.6774 11.3824 11.7901 11.3619C11.8515 11.3414 11.913 11.3209 11.9745 11.3209C12.036 11.3107 12.0872 11.3107 12.1487 11.3209C12.2204 11.3312 12.2819 11.3619 12.3331 11.4234C12.3741 11.4746 12.4048 11.5464 12.4151 11.6283V11.6386V11.6591C12.4765 11.6181 12.5278 11.5771 12.5892 11.5566C12.7019 11.5054 12.8044 11.4849 12.9068 11.5054C12.9683 11.5054 13.0503 11.5361 13.1118 11.5873ZM13.1527 11.8742C13.1118 11.8025 13.0708 11.7513 13.0195 11.7103C12.9683 11.6693 12.9273 11.6488 12.8659 11.6386C12.7941 11.6283 12.7224 11.6386 12.6405 11.6796C12.5482 11.7205 12.456 11.7923 12.3638 11.8947L12.1897 12.0689L12.2409 11.7718C12.2409 11.7513 12.2511 11.7308 12.2511 11.7103C12.2511 11.6898 12.2511 11.6693 12.2511 11.6386C12.2409 11.5873 12.2306 11.5464 12.2101 11.5156C12.1897 11.4951 12.1589 11.4746 12.1179 11.4746C12.077 11.4644 12.036 11.4644 11.995 11.4746C11.9438 11.4849 11.9028 11.4951 11.8413 11.5156H11.8311C11.7388 11.5361 11.6774 11.5668 11.6261 11.6181C11.5852 11.6591 11.5544 11.7103 11.5442 11.782V11.7923C11.5237 11.905 11.5442 12.0382 11.6057 12.2021C11.6671 12.3763 11.7593 12.5812 11.9028 12.8066C11.9438 12.8681 11.9745 12.9193 11.995 12.9398C12.036 12.9193 12.0872 12.8988 12.1384 12.8783C12.2101 12.8476 12.2819 12.8066 12.3741 12.7554C12.4253 12.7349 12.4868 12.6939 12.5483 12.6529C12.62 12.6119 12.6917 12.5607 12.7634 12.5095C12.8966 12.4173 12.9991 12.325 13.0708 12.2431C13.1322 12.1714 13.1732 12.0996 13.1835 12.0382L13.1937 12.0074C13.1937 11.9869 13.1937 11.9767 13.1937 11.9562C13.163 11.9255 13.163 11.905 13.1527 11.8742Z" fill="#19191A"/>
<path d="M17.096 12.407C16.8706 12.366 16.8398 12.4377 16.7579 12.53C16.6759 12.6222 16.7271 12.6427 16.8706 12.6427C17.0243 12.6427 17.2804 12.6222 17.4443 12.6939C17.4648 12.7041 17.3214 12.448 17.096 12.407Z" fill="#19191A"/>
<path d="M15.6457 12.6631C15.8814 12.6221 15.9531 12.7143 16.0556 12.6836C16.117 12.6631 15.9838 12.448 15.8507 12.4172C15.7175 12.3967 15.3281 12.5811 15.3281 12.7656C15.3384 12.8066 15.4101 12.7041 15.6457 12.6631Z" fill="#19191A"/>
<path fill-rule="evenodd" clip-rule="evenodd" d="M11.3642 13.114H11.231C11.0158 13.114 10.8109 13.0935 10.5957 13.0627C10.5343 13.0525 10.4625 13.0423 10.4216 13.0013C10.4011 12.9808 10.3703 12.9193 10.3396 12.9193C10.4011 12.9603 10.4625 13.032 10.4318 13.1037C10.4216 13.1242 10.4011 13.1447 10.3806 13.1652C10.3601 13.1959 10.3498 13.2369 10.3498 13.2779C10.3396 13.5443 10.3498 13.8107 10.4011 14.0771C10.4113 14.1488 10.4318 14.2205 10.4728 14.2718C10.524 14.323 10.5957 14.3537 10.6674 14.364C10.7494 14.3845 10.8416 14.3845 10.9133 14.3537C11.0465 14.3025 11.1183 14.1488 11.149 14.0156C11.1797 13.8722 11.1797 13.7287 11.231 13.5955C11.2514 13.5341 11.2924 13.4828 11.3437 13.4418H11.3539C11.4051 13.4111 11.4666 13.3906 11.5383 13.4009C11.4973 13.4726 11.5076 13.5648 11.5383 13.6468C11.5691 13.7287 11.61 13.8005 11.6408 13.8824C11.7023 14.0771 11.6408 14.282 11.5383 14.4562C11.4359 14.6304 11.3027 14.7841 11.2105 14.948C11.108 15.1222 11.0465 15.3271 11.026 15.532C11.0158 15.614 11.0158 15.6959 11.026 15.7779C11.0568 16.0033 11.1797 16.2082 11.1797 16.4336C10.2474 17.5607 9.88878 17.7451 10.5138 16.3517C10.4216 16.4849 10.3396 16.5976 10.2679 16.7103L10.0527 16.5566L9.59166 15.6345C9.7351 15.655 9.90927 15.6447 10.1142 15.5832C8.99742 15.7677 8.86422 14.0054 8.21875 13.073C8.29047 12.7349 8.37243 12.407 8.44415 12.0689C8.44415 12.0587 8.4544 12.0484 8.4544 12.0382C8.46464 12.0279 8.49538 12.0279 8.51587 12.0279C8.61833 12.0484 8.65931 12.1509 8.65931 12.2533C8.65931 12.3558 8.62857 12.4582 8.60808 12.5505C8.57735 12.7144 8.58759 12.8988 8.71054 13.0115C8.813 13.1037 8.97692 13.114 9.05889 13.2369C9.13061 13.3394 9.09987 13.4726 9.13061 13.5955C9.17159 13.2267 9.07938 12.8476 9.02815 12.4787C9.00766 12.3763 8.99742 12.2533 9.04864 12.1611C9.08963 12.0894 9.1511 12.0382 9.21257 11.9972C9.38675 11.864 9.56092 11.7103 9.71461 11.5464C9.72485 11.741 9.64289 11.9255 9.56092 12.0894C9.47896 12.2636 9.39699 12.4582 9.44822 12.6427C9.45847 12.6734 9.46871 12.7041 9.47896 12.7349C9.5097 12.8373 9.55068 12.9398 9.58142 13.0525C9.60191 13.1242 9.63264 13.2062 9.64289 13.2779C9.65313 13.3496 9.66338 13.4521 9.65313 13.5238C9.66338 13.3087 9.68387 13.0935 9.61215 12.8886C9.59166 12.8373 9.57117 12.7759 9.56092 12.7246C9.51994 12.5095 9.66338 12.3046 9.79657 12.1304C9.91952 11.9767 10.0425 11.823 10.1654 11.6693C10.1859 11.6488 10.2064 11.6283 10.2269 11.6181C10.2474 11.6078 10.2884 11.6078 10.2986 11.6386C10.3089 11.6488 10.3089 11.6693 10.3089 11.6796C10.3089 11.8332 10.3293 12.0689 10.2064 12.1714C10.1142 12.2533 10.0117 12.3353 9.91952 12.4173C9.89903 12.4377 9.86829 12.4582 9.85805 12.489C9.8478 12.5197 9.8478 12.5607 9.8478 12.5914C9.86829 12.8476 9.87854 13.0935 9.89903 13.3496C9.97075 13.1959 10.022 13.032 10.0527 12.8578C10.0732 12.7554 10.1039 12.6324 10.1962 12.6119C10.2371 12.6017 10.2781 12.6119 10.3191 12.6222C10.524 12.6734 10.7802 12.6632 10.9543 12.53C10.9953 12.7349 11.1285 12.9193 11.3027 13.0423C11.3334 13.0627 11.3642 13.0832 11.3642 13.114Z" fill="white"/>
<path d="M17.8453 12.4582C17.8043 12.3045 17.7223 12.1713 17.6096 12.0688C17.5994 12.0586 17.5994 12.0586 17.5891 12.0483L17.5789 12.0381C17.5379 12.0074 17.4969 11.9766 17.4457 11.9459C17.3023 11.8537 17.1383 11.7922 16.9539 11.782C16.9334 11.782 16.9027 11.782 16.8822 11.7922C16.8412 11.8024 16.8105 11.8332 16.8002 11.8742C16.7797 11.9356 16.79 11.9971 16.8105 12.0586C16.8207 12.0893 16.8412 12.1201 16.8617 12.1406C16.9027 12.1918 16.9642 12.2123 17.0154 12.202C17.1178 12.1918 17.2203 12.202 17.3228 12.2328C17.3432 12.243 17.3637 12.243 17.3842 12.2533C17.456 12.284 17.5174 12.325 17.5687 12.3762C17.5994 12.407 17.6404 12.4377 17.6609 12.4787C17.6814 12.5094 17.7121 12.5606 17.7633 12.5504C17.8248 12.5401 17.8555 12.4992 17.8453 12.4582Z" fill="#19191A"/>
<path d="M15.8872 12.2124C15.9487 12.2226 16.0101 12.1919 16.0409 12.1509C16.0614 12.1202 16.0819 12.0997 16.0921 12.0689C16.1228 12.0075 16.1228 11.946 16.1024 11.8845C16.0921 11.8435 16.0614 11.8128 16.0204 11.8025C15.9999 11.7923 15.9794 11.7923 15.9487 11.7923C15.7745 11.7923 15.6106 11.864 15.4569 11.9562C15.4159 11.987 15.3647 12.0177 15.3237 12.0484L15.3134 12.0587C15.3032 12.0689 15.3032 12.0689 15.2929 12.0792C15.1802 12.1816 15.0983 12.3148 15.0573 12.4685C15.0471 12.5095 15.0675 12.5607 15.1085 12.571C15.1598 12.5915 15.1802 12.53 15.211 12.4993C15.2417 12.4583 15.2725 12.4275 15.3032 12.3968C15.3544 12.3456 15.4261 12.3046 15.4876 12.2739C15.5081 12.2636 15.5286 12.2534 15.5491 12.2534C15.6823 12.2124 15.7847 12.2021 15.8872 12.2124Z" fill="#19191A"/>
<path d="M16.4795 15.1528C16.8483 15.1631 17.2274 15.0606 17.2274 14.8967C17.2274 14.8967 16.7561 15.0094 16.4283 15.0094C16.1004 15.0094 16.2029 14.9069 16.1516 14.9377C16.0902 14.9787 16.1107 15.1426 16.4795 15.1528Z" fill="#19191A"/>
<path fill-rule="evenodd" clip-rule="evenodd" d="M21.8516 15.3783L21.954 15.2861L22.3024 15.1631L22.538 14.9479L23.4396 15.0197L24.2388 15.1016L24.1056 15.3783L23.5114 15.7574L22.9274 16.075L22.1077 15.6139L21.8516 15.3783Z" fill="white"/>
<path d="M22.6088 14.8866C22.5985 15.3784 21.9838 15.1837 22.0145 15.4091C23.2645 16.1263 24.0124 16.6591 23.5206 15.6857C24.1149 16.3825 23.9509 16.4337 23.6538 16.4439H23.6641C22.0145 18.2472 20.6621 18.9849 19.4531 17.2739C20.7543 18.6775 21.7481 17.8169 23.244 16.3312L23.3567 16.362C23.0288 16.3005 22.158 15.9829 21.6354 15.3476C20.2933 16.4747 20.324 16.0341 20.324 16.0341C20.2933 16.1161 20.1703 15.8702 20.1703 15.8702C20.7543 15.7267 20.8773 15.6345 21.7174 14.9583C21.6764 15.3579 22.2502 15.3169 22.3424 14.8456L22.6088 14.8866Z" fill="#19191A"/>
<path d="M14.5193 17.8373C14.3861 17.9193 14.2837 18.0115 14.1812 18.1037C14.089 18.1959 13.9968 18.2882 13.9251 18.3701C13.7816 18.5546 13.6689 18.7287 13.6075 18.9029C13.5357 19.0771 13.505 19.241 13.4947 19.3947C13.4845 19.5484 13.505 19.7021 13.5562 19.8353C13.5767 19.6714 13.6075 19.5177 13.6382 19.3537C13.6689 19.1898 13.7202 19.0259 13.7919 18.8619C13.8636 18.698 13.9456 18.5238 14.0685 18.3599C14.13 18.2779 14.1915 18.1857 14.2632 18.1037C14.3349 18.0218 14.4169 17.9296 14.5193 17.8373Z" fill="#19191A"/>
<path d="M18.9531 17.6938C19.0453 17.7656 19.1068 17.8373 19.1785 17.9193C19.24 18.0012 19.2912 18.0832 19.3425 18.1549C19.4347 18.3188 19.4961 18.4828 19.5269 18.6365C19.5576 18.8004 19.5781 18.9541 19.5679 19.0975C19.5576 19.2512 19.5371 19.3947 19.4859 19.5279C19.4859 19.3742 19.4859 19.2205 19.4654 19.077C19.4552 18.9234 19.4347 18.7697 19.4039 18.616C19.3732 18.4623 19.322 18.3086 19.2502 18.1549C19.2195 18.0729 19.1785 18.0012 19.1273 17.9193C19.0658 17.8475 19.0146 17.7758 18.9531 17.6938Z" fill="#19191A"/>
<path d="M9.81347 15.614C9.90568 15.6038 10.0081 15.5935 10.1106 15.5628C8.99382 15.7472 8.86063 13.9849 8.21516 13.0525C8.28688 12.7144 8.36884 12.3865 8.44056 12.0484C8.44056 12.0382 8.45081 12.0279 8.45081 12.0177C8.46105 12.0075 8.49179 12.0075 8.51228 12.0075C8.61474 12.0484 8.65572 12.1509 8.65572 12.2534C8.65572 12.3558 8.62498 12.4583 8.60449 12.5505C8.57375 12.7144 8.584 12.8988 8.70695 13.0115C8.8094 13.1038 8.97333 13.114 9.0553 13.237C9.12702 13.3394 9.09628 13.4726 9.12702 13.5956C9.168 13.2267 9.07579 12.8476 9.02456 12.4788C9.00407 12.3763 8.99382 12.2534 9.04505 12.1611C9.08603 12.0894 9.14751 12.0382 9.20898 11.9972C9.38316 11.864 9.55733 11.7103 9.71102 11.5464C9.72126 11.7411 9.6393 11.9255 9.55733 12.0894C9.47537 12.2636 9.3934 12.4583 9.44463 12.6427C9.45488 12.6734 9.46512 12.7042 9.47537 12.7349C9.5061 12.8374 9.54709 12.9398 9.57782 13.0525C9.59831 13.1243 9.62905 13.2062 9.6393 13.2779C9.64954 13.3497 9.65979 13.4521 9.64954 13.5238C9.65979 13.3087 9.68028 13.0935 9.60856 12.8886C9.58807 12.8374 9.56758 12.7759 9.55733 12.7247C9.51635 12.5095 9.65979 12.3046 9.79298 12.1304C9.91593 11.9767 10.0389 11.823 10.1618 11.6693C10.1823 11.6488 10.2028 11.6284 10.2233 11.6181C10.2438 11.6079 10.2848 11.6079 10.295 11.6386C10.3053 11.6488 10.3053 11.6693 10.3053 11.6796C10.3053 11.8333 10.3258 12.0689 10.2028 12.1714C10.1106 12.2534 10.0081 12.3353 9.91593 12.4173C9.89544 12.4378 9.8647 12.4583 9.85445 12.489C9.84421 12.5197 9.84421 12.5607 9.84421 12.5915C9.8647 12.8476 9.87495 13.0935 9.89544 13.3497C9.96716 13.196 10.0184 13.032 10.0491 12.8579C10.0696 12.7554 10.1003 12.6325 10.1926 12.612C10.2335 12.6017 10.2745 12.612 10.3155 12.6222C10.5204 12.6734 10.7766 12.6632 10.9507 12.53C10.9917 12.7349 11.1249 12.9193 11.2991 13.0423C11.3196 13.0628 11.3503 13.0833 11.3606 13.1038C11.1044 13.1038 10.8483 13.0935 10.5921 13.0525C10.5307 13.0423 10.4589 13.032 10.418 12.9911C10.3975 12.9706 10.3667 12.9091 10.336 12.9091C10.3975 12.9501 10.4589 13.0218 10.4282 13.0935C10.418 13.114 10.3975 13.1345 10.377 13.155C10.3565 13.1857 10.3462 13.2267 10.3462 13.2677C10.336 13.5341 10.3462 13.8005 10.3975 14.0669C10.4077 14.1386 10.4282 14.2103 10.4692 14.2615C10.5204 14.3128 10.5921 14.3435 10.6639 14.3538C10.7458 14.3743 10.838 14.3743 10.9098 14.3435C11.0429 14.2923 11.1147 14.1386 11.1454 14.0054C11.1761 13.862 11.1761 13.7185 11.2274 13.5853C11.2786 13.4521 11.4015 13.3497 11.5347 13.3804C11.4938 13.4521 11.504 13.5443 11.5245 13.6263C11.5552 13.7083 11.5962 13.78 11.6269 13.862C11.6884 14.0566 11.6269 14.2615 11.5245 14.4357C11.422 14.6099 11.2888 14.7636 11.1966 14.9275C11.0942 15.1017 11.0327 15.3066 11.0122 15.5115C11.002 15.5935 11.002 15.6755 11.0122 15.7574C11.0429 15.9829 11.1659 16.1878 11.1659 16.4132C10.336 17.4173 9.95691 17.6734 10.336 16.7308C10.3667 16.7411 10.3975 16.7615 10.4282 16.782L10.3565 16.6796C10.3975 16.5771 10.4487 16.4542 10.5102 16.3312C10.4385 16.4337 10.3667 16.5259 10.3155 16.6181C10.0491 16.28 9.93642 16.1775 9.81347 15.614ZM16.2784 16.1775C15.2846 16.0648 14.6699 15.5115 15.008 14.6406C14.506 15.0197 14.6084 15.6038 14.9875 15.9624L14.9773 15.9521C13.9015 16.987 12.6413 16.3824 11.3913 15.4603C11.4835 15.8497 11.381 16.0443 11.2274 15.5935C11.2069 15.0402 12.2827 14.5484 11.5757 13.1857C11.2376 13.2062 11.0327 13.4829 11.002 14.0669C10.9302 14.4665 10.295 14.323 10.4385 13.2062C10.9302 13.2062 11.4733 13.2267 11.6065 13.0115C11.2888 12.9808 11.2171 12.7349 11.2581 12.407L10.1721 12.3763L10.4385 11.8128C10.377 11.2288 10.1208 11.4337 9.83396 11.782C9.91593 11.4337 9.89544 11.2697 9.77249 11.28C9.46512 11.6386 9.13726 11.905 8.78891 12.0587C8.71719 11.864 8.56351 11.7513 8.26639 11.7615C8.26639 12.3968 8.02049 13.0525 8 13.2882C8.67621 13.9029 8.63523 15.4808 9.59831 15.614C9.84421 16.198 9.85445 16.4542 10.2745 16.7001C9.88519 17.3251 9.94666 17.6017 10.2028 17.571H10.1926C12.0982 19.1079 14.3113 19.0259 15.1412 16.9255C14.2088 18.7083 12.2929 18.6468 10.5921 17.3968L10.4897 17.4378C10.838 17.2124 11.2888 16.7001 11.6065 15.9316C13.1023 16.8435 14.301 16.9767 15.1309 16.0648C15.4281 16.28 15.8481 16.3722 16.2784 16.1775Z" fill="#19191A"/>
<path d="M24.4933 15.0607C24.2064 15.5115 23.8683 15.8496 22.8438 16.0648C23.5507 15.6959 23.8273 15.4193 24.1962 15.0402C24.0937 15.0504 24.1962 15.0402 24.1449 15.0914L24.4933 15.0607Z" fill="#19191A"/>
<path d="M26.6142 14.6098L26.8908 13.7696L24.5036 14.5381L22.9155 14.3434L22.1574 14.0873L21.4811 13.9643L20.7537 13.6364L20.5693 13.5032L20.5078 13.8516L20.8459 14.3229L21.8192 14.7327L22.7721 14.9582L24.104 15.0811H24.7085L26.6142 14.6098Z" fill="white"/>
<path d="M26.9654 13.6673C26.9756 13.5853 26.9858 13.5136 26.9756 13.4521C26.9449 13.2165 26.7604 13.0525 26.6068 12.9193L26.576 12.8886C26.2277 12.5812 25.8178 12.3866 25.4183 12.3558C25.3363 12.3456 25.2646 12.3456 25.1929 12.3558C25.1519 12.3558 25.1109 12.3558 25.0597 12.3558C25.0187 12.3558 24.9777 12.3558 24.947 12.3456C24.8035 12.3148 24.6703 12.2841 24.5269 12.2431C24.3015 12.1816 24.0556 12.1099 23.779 12.0997C23.7277 12.0997 23.6765 12.0997 23.615 12.0997C23.4921 12.1099 23.3794 12.1407 23.2667 12.1714C23.154 12.2021 23.0515 12.2329 22.9696 12.2329H22.9593C22.8774 12.2329 22.7851 12.2124 22.6929 12.1919C22.5905 12.1714 22.4778 12.1407 22.3548 12.1407C22.2216 12.1407 22.0884 12.1714 21.9757 12.2124C21.904 12.2431 21.8426 12.2841 21.7913 12.3251C21.7401 12.3661 21.6889 12.3968 21.6376 12.4173C21.5147 12.4685 21.3713 12.5095 21.2381 12.5402C20.9102 12.6325 20.6028 12.7144 20.4799 13.0218C20.4594 13.073 20.4594 13.1243 20.4492 13.196C20.4492 13.2472 20.4389 13.2882 20.4287 13.3394C20.4184 13.3804 20.4082 13.4214 20.3979 13.4521C20.3774 13.5238 20.3672 13.5853 20.3672 13.657C20.3774 13.7595 20.4082 13.8312 20.4389 13.9132C20.4594 13.9542 20.4799 13.9952 20.4901 14.0464V14.0566C21.1459 14.7021 22.3548 15.1222 23.738 15.1734C24.2093 15.1939 24.6806 15.1632 25.1211 15.0915C25.6232 15.0095 26.1969 14.9173 26.5863 14.6202C26.699 14.5382 26.8322 14.3845 26.8834 14.2308C26.9141 14.1488 26.9141 14.0771 26.9141 13.9849C26.9141 13.9439 26.9141 13.9029 26.9141 13.8517C26.9551 13.78 26.9654 13.7288 26.9654 13.6673ZM21.2278 14.3743C20.9409 14.2308 20.6438 14.0874 20.5516 13.7288C20.7258 14.0976 21.0946 14.3435 21.6479 14.4562C21.6889 14.4665 21.7299 14.4665 21.7606 14.4665C21.7811 14.4665 21.8016 14.4665 21.8118 14.4665C21.8323 14.4665 21.8528 14.4665 21.8733 14.4665C21.9245 14.4665 21.9655 14.4767 21.9962 14.4767C22.0884 14.4972 22.1909 14.5279 22.2934 14.5689C22.3548 14.5894 22.4266 14.6202 22.4983 14.6407C22.9901 14.7841 23.6048 14.8763 24.1888 14.8968C24.6089 14.907 25.0392 14.8251 25.4388 14.7226C25.49 14.7124 25.531 14.7021 25.5822 14.6919C26.0125 14.5894 26.4223 14.4972 26.699 14.2001C26.7092 14.1898 26.7297 14.1693 26.74 14.1488C26.7604 14.1284 26.7707 14.1079 26.7912 14.0976C26.7195 14.3743 26.4941 14.4972 26.2584 14.6099C26.0228 14.7226 25.7359 14.7841 25.5002 14.8251C24.9572 14.9275 24.3527 14.9685 23.7585 14.948C22.8159 14.9173 21.945 14.7226 21.3098 14.405C21.279 14.3948 21.2586 14.3845 21.2278 14.3743ZM26.0842 14.3435C25.9203 14.3948 25.7461 14.4357 25.5822 14.4665C25.5002 14.487 25.4285 14.4972 25.3568 14.5177C24.865 14.6304 24.4347 14.6816 24.0146 14.6611C23.9224 14.6611 23.8302 14.6509 23.738 14.6407C23.1745 14.5894 22.6827 14.4562 22.1909 14.3128C22.068 14.282 21.9348 14.2616 21.8118 14.2411C21.6786 14.2206 21.5454 14.2001 21.4225 14.1591C21.0127 14.0259 20.5721 13.8312 20.6233 13.1755C20.7668 12.8784 21.0434 12.7964 21.3405 12.7042C21.3815 12.6939 21.4122 12.6837 21.4532 12.6734C21.5557 12.6427 21.6581 12.5915 21.7708 12.5402C21.986 12.4378 22.2012 12.3456 22.4163 12.3456H22.4266C22.4983 12.3456 22.57 12.3661 22.6315 12.3763C22.7032 12.3866 22.7852 12.407 22.8569 12.407C22.9798 12.407 23.0925 12.3763 23.2155 12.3456C23.3179 12.3148 23.4204 12.2943 23.5126 12.2841C23.5741 12.2841 23.6458 12.2841 23.7175 12.2841C23.9941 12.2943 24.2605 12.3558 24.5167 12.407C24.5781 12.4173 24.6396 12.4378 24.7011 12.448C24.6908 12.4583 24.6703 12.4583 24.6601 12.4685C24.6191 12.4788 24.5679 12.4993 24.5576 12.53L24.5474 12.5505L24.5679 12.5607C24.6089 12.571 24.6498 12.5812 24.6908 12.5812C24.7728 12.5812 24.8445 12.571 24.9265 12.5607C24.988 12.5505 25.0494 12.5402 25.1007 12.5402C25.4183 12.53 25.7974 12.6325 26.156 12.8374C26.6068 13.0833 26.8424 13.3292 26.8424 13.5648C26.8424 13.698 26.7707 13.9029 26.699 13.9952C26.5658 14.1386 26.2891 14.282 26.0842 14.3435Z" fill="#19191A"/>
<path d="M26.9888 13.3701C26.999 13.2882 27.0093 13.2165 26.999 13.155C26.9683 12.9193 26.7839 12.7554 26.6302 12.6222L26.5995 12.5915C26.2511 12.2841 25.8413 12.0894 25.4417 12.0587C25.3597 12.0484 25.288 12.0484 25.2163 12.0587C25.1753 12.0587 25.1343 12.0587 25.0831 12.0587C25.0421 12.0587 25.0011 12.0587 24.9704 12.0484C24.827 12.0177 24.6938 11.9869 24.5503 11.946C24.3249 11.8845 24.079 11.8128 23.8024 11.8025C23.7512 11.8025 23.7 11.8025 23.6385 11.8025C23.5155 11.8128 23.4028 11.8435 23.2901 11.8742C23.1774 11.905 23.075 11.9357 22.993 11.9357H22.9828C22.9008 11.9357 22.8086 11.9152 22.7164 11.8947C22.6139 11.8742 22.5012 11.8435 22.3783 11.8435C22.2451 11.8435 22.1119 11.8742 21.9992 11.9152C21.9275 11.946 21.866 11.9869 21.8148 12.0279C21.7635 12.0689 21.7123 12.0997 21.6611 12.1201C21.5381 12.1714 21.3947 12.2124 21.2615 12.2431C20.9336 12.3353 20.6263 12.4173 20.5033 12.7247C20.4828 12.7759 20.4828 12.8271 20.4726 12.8988C20.4726 12.9501 20.4623 12.991 20.4521 13.0423C20.4419 13.0833 20.4316 13.1242 20.4214 13.155C20.4009 13.2267 20.3906 13.2882 20.3906 13.3599C20.4009 13.4624 20.4316 13.5341 20.4623 13.616C20.4828 13.657 20.5033 13.698 20.5136 13.7492V13.7595C21.1693 14.405 22.3783 14.8251 23.7614 14.8763C24.2327 14.8968 24.704 14.866 25.1446 14.7943C25.6466 14.7124 26.2204 14.6201 26.6097 14.323C26.7224 14.241 26.8556 14.0874 26.9068 13.9337C26.9376 13.8517 26.9376 13.78 26.9376 13.6878C26.9376 13.6468 26.9376 13.6058 26.9376 13.5546C26.9785 13.4828 26.9785 13.4214 26.9888 13.3701ZM21.2513 14.0669C20.9644 13.9234 20.6673 13.78 20.575 13.4214C20.7492 13.7902 21.1181 14.0361 21.6713 14.1488C21.7123 14.1591 21.7533 14.1591 21.784 14.1591C21.8045 14.1591 21.825 14.1591 21.8353 14.1591C21.8557 14.1591 21.8762 14.1591 21.8967 14.1591C21.948 14.1591 21.9889 14.1693 22.0197 14.1693C22.1119 14.1898 22.2143 14.2206 22.3168 14.2615C22.3783 14.282 22.45 14.3128 22.5217 14.3333C23.0135 14.4767 23.6282 14.5792 24.2122 14.5894C24.6323 14.5997 25.0626 14.5177 25.4622 14.4152C25.5134 14.405 25.5544 14.3947 25.6056 14.3845C26.036 14.282 26.4458 14.1898 26.7224 13.8927C26.7327 13.8824 26.7531 13.8619 26.7634 13.8415C26.7839 13.821 26.7941 13.8005 26.8146 13.7902C26.7429 14.0669 26.5175 14.1898 26.2818 14.3025C26.0462 14.4152 25.7593 14.4767 25.5237 14.5177C24.9807 14.6201 24.3762 14.6611 23.7819 14.6406C22.8393 14.6099 21.9684 14.4152 21.3332 14.0976C21.3025 14.0976 21.2717 14.0771 21.2513 14.0669ZM26.1077 14.0464C25.9437 14.0976 25.7696 14.1386 25.6056 14.1693C25.5237 14.1898 25.452 14.2001 25.3802 14.2206C24.8884 14.3333 24.4581 14.3845 24.0381 14.364C23.9459 14.364 23.8536 14.3537 23.7614 14.3435C23.1979 14.2923 22.7061 14.1591 22.2143 14.0156C22.0914 13.9849 21.9582 13.9644 21.8353 13.9439C21.7021 13.9234 21.5689 13.9029 21.4459 13.8619C21.0361 13.7287 20.5955 13.5341 20.6468 12.8783C20.7902 12.5812 21.0668 12.4992 21.364 12.407C21.4049 12.3968 21.4357 12.3865 21.4767 12.3763C21.5791 12.3456 21.6816 12.2943 21.7943 12.2431C22.0094 12.1406 22.2246 12.0484 22.4397 12.0484H22.45C22.5217 12.0484 22.5934 12.0689 22.6549 12.0792C22.7266 12.0894 22.8086 12.1099 22.8803 12.1099C23.0033 12.1099 23.116 12.0792 23.2389 12.0484C23.3414 12.0177 23.4438 11.9972 23.536 11.9869C23.5975 11.9869 23.6692 11.9869 23.7409 11.9869C24.0176 11.9972 24.284 12.0587 24.5401 12.1099C24.6016 12.1201 24.663 12.1406 24.7245 12.1509C24.7143 12.1611 24.6938 12.1611 24.6835 12.1714C24.6426 12.1816 24.5913 12.2021 24.5811 12.2328L24.5708 12.2533L24.5913 12.2636C24.6323 12.2738 24.6733 12.2841 24.7143 12.2841C24.7962 12.2841 24.868 12.2738 24.9499 12.2636C25.0114 12.2533 25.0729 12.2431 25.1241 12.2431C25.4417 12.2328 25.8208 12.3353 26.1794 12.5402C26.6302 12.7861 26.8658 13.032 26.8658 13.2677C26.8658 13.4009 26.7941 13.6058 26.7224 13.698C26.5892 13.8312 26.3126 13.9747 26.1077 14.0464Z" fill="#19191A"/>
<path fill-rule="evenodd" clip-rule="evenodd" d="M24.7374 12.1509C24.7681 12.1816 24.6042 12.2021 24.5735 12.2431C24.7579 12.2943 24.9321 12.2226 25.1062 12.2226C25.4751 12.2123 25.8644 12.3455 26.1615 12.5197C26.3562 12.6324 26.848 12.9193 26.8582 13.2677C26.8582 13.4111 26.7865 13.616 26.7148 13.7082C26.5919 13.8619 26.3255 14.0054 26.1103 14.0771C25.8747 14.1488 25.6185 14.2 25.3829 14.2513C24.8911 14.364 24.3583 14.4459 23.7538 14.3845C23.1801 14.323 22.6883 14.1898 22.2067 14.0566C21.9506 13.9849 21.674 13.9746 21.4383 13.9029C21.0387 13.78 20.5777 13.575 20.6289 12.8886C20.7928 12.5402 21.131 12.4685 21.4691 12.366C21.7559 12.2738 22.1043 12.0279 22.4321 12.0382C22.5858 12.0382 22.7293 12.0996 22.8727 12.0996C23.0879 12.0996 23.3133 11.9869 23.5284 11.9767C23.9587 11.9562 24.3481 12.0689 24.7374 12.1509ZM26.2333 13.4419C25.9771 13.3906 25.7517 13.7902 25.4956 13.78C25.3624 13.7697 25.2292 13.6775 25.0858 13.6673C24.7784 13.6263 24.553 13.6878 24.2764 13.7082C23.8358 13.739 23.4157 13.4623 22.9854 13.4419C22.8625 13.4419 22.7293 13.4623 22.6063 13.4828C22.4936 13.5033 22.3502 13.5853 22.2477 13.575C22.1145 13.5648 21.9404 13.4111 21.8072 13.3291C21.6535 13.2369 21.4895 13.1345 21.3359 13.114C21.2027 13.0935 21.1002 13.114 21.0387 13.2472C21.5203 13.1755 21.7764 13.6468 22.176 13.7082C22.3604 13.739 22.5961 13.6263 22.7907 13.616C23.0366 13.6058 23.2723 13.6468 23.4977 13.7287C23.7231 13.8107 23.9485 13.8927 24.1739 13.8927C24.3173 13.8927 24.471 13.8517 24.6145 13.8312C24.9833 13.8005 25.3214 13.8824 25.6698 13.9439C25.7107 13.9029 25.6288 13.8722 25.6493 13.8517C25.8849 13.78 26.0386 13.5648 26.3152 13.5546C26.3357 13.4726 26.264 13.4521 26.2333 13.4419Z" fill="white"/>
<path d="M26.3932 13.5647C26.3829 13.452 26.301 13.4315 26.2805 13.4315C26.2702 13.4315 26.2497 13.4315 26.2395 13.4315C26.1165 13.4315 25.9936 13.5135 25.8809 13.6057C25.7682 13.6877 25.6555 13.7799 25.5428 13.7696C25.4711 13.7696 25.4096 13.7389 25.3379 13.7082C25.2764 13.6877 25.2047 13.6569 25.1432 13.6467C25.092 13.6364 25.051 13.6364 24.9998 13.6364C24.8461 13.6262 24.7129 13.6467 24.5797 13.6672C24.4977 13.6774 24.4158 13.6877 24.3235 13.6979C24.2928 13.6979 24.2518 13.6979 24.2211 13.6979C24.0162 13.6877 23.8215 13.6262 23.6268 13.5647C23.4322 13.5032 23.2375 13.4418 23.0428 13.4315C22.9404 13.4315 22.8174 13.4418 22.6638 13.4725C22.6228 13.4828 22.5716 13.493 22.5306 13.5135C22.4588 13.5442 22.3769 13.5647 22.3052 13.5647C22.213 13.5545 22.09 13.4725 21.9876 13.4008C21.9466 13.37 21.9056 13.3496 21.8748 13.3188L21.8646 13.3086C21.7109 13.2164 21.547 13.1139 21.4036 13.0934C21.3831 13.0934 21.3626 13.0832 21.3421 13.0832C21.2191 13.0832 21.1474 13.1241 21.0962 13.2266L21.0859 13.2573H21.1167C21.1577 13.2471 21.1986 13.2471 21.2396 13.2471C21.4548 13.2573 21.629 13.37 21.7929 13.4828C21.9363 13.5852 22.0798 13.6774 22.2539 13.7082C22.2744 13.7082 22.2847 13.7082 22.3052 13.7082C22.3974 13.7082 22.5101 13.6877 22.6125 13.6569C22.7047 13.6364 22.797 13.6159 22.8789 13.6057C23.1146 13.5955 23.3502 13.6364 23.5859 13.7184L23.5961 13.7287C23.8215 13.8106 24.0367 13.8823 24.2518 13.8926H24.2621C24.3543 13.8926 24.4363 13.8823 24.5285 13.8618C24.5899 13.8516 24.6514 13.8414 24.7129 13.8311C24.7948 13.8209 24.8768 13.8209 24.9588 13.8311C25.1842 13.8414 25.3993 13.8823 25.635 13.9233C25.676 13.9336 25.7272 13.9438 25.7682 13.9438H25.7784L25.7887 13.9336C25.7989 13.9233 25.8092 13.9131 25.8092 13.9028C25.8092 13.8823 25.7887 13.8618 25.7784 13.8516C25.8706 13.8209 25.9526 13.7696 26.0346 13.7184C26.1575 13.6467 26.2702 13.5647 26.4341 13.5647H26.4546H26.3932Z" fill="#19191A"/>
<path d="M23.5646 12.9091C23.4928 12.9296 23.5031 12.9911 23.5748 12.9706C23.7285 12.9193 23.9539 12.9603 23.9846 13.2062C23.9949 13.2472 24.1178 13.2165 24.1076 13.1652C24.0768 12.8476 23.749 12.8476 23.5646 12.9091Z" fill="#19191A"/>
<path d="M25.3168 12.8886C25.2246 13.0218 25.0914 13.032 24.9787 12.9398C24.9377 12.8988 24.8148 12.9808 24.8763 13.032C25.0402 13.1754 25.2861 13.1447 25.4193 12.9398C25.4705 12.8578 25.3578 12.8373 25.3168 12.8886Z" fill="#19191A"/>
<path d="M25.052 12.5402C25.0725 12.5197 25.0828 12.4787 25.0623 12.448C25.0315 12.4172 25.0008 12.4377 24.9701 12.4582C24.9291 12.4889 24.8779 12.4889 24.8369 12.4582C24.8061 12.4377 24.7754 12.4377 24.7447 12.4684C24.7242 12.4889 24.7037 12.5402 24.7344 12.5607C24.8266 12.6221 24.9393 12.6119 25.052 12.5402Z" fill="#19191A"/>
<path d="M23.0404 12.3557C23.0917 12.3045 22.9687 12.325 22.9482 12.3455C22.8458 12.4377 22.7023 12.4582 22.6409 12.3045C22.6204 12.2635 22.4974 12.3147 22.5179 12.3455C22.6101 12.5914 22.8868 12.4889 23.0404 12.3557Z" fill="#19191A"/>
<path d="M21.7098 12.5709C21.5048 12.448 21.259 12.6017 21.095 12.7758C21.0336 12.8373 21.1565 12.8578 21.1975 12.8168C21.2999 12.7041 21.4741 12.5709 21.6073 12.6529C21.6483 12.6836 21.7712 12.6017 21.7098 12.5709Z" fill="#19191A"/>
<path d="M23.7983 13.1754C23.8495 13.1242 23.7265 13.1447 23.706 13.1652C23.6036 13.2574 23.4602 13.2779 23.3987 13.1242C23.3782 13.0832 23.2552 13.1344 23.2757 13.1652C23.3782 13.4111 23.6548 13.3086 23.7983 13.1754Z" fill="#19191A"/>
<path d="M23.9314 12.6221C23.9314 12.6221 23.7265 12.2943 23.747 12.0689C23.7777 11.8435 24.2285 11.5258 24.1056 11.2902C23.9826 11.0545 23.6855 10.9726 23.706 10.7062C23.7265 10.4398 24.1465 9.83527 24.1465 9.83527C24.1465 9.83527 23.665 10.2963 23.5728 10.6344C23.4806 10.9726 23.6548 11.2799 23.7777 11.4131C23.9006 11.5463 23.624 11.8025 23.5728 11.9869C23.5318 12.1611 23.9314 12.6221 23.9314 12.6221Z" fill="#19191A"/>
<path d="M24.214 12.6017C24.214 12.6017 24.0091 12.3661 24.1525 12.0894C24.296 11.8128 24.4804 11.6898 24.4496 11.5566C24.4189 11.4234 24.296 11.2697 24.296 11.2697C24.296 11.2697 24.5214 11.4132 24.5419 11.6181C24.5623 11.823 24.3062 11.9562 24.2345 12.2021C24.1628 12.448 24.214 12.6017 24.214 12.6017Z" fill="#19191A"/>
<path d="M23.3977 12.612C23.3977 12.612 23.5412 12.4071 23.4695 12.1509C23.3875 11.8948 23.2748 11.7718 23.3055 11.6591C23.3363 11.5464 23.4182 11.4132 23.4182 11.4132C23.4182 11.4132 23.2645 11.5362 23.2441 11.7103C23.2236 11.8948 23.3773 12.028 23.4182 12.2534C23.4387 12.4788 23.3977 12.612 23.3977 12.612Z" fill="#19191A"/>
<path fill-rule="evenodd" clip-rule="evenodd" d="M8.8198 12.2534L8.78906 12.8579L8.95299 12.9398L8.8198 12.2534Z" fill="white"/>
</svg>
