<svg width="188" height="68" viewBox="0 0 188 68" fill="none" xmlns="http://www.w3.org/2000/svg">
    <path d="M68.3166 37.0316C68.3166 53.8563 54.6411 67.5318 37.8164 67.5318C20.9916 67.5318 7.31616 53.8563 7.31616 37.0316C7.31616 20.2069 20.9916 6.53143 37.8164 6.53143C54.6411 6.53143 68.3166 20.1638 68.3166 37.0316Z" fill="#FDDDA7"/>
    <path fill-rule="evenodd" clip-rule="evenodd" d="M28.0235 29.1369C28.4549 30.3448 29.8785 29.8272 31.0002 29.2663C31.561 29.0075 32.467 28.4035 33.2003 28.3173C33.6318 28.2741 33.9769 28.533 34.2789 28.6624C34.8397 28.9644 35.3142 28.7055 35.4868 28.2741C35.4868 28.2741 35.7456 28.5761 35.5299 28.7487C35.3574 28.9212 35.0985 29.5252 36.0045 29.7409C36.9536 29.9566 36.781 30.1291 37.3418 29.9997C38.1615 29.8272 38.8086 29.0938 38.1615 28.3173C38.4635 28.3604 38.7654 28.7055 38.8949 28.9644C39.4126 28.5761 40.1459 28.5761 40.7499 28.8349C41.4401 29.1369 42.9501 30.086 42.6481 28.3173C44.4168 29.9134 43.0363 35.306 38.2046 32.545C37.4712 32.1136 37.083 32.1567 36.3496 32.5019C35.5299 32.8901 34.4946 33.5372 33.3729 33.8392C30.3099 34.702 27.3333 32.1999 28.0235 29.1369Z" fill="#19191A"/>
    <path d="M28.7137 15.4184C26.8587 17.748 26.7724 20.5952 28.196 23.917C28.196 23.917 34.2788 15.3321 42.95 22.4503C42.95 22.4503 44.1148 13.6497 37.7732 12.9163C37.7732 12.9163 40.793 11.6221 43.0363 14.9439C48.2132 21.1129 53.6057 5.28043 45.0208 1.13896C45.0208 1.13896 40.5342 -1.06119 35.2711 2.21747C35.2711 2.21747 37.4281 3.12342 37.6006 4.02936C34.4514 3.46854 31.6473 2.73516 29.6628 1.65665C29.6628 1.65665 22.9761 0.276158 23.4938 9.24934C23.4938 9.24934 26.8156 8.04141 27.5921 9.24934C16.6344 9.93959 15.9442 22.7091 25.6939 20.3364C25.6508 20.3795 26.4704 16.0655 28.7137 15.4184Z" fill="white"/>
    <path d="M26.8155 19.2578C26.8586 18.6107 26.9881 17.9636 27.1606 17.3597C26.3841 18.697 26.0821 20.4226 26.0821 20.4226L26.039 20.6815L25.7801 20.7246C22.7603 21.458 20.6464 20.8109 19.4816 19.4735C18.8345 18.7401 18.4894 17.8342 18.4031 16.8851C18.3169 15.936 18.5326 14.9007 19.0071 13.8653C19.9562 11.8808 21.9838 10.0258 25.0467 9.20613C24.2702 9.37869 23.58 9.59439 23.58 9.59439L23.0623 9.76696L23.0192 9.33555C22.4583 -0.155314 29.6628 1.31146 29.6628 1.31146H29.749L29.7922 1.3546C30.7413 1.87228 31.9492 2.30368 33.2434 2.69195C34.2788 2.99393 35.4004 3.25277 36.5652 3.46847C35.9612 2.99393 35.0553 2.60567 35.0553 2.60567L34.3651 2.30368L35.0122 1.87228C40.491 -1.5358 45.1501 0.750632 45.1501 0.750632C48.9896 2.60567 50.1975 6.704 49.8524 10.2415C49.723 11.7946 49.2916 13.2182 48.6445 14.3398C47.9974 15.5046 47.1346 16.3674 46.1424 16.6263C45.0639 16.9282 43.8559 16.54 42.6911 15.1595L42.648 15.1164C41.7852 13.8653 40.793 13.3045 39.9733 13.1319C44.2442 15.4183 43.3382 22.4071 43.3382 22.4502L43.252 23.1836L42.6911 22.709C34.3651 15.8497 28.5411 24.0895 28.5411 24.0895L28.1097 24.6935L27.8077 24.0033C27.0743 22.3639 26.7292 20.7677 26.8155 19.2578ZM29.0157 15.6772C28.1528 16.7557 27.6783 17.9636 27.592 19.301C27.5489 20.4658 27.7646 21.76 28.2823 23.0973C29.8353 21.2854 35.271 16.1517 42.5617 21.6305C42.6911 19.5598 42.5186 13.8653 37.6869 13.3045L36.0907 13.1319L37.5574 12.5279C37.5574 12.5279 40.8792 11.1043 43.2951 14.685C44.201 15.7635 45.107 16.0654 45.8835 15.8497C46.66 15.634 47.3503 14.9438 47.868 13.9516C48.4288 12.9162 48.8171 11.5788 48.9465 10.1552C49.2485 6.87656 48.17 3.16649 44.7187 1.48402C44.6756 1.44088 40.793 -0.414156 36.0044 2.17426C36.6946 2.56253 37.73 3.25277 37.8594 3.94302L37.9888 4.54698L37.4712 4.4607C35.875 4.15872 34.3651 3.85674 33.0277 3.46847C31.6904 3.08021 30.4824 2.64881 29.4471 2.08798C28.8 2.0017 23.58 1.3546 23.7957 8.73159C24.831 8.42961 27.1175 7.95506 27.8509 9.03357L28.2391 9.63754L27.5057 9.68068C23.3643 9.93952 20.7327 12.0103 19.6973 14.2535C19.3091 15.1164 19.0934 16.0223 19.1797 16.842C19.2228 17.6616 19.5248 18.395 20.0425 18.9558C20.9916 20.0343 22.7172 20.552 25.2624 19.9912C25.4781 18.999 26.4272 15.5909 28.5411 14.9869L29.7922 14.6418L29.0157 15.6772Z" fill="#19191A"/>
    <path d="M42.7343 34.3569C42.7774 36.4277 42.1303 37.5925 40.7929 39.7063H39.4125C44.2873 40.7848 48.0405 44.0204 49.2053 48.205C44.6756 46.2205 38.2045 47.601 38.5065 40.7848C36.3495 49.3698 47.4797 46.7813 49.8524 50.0169C50.1544 50.4051 50.5427 50.0169 50.5427 49.4992C50.025 44.5812 47.7817 40.8711 41.4832 39.5338C43.7696 37.9376 43.899 36.2551 42.7343 34.3569Z" fill="#19191A"/>
    <path d="M39.3694 40.3966C41.7852 40.2672 43.0795 41.3888 43.2952 43.8047C42.4323 41.9496 41.0519 40.9143 39.3694 40.3966Z" fill="#19191A"/>
    <path d="M43.7698 36.2552C49.8526 35.6081 53.3038 38.326 54.2097 44.3225C54.296 44.797 53.3469 44.8833 52.6998 44.5382C51.6213 43.9342 50.1545 43.891 48.7309 44.0205L47.7818 42.8125C49.8526 42.64 51.7507 42.8125 53.0018 43.5459C51.9664 39.1888 48.4721 37.118 43.7698 36.2552Z" fill="#19191A"/>
    <path d="M48.3426 40.7848C47.5661 38.9729 46.0562 38.2396 44.0286 38.2396C45.6248 38.9298 47.0915 39.7495 48.3426 40.7848Z" fill="#19191A"/>
    <path d="M22.5016 23.0111C22.1134 22.3208 21.6388 21.9326 21.0349 21.8463C20.3015 21.7169 19.4818 22.1051 18.619 23.0111L18.6622 22.7522C18.7053 22.5365 18.7053 22.3208 18.7053 22.1051C18.619 21.5443 18.3602 21.1992 17.8856 21.1129C17.4974 21.0698 17.066 21.1129 16.5483 21.2855C15.6855 21.5012 15.2109 21.9757 15.0815 22.666V22.7091C14.909 23.7445 15.4266 25.2544 16.5914 27.2388C16.9365 27.7565 17.1091 28.0154 17.1522 28.0585C17.1954 28.0585 17.1954 28.0585 17.1954 28.0585C17.6699 27.8859 18.2739 27.584 19.0073 27.1957C19.4387 26.98 20.0426 26.6349 20.7329 26.1603C21.8977 25.3407 22.5016 24.5641 22.6311 23.9602L22.6742 23.8308C22.6311 23.5288 22.5879 23.2699 22.5016 23.0111Z" fill="white"/>
    <path d="M22.027 21.9325C22.2858 22.1482 22.5447 22.4502 22.7604 22.8385L22.8035 22.8816C22.8467 23.0542 22.8898 23.1836 22.9329 23.313C22.9761 23.4424 22.9761 23.615 22.9329 23.7444L22.8898 23.8738C22.8467 24.2621 22.631 24.6503 22.2427 25.0817C21.8976 25.47 21.423 25.9014 20.8622 26.3328C20.5171 26.5917 20.172 26.7642 19.9131 26.9799C19.6111 27.1525 19.3523 27.2819 19.1366 27.4113C18.7483 27.627 18.4464 27.7996 18.1444 27.929C17.8424 28.0584 17.5835 28.1879 17.3247 28.3173C17.2816 28.3173 17.2384 28.3604 17.1953 28.3604C17.1521 28.3604 17.109 28.3604 17.109 28.3604C17.0227 28.3604 16.8933 28.231 16.7207 28.0153C16.6345 27.8859 16.505 27.6702 16.3325 27.4113C15.7285 26.4191 15.2971 25.5132 15.0383 24.7366C14.7794 23.917 14.6931 23.2267 14.7794 22.6659V22.6228C14.8657 22.1913 15.0383 21.8462 15.3402 21.5442C15.6422 21.2854 15.9874 21.0697 16.4619 20.9834C16.7207 20.8971 16.9796 20.8109 17.2384 20.8109C17.4973 20.7677 17.713 20.7677 17.9718 20.8109C18.2738 20.854 18.5326 20.9834 18.7483 21.2423C18.9209 21.458 19.0503 21.7599 19.0935 22.1051V22.1482V22.2345C19.3523 22.0619 19.568 21.8894 19.8268 21.8031C20.3014 21.5874 20.7328 21.5011 21.1642 21.5874C21.423 21.5874 21.7682 21.7168 22.027 21.9325ZM22.1996 23.1404C22.027 22.8385 21.8544 22.6228 21.6387 22.4502C21.423 22.2776 21.2505 22.1913 20.9916 22.1482C20.6896 22.1051 20.3877 22.1482 20.0425 22.3208C19.6543 22.4933 19.266 22.7953 18.8778 23.2267L18.1444 23.9601L18.3601 22.709C18.3601 22.6228 18.4032 22.5365 18.4032 22.4502C18.4032 22.3639 18.4032 22.2776 18.4032 22.1482C18.3601 21.9325 18.3169 21.7599 18.2306 21.6305C18.1444 21.5442 18.0149 21.458 17.8424 21.458C17.6698 21.4148 17.4973 21.4148 17.3247 21.458C17.109 21.5011 16.9364 21.5442 16.6776 21.6305H16.6345C16.2462 21.7168 15.9874 21.8462 15.7717 22.0619C15.5991 22.2345 15.4697 22.4502 15.4265 22.7522V22.7953C15.3402 23.2699 15.4265 23.8307 15.6854 24.5209C15.9442 25.2543 16.3325 26.1171 16.9364 27.0662C17.109 27.325 17.2384 27.5407 17.3247 27.627C17.4973 27.5407 17.713 27.4545 17.9287 27.3682C18.2306 27.2388 18.5326 27.0662 18.9209 26.8505C19.1366 26.7642 19.3954 26.5917 19.6543 26.4191C19.9563 26.2465 20.2582 26.0308 20.5602 25.8151C21.121 25.4269 21.5525 25.0386 21.8544 24.6935C22.1133 24.3915 22.2858 24.0895 22.329 23.8307L22.3721 23.7013C22.3721 23.615 22.3721 23.5718 22.3721 23.4856C22.2427 23.3561 22.2427 23.2699 22.1996 23.1404Z" fill="#19191A"/>
    <path d="M38.8088 25.3837C37.8597 25.2111 37.7303 25.5131 37.3852 25.9014C37.04 26.2896 37.2557 26.3759 37.8597 26.3759C38.5068 26.3759 39.5853 26.2896 40.2756 26.5916C40.3618 26.6348 39.7579 25.5562 38.8088 25.3837Z" fill="#19191A"/>
    <path d="M32.6828 26.4622C33.675 26.2896 33.977 26.6779 34.4084 26.5485C34.6673 26.4622 34.1064 25.5562 33.5456 25.4268C32.9848 25.3405 31.3455 26.1171 31.3455 26.8936C31.3886 27.0661 31.6906 26.6347 32.6828 26.4622Z" fill="#19191A"/>
    <path fill-rule="evenodd" clip-rule="evenodd" d="M14.6501 28.3604H14.0893C13.1833 28.3604 12.3205 28.2741 11.4146 28.1447C11.1557 28.1016 10.8537 28.0584 10.6812 27.8859C10.5949 27.7996 10.4655 27.5408 10.3361 27.5408C10.5949 27.7133 10.8537 28.0153 10.7243 28.3173C10.6812 28.4036 10.5949 28.4898 10.5086 28.5761C10.4223 28.7055 10.3792 28.8781 10.3792 29.0507C10.3361 30.1723 10.3792 31.294 10.5949 32.4156C10.638 32.7176 10.7243 33.0196 10.8969 33.2353C11.1126 33.451 11.4146 33.5804 11.7165 33.6235C12.0617 33.7098 12.4499 33.7098 12.7519 33.5804C13.3127 33.3647 13.6147 32.7176 13.7441 32.1568C13.8736 31.5528 13.8736 30.9488 14.0893 30.388C14.1755 30.1292 14.3481 29.9135 14.5638 29.7409H14.6069C14.8226 29.6115 15.0815 29.5252 15.3835 29.5683C15.2109 29.8703 15.254 30.2586 15.3835 30.6037C15.5129 30.9488 15.6854 31.2508 15.8149 31.5959C16.0737 32.4156 15.8149 33.2784 15.3835 34.0118C14.9521 34.7452 14.3912 35.3923 14.003 36.0825C13.5716 36.8159 13.3127 37.6787 13.2264 38.5415C13.1833 38.8867 13.1833 39.2318 13.2264 39.5769C13.3559 40.526 13.8736 41.3888 13.8736 42.3379C9.94779 47.0833 8.43788 47.8598 11.0694 41.9928C10.6812 42.5536 10.336 43.0281 10.0341 43.5027L9.12812 42.8556L7.18681 38.9729C7.79077 39.0592 8.52416 39.0161 9.38696 38.7572C4.68467 39.5338 4.12385 32.1136 1.40601 28.1879C1.70799 26.7642 2.05311 25.3837 2.35509 23.9601C2.35509 23.917 2.39823 23.8738 2.39823 23.8307C2.44137 23.7875 2.57079 23.7875 2.65707 23.7875C3.08848 23.8738 3.26104 24.3052 3.26104 24.7366C3.26104 25.168 3.13162 25.5994 3.04534 25.9877C2.91592 26.6779 2.95906 27.4545 3.47674 27.929C3.90814 28.3173 4.59839 28.3604 4.94351 28.8781C5.24549 29.3095 5.11607 29.8703 5.24549 30.388C5.41805 28.835 5.02979 27.2388 4.81409 25.6857C4.72781 25.2543 4.68467 24.7366 4.90037 24.3484C5.07293 24.0464 5.33177 23.8307 5.59062 23.6581C6.324 23.0973 7.05739 22.4502 7.70449 21.7599C7.74763 22.5796 7.40251 23.3561 7.05739 24.0464C6.71226 24.7798 6.36714 25.5994 6.58284 26.376C6.62598 26.5054 6.66912 26.6348 6.71226 26.7642C6.84168 27.1956 7.01425 27.627 7.14367 28.1016C7.22995 28.4036 7.35937 28.7487 7.40251 29.0507C7.44565 29.3526 7.48879 29.784 7.44565 30.086C7.48879 29.1801 7.57507 28.2741 7.27309 27.4113C7.18681 27.1956 7.10053 26.9368 7.05739 26.7211C6.88483 25.8151 7.48879 24.9523 8.04961 24.2189C8.5673 23.5718 9.08498 22.9247 9.60266 22.2776C9.68894 22.1914 9.77523 22.1051 9.86151 22.0619C9.94779 22.0188 10.1203 22.0188 10.1635 22.1482C10.2066 22.1914 10.2066 22.2776 10.2066 22.3208C10.2066 22.9679 10.2929 23.9601 9.77523 24.3915C9.38696 24.7366 8.95556 25.0818 8.5673 25.4269C8.48102 25.5132 8.3516 25.5994 8.30845 25.7289C8.26531 25.8583 8.26531 26.0308 8.26531 26.1603C8.35159 27.2388 8.39474 28.2741 8.48102 29.3526C8.783 28.7055 8.9987 28.0153 9.12812 27.2819C9.2144 26.8505 9.34382 26.3328 9.73209 26.2465C9.90465 26.2034 10.0772 26.2465 10.2498 26.2897C11.1126 26.5054 12.1911 26.4622 12.9245 25.9014C13.097 26.7642 13.6579 27.5407 14.3912 28.0584C14.5207 28.1447 14.6501 28.231 14.6501 28.3604Z" fill="white"/>
    <path d="M41.9578 25.5994C41.7853 24.9523 41.4402 24.3915 40.9656 23.9601C40.9225 23.9169 40.9225 23.9169 40.8793 23.8738L40.8362 23.8306C40.6636 23.7012 40.4911 23.5718 40.2754 23.4424C39.6714 23.0541 38.9812 22.7953 38.2046 22.7521C38.1184 22.7521 37.9889 22.7521 37.9027 22.7953C37.7301 22.8384 37.6007 22.9678 37.5575 23.1404C37.4712 23.3992 37.5144 23.6581 37.6007 23.9169C37.6438 24.0463 37.7301 24.1758 37.8164 24.262C37.9889 24.4777 38.2478 24.564 38.4635 24.5209C38.8949 24.4777 39.3263 24.5209 39.7577 24.6503C39.844 24.6935 39.9302 24.6934 40.0165 24.7366C40.3185 24.866 40.5773 25.0386 40.7931 25.2543C40.9225 25.3837 41.095 25.5131 41.1813 25.6857C41.2676 25.8151 41.397 26.0308 41.6127 25.9877C41.8716 25.9445 42.001 25.772 41.9578 25.5994Z" fill="#19191A"/>
    <path d="M33.718 24.564C33.9768 24.6071 34.2357 24.4777 34.3651 24.3051C34.4514 24.1757 34.5377 24.0894 34.5808 23.96C34.7102 23.7012 34.7102 23.4423 34.624 23.1835C34.5808 23.0109 34.4514 22.8815 34.2788 22.8384C34.1925 22.7952 34.1063 22.7952 33.9768 22.7952C33.2435 22.7952 32.5532 23.0972 31.9061 23.4855C31.7336 23.6149 31.5179 23.7443 31.3453 23.8737L31.3021 23.9169C31.259 23.96 31.259 23.96 31.2159 24.0032C30.7413 24.4346 30.3962 24.9954 30.2236 25.6425C30.1805 25.815 30.2668 26.0307 30.4393 26.0739C30.655 26.1602 30.7413 25.9013 30.8707 25.7719C31.0002 25.5993 31.1296 25.4699 31.259 25.3405C31.4747 25.1248 31.7767 24.9522 32.0355 24.8228C32.1218 24.7797 32.2081 24.7365 32.2944 24.7365C32.8552 24.564 33.2866 24.5208 33.718 24.564Z" fill="#19191A"/>
    <path d="M36.2202 36.9454C37.7733 36.9885 39.3695 36.5571 39.3695 35.8669C39.3695 35.8669 37.385 36.3414 36.0045 36.3414C34.624 36.3414 35.0554 35.91 34.8397 36.0394C34.5809 36.212 34.6672 36.9022 36.2202 36.9454Z" fill="#19191A"/>
    <path fill-rule="evenodd" clip-rule="evenodd" d="M58.8254 37.8944L59.2568 37.5061L60.7236 36.9885L61.7158 36.0825L65.5122 36.3845L68.8771 36.7296L68.3163 37.8944L65.8142 39.4906L63.3552 40.828L59.9039 38.8866L58.8254 37.8944Z" fill="white"/>
    <path d="M62.0179 35.8237C61.9748 37.8945 59.3864 37.0748 59.5158 38.0239C64.7789 41.0437 67.9282 43.287 65.8574 39.1887C68.3596 42.1222 67.6693 42.3379 66.4182 42.3811H66.4614C59.5158 49.9738 53.8213 53.0799 48.7307 45.8754C54.2095 51.7857 58.3941 48.1619 64.6926 41.9065L65.1672 42.0359C63.7867 41.7771 60.1198 40.4398 57.9196 37.7651C52.2682 42.5105 52.3976 40.6555 52.3976 40.6555C52.2682 41.0006 51.7505 39.9652 51.7505 39.9652C54.2095 39.3613 54.7272 38.973 58.2647 36.1257C58.0922 37.8082 60.508 37.6356 60.8963 35.6512L62.0179 35.8237Z" fill="#19191A"/>
    <path d="M27.9371 48.248C27.3763 48.5932 26.9449 48.9814 26.5135 49.3697C26.1252 49.758 25.737 50.1462 25.435 50.4913C24.831 51.2679 24.3565 52.0013 24.0976 52.7346C23.7957 53.468 23.6662 54.1583 23.6231 54.8054C23.5799 55.4525 23.6662 56.0996 23.8819 56.6604C23.9682 55.9702 24.0976 55.3231 24.2271 54.6328C24.3565 53.9426 24.5722 53.2523 24.8742 52.5621C25.1761 51.8718 25.5213 51.1384 26.0389 50.4482C26.2978 50.1031 26.5566 49.7148 26.8586 49.3697C27.1606 49.0246 27.5057 48.6363 27.9371 48.248Z" fill="#19191A"/>
    <path d="M46.6169 47.6442C47.0052 47.9462 47.264 48.2482 47.566 48.5933C47.8249 48.9384 48.0406 49.2836 48.2563 49.5855C48.6445 50.2758 48.9034 50.966 49.0328 51.6131C49.1622 52.3034 49.2485 52.9505 49.2054 53.5545C49.1622 54.2016 49.0759 54.8055 48.8602 55.3663C48.8602 54.7192 48.8602 54.0721 48.774 53.4682C48.7308 52.8211 48.6445 52.174 48.5151 51.5269C48.3857 50.8798 48.17 50.2326 47.868 49.5855C47.7386 49.2404 47.566 48.9384 47.3503 48.5933C47.0915 48.2913 46.8758 47.9893 46.6169 47.6442Z" fill="#19191A"/>
    <path d="M8.13583 38.8867C8.5241 38.8435 8.9555 38.8004 9.3869 38.671C4.68461 39.4475 4.12379 32.0274 1.40595 28.1016C1.70793 26.678 2.05305 25.2975 2.35503 23.8738C2.35503 23.8307 2.39817 23.7876 2.39817 23.7444C2.44131 23.7013 2.57073 23.7013 2.65702 23.7013C3.08842 23.8738 3.26098 24.3052 3.26098 24.7366C3.26098 25.168 3.13156 25.5995 3.04528 25.9877C2.91586 26.678 2.959 27.4545 3.47668 27.929C3.90808 28.3173 4.59833 28.3604 4.94345 28.8781C5.24543 29.3095 5.11601 29.8703 5.24543 30.388C5.41799 28.835 5.02973 27.2388 4.81403 25.6857C4.72775 25.2543 4.68461 24.7366 4.90031 24.3484C5.07287 24.0464 5.33171 23.8307 5.59056 23.6581C6.32394 23.0973 7.05733 22.4502 7.70443 21.76C7.74757 22.5796 7.40245 23.3562 7.05733 24.0464C6.7122 24.7798 6.36708 25.5995 6.58278 26.376C6.62592 26.5054 6.66906 26.6348 6.7122 26.7642C6.84162 27.1956 7.01419 27.627 7.14361 28.1016C7.22989 28.4036 7.35931 28.7487 7.40245 29.0507C7.44559 29.3527 7.48873 29.7841 7.44559 30.086C7.48873 29.1801 7.57501 28.2741 7.27303 27.4113C7.18675 27.1956 7.10047 26.9368 7.05733 26.7211C6.88477 25.8152 7.48873 24.9523 8.04955 24.219C8.56724 23.5719 9.08492 22.9248 9.6026 22.2776C9.68888 22.1914 9.77517 22.1051 9.86145 22.0619C9.94773 22.0188 10.1203 22.0188 10.1634 22.1482C10.2066 22.1914 10.2066 22.2776 10.2066 22.3208C10.2066 22.9679 10.2928 23.9601 9.77517 24.3915C9.3869 24.7366 8.9555 25.0818 8.56724 25.4269C8.48096 25.5132 8.35154 25.5995 8.3084 25.7289C8.26525 25.8583 8.26525 26.0309 8.26525 26.1603C8.35154 27.2388 8.39468 28.2741 8.48096 29.3527C8.78294 28.7056 8.99864 28.0153 9.12806 27.2819C9.21434 26.8505 9.34376 26.3328 9.73203 26.2466C9.90459 26.2034 10.0771 26.2466 10.2497 26.2897C11.1125 26.5054 12.191 26.4623 12.9244 25.9014C13.097 26.7642 13.6578 27.5408 14.3912 28.0584C14.4775 28.1447 14.6069 28.231 14.65 28.3173C13.5715 28.3173 12.493 28.2742 11.4145 28.1016C11.1557 28.0585 10.8537 28.0153 10.6811 27.8427C10.5948 27.7565 10.4654 27.4976 10.336 27.4976C10.5948 27.6702 10.8537 27.9722 10.7243 28.2741C10.6811 28.3604 10.5948 28.4467 10.5086 28.533C10.4223 28.6624 10.3791 28.835 10.3791 29.0075C10.336 30.1292 10.3791 31.2508 10.5948 32.3725C10.638 32.6745 10.7243 32.9764 10.8968 33.1921C11.1125 33.4078 11.4145 33.5373 11.7165 33.5804C12.0616 33.6667 12.4499 33.6667 12.7518 33.5373C13.3127 33.3216 13.6147 32.6745 13.7441 32.1136C13.8735 31.5097 13.8735 30.9057 14.0892 30.3449C14.3049 29.7841 14.8226 29.3527 15.3834 29.4821C15.2108 29.7841 15.254 30.1723 15.3403 30.5174C15.4697 30.8626 15.6422 31.1645 15.7717 31.5097C16.0305 32.3293 15.7717 33.1921 15.3403 33.9255C14.9089 34.6589 14.348 35.306 13.9598 35.9963C13.5284 36.7297 13.2695 37.5925 13.1833 38.4553C13.1401 38.8004 13.1401 39.1455 13.1833 39.4906C13.3127 40.4397 13.8304 41.3025 13.8304 42.2516C10.336 46.4794 8.7398 47.5579 10.336 43.589C10.4654 43.6321 10.5948 43.7184 10.7243 43.8047L10.4223 43.3733C10.5948 42.9419 10.8105 42.4242 11.0694 41.9065C10.7674 42.3379 10.4654 42.7262 10.2497 43.1144C9.12806 41.6908 8.65352 41.2594 8.13583 38.8867ZM35.3574 41.2594C31.1728 40.7848 28.5843 38.4553 30.008 34.7883C27.8941 36.3845 28.3255 38.8435 29.9217 40.3534L29.8785 40.3103C25.3488 44.6675 20.0426 42.1222 14.7794 38.2396C15.1677 39.8789 14.7363 40.6986 14.0892 38.8004C14.0029 36.4708 18.5326 34.4001 15.556 28.6624C14.1323 28.7487 13.2695 29.9135 13.1401 32.3725C12.8381 34.0549 10.1634 33.451 10.7674 28.7487C12.8381 28.7487 15.1246 28.835 15.6854 27.929C14.348 27.7996 14.0461 26.7642 14.2186 25.3837L9.64574 25.2543L10.7674 22.8816C10.5086 20.4226 9.43004 21.2854 8.22212 22.7522C8.56724 21.2854 8.48096 20.5952 7.96327 20.6383C6.66906 22.1482 5.28857 23.2699 3.8218 23.917C3.51982 23.0973 2.87272 22.6228 1.62165 22.6659C1.62165 25.3406 0.586281 28.1016 0.5 29.0938C3.34726 31.6822 3.1747 38.3258 7.22989 38.8867C8.26525 41.3457 8.3084 42.4242 10.0771 43.4595C8.43782 46.0911 8.69666 47.2559 9.77517 47.1265H9.73203C17.7561 53.5975 27.0744 53.2524 30.5688 44.4086C26.643 51.915 18.5758 51.6562 11.4145 46.3931L10.9831 46.5656C12.4499 45.6166 14.348 43.4595 15.6854 40.224C21.9839 44.0635 27.0313 44.6243 30.5257 40.7848C31.7767 41.6908 33.5455 42.0791 35.3574 41.2594Z" fill="#19191A"/>
    <path d="M69.9561 36.557C68.7482 38.4552 67.3245 39.8788 63.0105 40.7847C65.9872 39.2317 67.152 38.0669 68.705 36.4707C68.2736 36.5138 68.705 36.4707 68.4893 36.6864L69.9561 36.557Z" fill="#19191A"/>
    <path d="M78.8862 34.6588L80.051 31.1213L69.9993 34.3569L63.3125 33.5372L60.1201 32.4587L57.2729 31.941L54.2099 30.5605L53.4334 29.9997L53.1746 31.4665L54.5982 33.4509L58.6965 35.1765L62.7086 36.1256L68.3168 36.6433H70.8621L78.8862 34.6588Z" fill="white"/>
    <path d="M80.3527 30.69C80.3958 30.3449 80.439 30.0429 80.3958 29.7841C80.2664 28.7918 79.4899 28.1016 78.8428 27.5408L78.7133 27.4113C77.2466 26.1171 75.521 25.2975 73.8385 25.168C73.4934 25.1249 73.1914 25.1249 72.8894 25.168C72.7168 25.168 72.5443 25.168 72.3286 25.168C72.156 25.168 71.9834 25.168 71.854 25.1249C71.2501 24.9955 70.6892 24.8661 70.0853 24.6935C69.1362 24.4347 68.1008 24.1327 66.936 24.0895C66.7203 24.0895 66.5046 24.0895 66.2458 24.0895C65.7281 24.1327 65.2536 24.2621 64.779 24.3915C64.3045 24.5209 63.8731 24.6504 63.5279 24.6504H63.4848C63.1397 24.6504 62.7514 24.5641 62.3632 24.4778C61.9318 24.3915 61.4572 24.2621 60.9395 24.2621C60.3787 24.2621 59.8179 24.3915 59.3433 24.5641C59.0414 24.6935 58.7825 24.8661 58.5668 25.0386C58.3511 25.2112 58.1354 25.3406 57.9197 25.4269C57.402 25.6426 56.7981 25.8152 56.2372 25.9446C54.8567 26.3328 53.5625 26.678 53.0449 27.9722C52.9586 28.1879 52.9586 28.4036 52.9154 28.7056C52.9154 28.9213 52.8723 29.0938 52.8292 29.3095C52.786 29.4821 52.7429 29.6546 52.6997 29.7841C52.6135 30.086 52.5703 30.3449 52.5703 30.6469C52.6135 31.0783 52.7429 31.3802 52.8723 31.7254C52.9586 31.8979 53.0449 32.0705 53.088 32.2862V32.3293C55.849 35.0472 60.9395 36.8159 66.7635 37.0316C68.7479 37.1179 70.7324 36.9885 72.5874 36.6865C74.7013 36.3414 77.1171 35.9531 78.7565 34.7021C79.231 34.3569 79.7918 33.7098 80.0076 33.0627C80.137 32.7176 80.137 32.4156 80.137 32.0274C80.137 31.8548 80.137 31.6822 80.137 31.4665C80.3095 31.1645 80.3527 30.9488 80.3527 30.69ZM56.1941 33.6667C54.9862 33.0627 53.7351 32.4588 53.3468 30.9488C54.0802 32.5019 55.6333 33.5373 57.9629 34.0118C58.1354 34.0549 58.308 34.0549 58.4374 34.0549C58.5237 34.0549 58.61 34.0549 58.6531 34.0549C58.7394 34.0549 58.8257 34.0549 58.9119 34.0549C59.1276 34.0549 59.3002 34.0981 59.4296 34.0981C59.8179 34.1844 60.2493 34.3138 60.6807 34.4864C60.9395 34.5726 61.2415 34.7021 61.5435 34.7883C63.6142 35.3923 66.2027 35.7806 68.6616 35.8668C70.4304 35.91 72.2423 35.5649 73.9248 35.1335C74.1405 35.0903 74.313 35.0472 74.5287 35.004C76.3406 34.5726 78.0662 34.1844 79.231 32.9333C79.2742 32.8902 79.3604 32.8039 79.4036 32.7176C79.4899 32.6313 79.533 32.545 79.6193 32.5019C79.3173 33.6667 78.3682 34.1844 77.376 34.6589C76.3838 35.1335 75.1758 35.3923 74.1836 35.5649C71.8972 35.9963 69.3519 36.1688 66.8498 36.0825C62.8808 35.9531 59.2139 35.1335 56.5392 33.7961C56.4098 33.753 56.3235 33.7098 56.1941 33.6667ZM76.6426 33.5373C75.9524 33.753 75.219 33.9255 74.5287 34.0549C74.1836 34.1412 73.8816 34.1844 73.5796 34.2707C71.5089 34.7452 69.697 34.9609 67.9283 34.8746C67.54 34.8746 67.1517 34.8315 66.7635 34.7883C64.3908 34.5726 62.32 34.0118 60.2493 33.4078C59.7316 33.2784 59.1708 33.1921 58.6531 33.1059C58.0923 33.0196 57.5314 32.9333 57.0138 32.7607C55.2882 32.1999 53.4331 31.3803 53.6488 28.6193C54.2528 27.3682 55.4176 27.0231 56.6686 26.6348C56.8412 26.5917 56.9706 26.5485 57.1432 26.5054C57.5746 26.376 58.006 26.1603 58.4805 25.9446C59.3865 25.5132 60.2924 25.1249 61.1984 25.1249H61.2415C61.5435 25.1249 61.8455 25.2112 62.1043 25.2543C62.4063 25.2975 62.7514 25.3837 63.0534 25.3837C63.5711 25.3837 64.0456 25.2543 64.5633 25.1249C64.9947 24.9955 65.4261 24.9092 65.8144 24.8661C66.0732 24.8661 66.3752 24.8661 66.6772 24.8661C67.842 24.9092 68.9636 25.168 70.0421 25.3837C70.301 25.4269 70.5598 25.5132 70.8187 25.5563C70.7755 25.5995 70.6892 25.5994 70.6461 25.6426C70.4735 25.6857 70.2578 25.772 70.2147 25.9014L70.1716 25.9877L70.2578 26.0309C70.4304 26.074 70.603 26.1171 70.7755 26.1171C71.1206 26.1171 71.4226 26.074 71.7677 26.0309C72.0266 25.9877 72.2854 25.9446 72.5011 25.9446C73.8385 25.9014 75.4347 26.3328 76.9446 27.1956C78.8428 28.231 79.835 29.2664 79.835 30.2586C79.835 30.8194 79.533 31.6822 79.231 32.0705C78.6702 32.6745 77.5054 33.2784 76.6426 33.5373Z" fill="#19191A"/>
    <path d="M80.4389 29.4388C80.482 29.0937 80.5251 28.7917 80.482 28.5329C80.3526 27.5407 79.576 26.8504 78.9289 26.2896L78.7995 26.1602C77.3328 24.866 75.6071 24.0463 73.9247 23.9169C73.5795 23.8737 73.2776 23.8737 72.9756 23.9169C72.803 23.9169 72.6305 23.9169 72.4148 23.9169C72.2422 23.9169 72.0696 23.9169 71.9402 23.8737C71.3362 23.7443 70.7754 23.6149 70.1715 23.4423C69.2224 23.1835 68.187 22.8815 67.0222 22.8384C66.8065 22.8384 66.5908 22.8384 66.332 22.8384C65.8143 22.8815 65.3397 23.0109 64.8652 23.1404C64.3907 23.2698 63.9593 23.3992 63.6141 23.3992H63.571C63.2259 23.3992 62.8376 23.3129 62.4493 23.2266C62.0179 23.1404 61.5434 23.0109 61.0257 23.0109C60.4649 23.0109 59.9041 23.1404 59.4295 23.3129C59.1275 23.4423 58.8687 23.6149 58.653 23.7875C58.4373 23.96 58.2216 24.0894 58.0059 24.1757C57.4882 24.3914 56.8842 24.564 56.3234 24.6934C54.9429 25.0817 53.6487 25.4268 53.131 26.721C53.0448 26.9367 53.0448 27.1524 53.0016 27.4544C53.0016 27.6701 52.9585 27.8427 52.9153 28.0584C52.8722 28.2309 52.8291 28.4035 52.7859 28.5329C52.6996 28.8349 52.6565 29.0937 52.6565 29.3957C52.6996 29.8271 52.8291 30.1291 52.9585 30.4742C53.0448 30.6468 53.131 30.8193 53.1742 31.035V31.0782C55.9352 33.796 61.0257 35.5648 66.8497 35.7805C68.8341 35.8668 70.8186 35.7373 72.6736 35.4354C74.7875 35.0902 77.2033 34.702 78.8427 33.4509C79.3172 33.1058 79.878 32.4587 80.0937 31.8116C80.2232 31.4664 80.2232 31.1645 80.2232 30.7762C80.2232 30.6036 80.2232 30.4311 80.2232 30.2154C80.3957 29.9134 80.3957 29.6545 80.4389 29.4388ZM56.2803 32.3724C55.0724 31.7684 53.8213 31.1645 53.433 29.6545C54.1664 31.2076 55.7195 32.243 58.049 32.7175C58.2216 32.7607 58.3942 32.7607 58.5236 32.7607C58.6099 32.7607 58.6961 32.7607 58.7393 32.7607C58.8256 32.7607 58.9118 32.7607 58.9981 32.7607C59.2138 32.7607 59.3864 32.8038 59.5158 32.8038C59.9041 32.8901 60.3355 33.0195 60.7669 33.1921C61.0257 33.2783 61.3277 33.4078 61.6297 33.494C63.7004 34.098 66.2888 34.5294 68.7478 34.5725C70.5166 34.6157 72.3285 34.2706 74.0109 33.8392C74.2266 33.796 74.3992 33.7529 74.6149 33.7097C76.4268 33.2783 78.1524 32.8901 79.3172 31.639C79.3603 31.5959 79.4466 31.5096 79.4898 31.4233C79.576 31.337 79.6192 31.2507 79.7055 31.2076C79.4035 32.3724 78.4544 32.8901 77.4622 33.3646C76.4699 33.8392 75.262 34.098 74.2698 34.2706C71.9834 34.702 69.4381 34.8745 66.9359 34.7882C62.967 34.6588 59.3001 33.8392 56.6254 32.5018C56.496 32.5018 56.3666 32.4155 56.2803 32.3724ZM76.7288 32.2861C76.0385 32.5018 75.3052 32.6744 74.6149 32.8038C74.2698 32.8901 73.9678 32.9332 73.6658 33.0195C71.5951 33.494 69.7832 33.7097 68.0144 33.6235C67.6262 33.6235 67.2379 33.5803 66.8497 33.5372C64.4769 33.3215 62.4062 32.7606 60.3355 32.1567C59.8178 32.0273 59.257 31.941 58.7393 31.8547C58.1785 31.7684 57.6176 31.6821 57.0999 31.5096C55.3743 30.9488 53.5193 30.1291 53.735 27.3681C54.339 26.117 55.5038 25.7719 56.7548 25.3837C56.9274 25.3405 57.0568 25.2974 57.2294 25.2542C57.6608 25.1248 58.0922 24.9091 58.5667 24.6934C59.4727 24.262 60.3786 23.8737 61.2846 23.8737H61.3277C61.6297 23.8737 61.9317 23.96 62.1905 24.0032C62.4925 24.0463 62.8376 24.1326 63.1396 24.1326C63.6573 24.1326 64.1318 24.0032 64.6495 23.8737C65.0809 23.7443 65.5123 23.658 65.9006 23.6149C66.1594 23.6149 66.4614 23.6149 66.7634 23.6149C67.9282 23.658 69.0498 23.9169 70.1283 24.1326C70.3872 24.1757 70.646 24.262 70.9048 24.3052C70.8617 24.3483 70.7754 24.3483 70.7323 24.3914C70.5597 24.4346 70.344 24.5209 70.3009 24.6503L70.2577 24.7366L70.344 24.7797C70.5166 24.8228 70.6891 24.866 70.8617 24.866C71.2068 24.866 71.5088 24.8228 71.8539 24.7797C72.1128 24.7366 72.3716 24.6934 72.5873 24.6934C73.9247 24.6503 75.5209 25.0817 77.0308 25.9445C78.9289 26.9799 79.9212 28.0152 79.9212 29.0074C79.9212 29.5683 79.6192 30.4311 79.3172 30.8193C78.7564 31.3802 77.5916 31.9841 76.7288 32.2861Z" fill="#19191A"/>
    <path fill-rule="evenodd" clip-rule="evenodd" d="M70.9913 24.3052C71.1207 24.4346 70.4305 24.5209 70.3011 24.6935C71.0776 24.9092 71.811 24.6072 72.5443 24.6072C74.0974 24.564 75.7367 25.1249 76.9878 25.8583C77.8075 26.3328 79.8782 27.5407 79.9213 29.0075C79.9213 29.6115 79.6194 30.4743 79.3174 30.8625C78.7997 31.5096 77.678 32.1136 76.7721 32.4156C75.7799 32.7176 74.7014 32.9333 73.7091 33.149C71.6384 33.6235 69.3951 33.9686 66.8498 33.7098C64.434 33.451 62.3632 32.8901 60.3356 32.3293C59.2571 32.0273 58.0923 31.9842 57.1001 31.6822C55.4176 31.1645 53.4763 30.3017 53.692 27.4113C54.3823 25.9445 55.8059 25.6426 57.2295 25.2111C58.4375 24.8229 59.9042 23.7875 61.2847 23.8307C61.9318 23.8307 62.5358 24.0895 63.1398 24.0895C64.0457 24.0895 64.9948 23.615 65.9007 23.5718C67.7126 23.4855 69.352 23.9601 70.9913 24.3052ZM77.2898 29.7409C76.2113 29.5252 75.2622 31.2077 74.1837 31.1645C73.6229 31.1214 73.062 30.7331 72.4581 30.69C71.1639 30.5174 70.2148 30.7762 69.05 30.8625C67.1949 30.992 65.4262 29.8272 63.6143 29.7409C63.0966 29.7409 62.5358 29.8272 62.0181 29.9134C61.5436 29.9997 60.9396 30.3448 60.5082 30.3017C59.9474 30.2586 59.214 29.6115 58.6532 29.2663C58.0061 28.8781 57.3158 28.4467 56.6687 28.3604C56.1079 28.2741 55.6765 28.3604 55.4176 28.9212C57.4452 28.6192 58.5237 30.6037 60.2062 30.8625C60.9827 30.992 61.975 30.5174 62.7946 30.4743C63.83 30.4311 64.8222 30.6037 65.7713 30.9488C66.7204 31.2939 67.6695 31.6391 68.6186 31.6391C69.2225 31.6391 69.8696 31.4665 70.4736 31.3802C72.0267 31.2508 73.4503 31.5959 74.9171 31.8548C75.0896 31.6822 74.7445 31.5528 74.8308 31.4665C75.823 31.1645 76.4701 30.2586 77.6349 30.2154C77.7212 29.8703 77.4192 29.784 77.2898 29.7409Z" fill="white"/>
    <path d="M77.9368 30.2586C77.8936 29.784 77.5485 29.6977 77.4622 29.6977C77.4191 29.6977 77.3328 29.6977 77.2897 29.6977C76.772 29.6977 76.2543 30.0428 75.7798 30.4311C75.3052 30.7762 74.8307 31.1645 74.3561 31.1214C74.0541 31.1214 73.7953 30.9919 73.4933 30.8625C73.2345 30.7762 72.9325 30.6468 72.6737 30.6037C72.458 30.5605 72.2854 30.5605 72.0697 30.5605C71.4226 30.5174 70.8618 30.6037 70.3009 30.69C69.9558 30.7331 69.6107 30.7762 69.2224 30.8194C69.093 30.8194 68.9204 30.8194 68.791 30.8194C67.9282 30.7762 67.1086 30.5174 66.2889 30.2586C65.4692 29.9997 64.6496 29.7409 63.8299 29.6977C63.3985 29.6977 62.8808 29.7409 62.2337 29.8703C62.0611 29.9134 61.8454 29.9566 61.6729 30.0429C61.3709 30.1723 61.0258 30.2586 60.7238 30.2586C60.3355 30.2154 59.8178 29.8703 59.3864 29.5683C59.2139 29.4389 59.0413 29.3526 58.9119 29.2232L58.8688 29.18C58.2216 28.7918 57.5314 28.3604 56.9274 28.2741C56.8412 28.2741 56.7549 28.231 56.6686 28.231C56.1509 28.231 55.8489 28.4035 55.6332 28.8349L55.5901 28.9643H55.7195C55.8921 28.9212 56.0646 28.9212 56.2372 28.9212C57.1431 28.9643 57.8765 29.4389 58.5668 29.9134C59.1707 30.3448 59.7747 30.7331 60.5081 30.8625C60.5944 30.8625 60.6375 30.8625 60.7238 30.8625C61.112 30.8625 61.5866 30.7762 62.018 30.6468C62.4063 30.5605 62.7945 30.4743 63.1396 30.4311C64.1319 30.388 65.1241 30.5605 66.1163 30.9057L66.1595 30.9488C67.1086 31.2939 68.0145 31.5959 68.9204 31.639H68.9636C69.3518 31.639 69.697 31.5959 70.0852 31.5096C70.3441 31.4665 70.6029 31.4233 70.8618 31.3802C71.2069 31.3371 71.552 31.3371 71.8971 31.3802C72.8462 31.4233 73.7522 31.5959 74.7444 31.7685C74.9169 31.8116 75.1326 31.8547 75.3052 31.8547H75.3484L75.3915 31.8116C75.4346 31.7685 75.4778 31.7253 75.4778 31.6822C75.4778 31.5959 75.3915 31.5096 75.3484 31.4665C75.7366 31.3371 76.0817 31.1214 76.4269 30.9057C76.9445 30.6037 77.4191 30.2586 78.1093 30.2586H78.1956H77.9368Z" fill="#19191A"/>
    <path d="M66.0303 27.4976C65.7283 27.5839 65.7714 27.8427 66.0734 27.7564C66.7205 27.5407 67.6696 27.7133 67.799 28.7487C67.8422 28.9212 68.3599 28.7918 68.3167 28.5761C68.1873 27.2387 66.8068 27.2387 66.0303 27.4976Z" fill="#19191A"/>
    <path d="M73.4074 27.4114C73.0191 27.9722 72.4583 28.0153 71.9838 27.6271C71.8112 27.4545 71.2935 27.7996 71.5524 28.0153C72.2426 28.6193 73.278 28.4899 73.8388 27.6271C74.0545 27.2819 73.58 27.1957 73.4074 27.4114Z" fill="#19191A"/>
    <path d="M72.2854 25.9447C72.3717 25.8584 72.4148 25.6858 72.3286 25.5564C72.1991 25.427 72.0697 25.5133 71.9403 25.5996C71.7677 25.729 71.552 25.729 71.3795 25.5996C71.2501 25.5133 71.1206 25.5133 70.9912 25.6427C70.9049 25.729 70.8187 25.9447 70.9481 26.031C71.3363 26.2898 71.8109 26.2467 72.2854 25.9447Z" fill="#19191A"/>
    <path d="M63.8299 25.1681C64.0456 24.9524 63.528 25.0387 63.4417 25.125C63.0103 25.5132 62.4063 25.5995 62.1475 24.9524C62.0612 24.7798 61.5435 24.9955 61.6298 25.125C62.018 26.1603 63.1828 25.7289 63.8299 25.1681Z" fill="#19191A"/>
    <path d="M58.2218 26.0741C57.359 25.5564 56.3237 26.2035 55.6334 26.9369C55.3746 27.1958 55.8923 27.282 56.0648 27.1095C56.4962 26.6349 57.2296 26.0741 57.7904 26.4192C57.963 26.5487 58.4807 26.2035 58.2218 26.0741Z" fill="#19191A"/>
    <path d="M67.0223 28.6193C67.238 28.4036 66.7203 28.4899 66.6341 28.5761C66.2027 28.9644 65.5987 29.0507 65.3399 28.4036C65.2536 28.231 64.7359 28.4467 64.8222 28.5761C65.2536 29.6115 66.4184 29.1801 67.0223 28.6193Z" fill="#19191A"/>
    <path d="M67.5831 26.2896C67.5831 26.2896 66.7203 24.9092 66.8066 23.9601C66.936 23.011 68.8342 21.6736 68.3165 20.6814C67.7988 19.6892 66.5478 19.3441 66.634 18.2224C66.7203 17.1008 68.4891 14.5555 68.4891 14.5555C68.4891 14.5555 66.4615 16.4968 66.0732 17.9204C65.6849 19.3441 66.4183 20.6383 66.936 21.1991C67.4537 21.7599 66.2889 22.8384 66.0732 23.6149C65.9007 24.3483 67.5831 26.2896 67.5831 26.2896Z" fill="#19191A"/>
    <path d="M68.791 26.2035C68.791 26.2035 67.9282 25.2112 68.5322 24.0464C69.1362 22.8817 69.9127 22.364 69.7833 21.8031C69.6538 21.2423 69.1362 20.5952 69.1362 20.5952C69.1362 20.5952 70.0853 21.1992 70.1715 22.062C70.2578 22.9248 69.1793 23.4856 68.8773 24.521C68.5753 25.5563 68.791 26.2035 68.791 26.2035Z" fill="#19191A"/>
    <path d="M65.3398 26.2466C65.3398 26.2466 65.9438 25.3838 65.6418 24.3053C65.2967 23.2268 64.8221 22.7091 64.9515 22.2346C65.081 21.76 65.4261 21.1992 65.4261 21.1992C65.4261 21.1992 64.779 21.7169 64.6927 22.4503C64.6064 23.2268 65.2535 23.7876 65.4261 24.7367C65.5124 25.6858 65.3398 26.2466 65.3398 26.2466Z" fill="#19191A"/>
    <path fill-rule="evenodd" clip-rule="evenodd" d="M3.95144 24.7366L3.82202 27.2819L4.51227 27.627L3.95144 24.7366Z" fill="white"/>
    <path fill-rule="evenodd" clip-rule="evenodd" d="M162.219 36.7477C162.219 36.6697 162.258 36.6307 162.258 36.5528C162.414 35.6953 162.452 34.7209 162.452 33.8634C162.452 32.9279 162.452 31.9145 162.258 30.9401C162.258 30.8622 162.219 30.7842 162.219 30.6673C162.18 30.7842 162.18 30.9011 162.18 30.9401C162.024 31.8366 161.985 32.811 161.985 33.7075C161.985 34.6039 162.024 35.5394 162.18 36.3969C162.18 36.5138 162.219 36.6307 162.219 36.7477ZM151.851 30.0826C151.851 30.1216 151.812 30.1606 151.812 30.1995C151.539 31.2129 151.5 32.4212 151.461 33.4736C151.461 34.526 151.461 35.8122 151.734 36.8256C151.734 36.8256 151.734 36.8256 151.734 36.8646C151.734 36.8256 151.773 36.7866 151.773 36.7866C152.085 35.8122 152.163 34.565 152.163 33.5126C152.163 32.4602 152.124 31.2519 151.851 30.2775C151.89 30.1995 151.851 30.1216 151.851 30.0826ZM103.442 30.0826C103.442 30.1216 103.403 30.1606 103.403 30.1995C103.13 31.2129 103.091 32.4212 103.052 33.4736C103.052 34.526 103.052 35.8122 103.325 36.8256C103.325 36.8256 103.325 36.8256 103.325 36.8646C103.325 36.8256 103.364 36.7866 103.364 36.7866C103.675 35.8122 103.753 34.565 103.753 33.5126C103.753 32.4602 103.714 31.2519 103.442 30.2775C103.481 30.1995 103.442 30.1216 103.442 30.0826ZM96.8155 25.2885C96.8155 25.4833 96.8155 25.6782 96.8155 25.8731C96.8155 26.7696 96.8155 27.705 96.8155 28.6015C96.8155 29.7318 96.8544 30.8232 96.8934 31.9535C96.9324 33.1228 96.9714 34.2921 97.0104 35.5004C97.0493 36.2799 97.0493 37.0595 97.0883 37.839C97.0883 37.7611 97.0883 37.6831 97.0883 37.6052C97.1273 35.1106 97.1273 32.6161 97.0883 30.1216C97.0493 28.8743 97.0493 27.4712 96.9324 26.2239L96.8155 25.2885ZM108.236 26.5747C108.236 26.5357 108.236 26.4967 108.197 26.4578L107.846 24.8987H120.396L120.085 26.4188C120.046 26.6527 120.007 26.9255 120.007 27.1594C119.968 27.6661 119.968 28.1338 119.929 28.6405C119.89 30.2775 119.89 31.9145 119.89 33.5905C119.89 35.2665 119.89 36.9425 119.968 38.6185C120.007 39.3981 120.007 40.3335 120.124 41.1131L120.357 42.5552H114.004C113.576 42.6721 113.108 42.7111 112.64 42.7111C111.938 42.7111 111.237 42.5942 110.613 42.2434C109.951 41.8926 109.405 41.3859 109.015 40.7623C108.781 40.3725 108.625 39.9438 108.509 39.476C108.236 40.0607 107.924 40.6453 107.534 41.152C106.677 42.2434 105.468 42.8281 104.065 42.8281C103.714 42.8281 103.403 42.7891 103.052 42.7111C103.052 42.945 103.091 43.1399 103.091 43.3737C103.13 44.3481 103.169 45.4005 103.325 46.4139L103.481 47.4663L96.6985 49.7659L96.8544 47.8561C96.8934 47.5443 96.8934 47.1935 96.8934 46.8816C96.9324 46.1801 96.9324 45.5175 96.9324 44.8159C96.9324 44.0363 96.9714 43.2958 96.9714 42.5162L90.5402 42.5552L90.6181 41.23C90.6571 40.3335 90.7351 39.476 90.7741 38.5796C90.813 37.5272 90.852 36.4358 90.891 35.3835C90.93 34.2142 90.93 33.0449 90.9689 31.9145C91.0079 30.8232 91.0079 29.7708 91.0079 28.6795C91.0079 27.822 91.0079 26.9645 90.9689 26.107C90.9689 25.6003 90.93 25.0936 90.891 24.5869C90.891 24.5089 90.852 24.392 90.852 24.314C90.6961 24.2751 90.5012 24.2751 90.3453 24.2751C89.8776 24.2751 89.4099 24.2751 88.9421 24.2751H87.6169L87.6949 22.9499C87.7339 22.3652 87.7339 21.7416 87.7339 21.1179C87.7339 20.5333 87.7339 19.8707 87.6559 19.286L87.5 17.8049L88.9811 17.8829C89.5268 17.9218 90.0725 17.9218 90.5792 17.9218C91.5926 17.9218 92.567 17.9218 93.5804 17.9218C95.1395 17.9218 96.7375 17.9218 98.2966 17.8439L99.7387 17.7659L99.6218 19.2081C99.5828 19.7927 99.5439 20.4553 99.5439 21.04C99.5439 21.6636 99.5438 22.2483 99.5828 22.8719L99.6608 24.1971H98.3356C97.9068 24.1971 97.4781 24.1971 97.0493 24.2361C96.9714 24.2361 96.8934 24.2361 96.8155 24.2751C96.8155 24.314 96.8155 24.353 96.8155 24.392V24.431V24.4699C96.8155 24.6259 96.7765 24.7818 96.7765 24.9377H102.311C102.896 24.7038 103.558 24.5869 104.182 24.5869C105.312 24.5869 106.365 24.8987 107.261 25.6003C107.69 25.7952 108.002 26.146 108.236 26.5747ZM129.439 30.6673C129.361 30.6673 129.283 30.6673 129.205 30.6673C129.127 30.6673 129.049 30.6673 128.971 30.6673C128.932 30.9791 128.971 31.3689 128.932 31.6027C128.893 32.733 128.932 33.8244 128.932 34.9547C128.932 36.0851 128.971 37.2154 129.01 38.3847C129.01 38.8914 129.01 39.4371 129.049 39.9827C129.088 40.3725 129.088 40.7233 129.166 41.1131C129.205 40.7623 129.244 40.3725 129.283 40.0217C129.322 39.554 129.322 39.0473 129.361 38.5796C129.4 37.4882 129.4 36.3969 129.439 35.3445C129.439 34.2142 129.478 33.1228 129.478 31.9925C129.478 31.5248 129.478 31.096 129.439 30.6673ZM175.705 24.9377H187.943L187.632 26.4578C187.593 26.6916 187.554 26.9645 187.554 27.1983C187.515 27.705 187.515 28.1728 187.476 28.6795C187.437 30.3165 187.437 31.9535 187.437 33.6295C187.437 35.3055 187.437 36.9815 187.515 38.6575C187.554 39.4371 187.554 40.3725 187.671 41.152L187.904 42.5942H181.551C181.122 42.7111 180.655 42.7501 180.187 42.7501C179.485 42.7501 178.784 42.6332 178.16 42.2824C177.498 41.9316 176.952 41.4249 176.562 40.8013C176.172 40.1776 176.016 39.476 175.977 38.7745C175.938 38.1119 175.938 37.3713 175.938 36.7087C175.938 35.3055 175.938 33.9023 175.938 32.4992C175.938 32.2263 175.938 31.9535 175.938 31.6807L174.847 30.7062C174.652 30.6283 174.224 30.5893 174.029 30.5503C173.873 30.5503 173.444 30.5114 173.288 30.6673L173.21 30.7452L173.132 30.7842C172.976 30.9011 172.898 31.174 172.859 31.3299C172.703 32.1484 172.703 33.3177 172.703 34.1752C172.742 36.4358 172.781 38.8524 173.093 41.1131L173.288 42.5162H166.545L166.662 41.152C166.701 40.9182 166.701 40.6843 166.701 40.4505C166.389 40.9572 165.96 41.3859 165.493 41.7367C164.518 42.4383 163.388 42.7501 162.219 42.7501C161.088 42.7111 159.997 42.4383 159.062 41.8147C158.126 41.191 157.463 40.2946 157.035 39.2812C156.762 39.9438 156.411 40.6064 155.982 41.152C155.125 42.2434 153.917 42.8281 152.513 42.8281C152.163 42.8281 151.851 42.7891 151.5 42.7111C151.5 42.945 151.539 43.1399 151.539 43.3737C151.578 44.1922 151.617 45.0497 151.734 45.8682L151.89 47.2714H145.381L145.42 45.9852C145.459 44.8548 145.459 43.6855 145.459 42.5552H140.353C139.924 42.6721 139.456 42.7111 138.988 42.7111C138.287 42.7111 137.585 42.5942 136.962 42.2434C136.299 41.8926 135.753 41.3859 135.364 40.7623C135.364 40.7623 135.364 40.7623 135.364 40.7233C135.364 40.8792 135.403 40.9961 135.403 41.152L135.558 42.5552H122.774L123.047 41.0741C123.164 40.4115 123.164 39.554 123.203 38.8914C123.242 37.3323 123.281 35.8122 123.281 34.2531C123.281 32.6161 123.281 31.0181 123.242 29.381C123.203 28.4066 123.203 27.3932 123.086 26.4188L122.93 24.8987L124.45 25.0156C124.957 25.0546 125.502 25.0546 126.009 25.0546C127.139 25.0546 128.231 25.0546 129.361 25.0546C130.998 25.0546 132.635 25.0156 134.272 25.0156L134.233 24.9377H145.264V24.8597H150.876C151.461 24.6259 152.124 24.5089 152.747 24.5089C153.878 24.5089 154.93 24.8207 155.826 25.5223C156.567 26.107 157.035 26.9645 157.347 27.822C157.386 27.705 157.463 27.5881 157.502 27.4712C157.97 26.5357 158.633 25.7562 159.49 25.1715C160.348 24.5869 161.283 24.2751 162.297 24.2751C163.232 24.2361 164.129 24.431 164.986 24.9377C165.882 25.4444 166.506 26.3019 167.013 27.1983C167.013 26.7696 166.974 26.3798 166.935 25.99L166.818 24.6648L171.3 24.6259C172.431 24.5479 174.262 24.5479 175.705 24.9377Z" fill="#FDDDA7"/>
    <path d="M183.344 40.4895V40.0998C182.954 40.5285 182.448 40.8403 181.902 41.0742C181.356 41.308 180.772 41.425 180.187 41.425C179.641 41.425 179.135 41.308 178.706 41.1131C178.277 40.8793 177.926 40.5675 177.614 40.0998C177.381 39.71 177.225 39.2423 177.186 38.6186C177.147 38.034 177.147 35.9682 177.147 32.4603C177.186 28.9524 177.108 26.8476 176.952 26.224H180.811C180.655 27.0425 180.577 30.1996 180.577 35.7343C180.616 36.6308 180.694 37.3324 180.811 37.8001C180.966 38.2678 181.2 38.5017 181.551 38.5017C181.941 38.5017 182.253 38.2678 182.487 37.8391C182.72 37.4103 182.837 36.4749 182.876 35.0717C182.876 29.7319 182.837 26.7697 182.759 26.224H186.384C186.228 26.9645 186.15 29.4201 186.189 33.5906C186.189 37.7611 186.267 40.3336 186.423 41.308H183.266C183.344 41.1521 183.344 40.9183 183.344 40.4895ZM176.406 26.5358L175.588 29.654C175.354 29.4591 174.886 29.3421 174.106 29.2642C173.327 29.1862 172.742 29.3421 172.353 29.7319C172.002 30.0047 171.729 30.4335 171.612 31.0181C171.495 31.6028 171.417 32.6552 171.417 34.1363C171.495 37.3324 171.612 39.671 171.807 41.2301H167.831C167.948 39.8659 168.026 37.2155 168.065 33.3568C168.104 29.498 168.065 27.0035 167.987 25.8342L171.144 25.7952C173.873 25.7952 175.588 26.0291 176.406 26.5358ZM157.97 38.2678C157.736 37.6052 157.58 36.9036 157.502 36.2021C157.424 35.5005 157.385 34.7599 157.385 34.0194C157.385 33.2788 157.424 32.5382 157.502 31.8367C157.58 31.1351 157.658 30.5504 157.736 30.1217C157.853 29.537 158.126 28.8354 158.516 28.0169C158.945 27.2374 159.451 26.6138 160.114 26.146C160.776 25.6783 161.478 25.4834 162.258 25.4834C162.959 25.4445 163.622 25.6004 164.245 25.9511C164.869 26.3019 165.454 27.0035 165.96 28.0559C166.467 29.1083 166.779 30.1606 166.935 31.252C167.052 32.3434 167.13 33.2398 167.091 34.0194C167.052 34.7599 167.013 35.5005 166.896 36.241C166.779 36.9426 166.623 37.6052 166.428 38.2289C165.96 39.3982 165.415 40.2167 164.752 40.7234C164.089 41.2301 163.271 41.4639 162.219 41.4639C161.283 41.425 160.426 41.1911 159.724 40.7234C158.983 40.2557 158.399 39.4371 157.97 38.2678ZM162.219 38.5797C162.569 38.5797 162.842 38.4627 163.037 38.1899C163.193 37.956 163.349 37.4883 163.505 36.7867C163.622 36.0851 163.7 35.1497 163.739 33.9024C163.778 32.6552 163.7 31.6028 163.544 30.7453C163.388 29.8878 163.232 29.3032 163.037 28.9913C162.881 28.6795 162.608 28.5236 162.258 28.5236C161.907 28.5236 161.634 28.6795 161.478 28.9913C161.283 29.3032 161.127 29.8878 160.971 30.7453C160.815 31.6028 160.737 32.6162 160.737 33.7855C160.737 34.9548 160.815 35.9292 160.971 36.6698C161.127 37.4493 161.283 37.956 161.439 38.1899C161.595 38.4627 161.868 38.5797 162.219 38.5797ZM149.59 27.3543L149.824 27.0815C150.136 26.6917 150.526 26.3409 151.032 26.1071C151.539 25.8732 152.085 25.7563 152.669 25.7563C153.566 25.7563 154.345 25.9901 154.93 26.4968C155.554 27.0035 155.982 27.822 156.255 29.0303C156.411 29.654 156.528 30.3166 156.567 31.0571C156.645 31.7977 156.645 32.5382 156.645 33.2788C156.645 34.0194 156.606 34.7209 156.567 35.4225C156.489 36.1241 156.411 36.7088 156.294 37.1765C155.982 38.5017 155.554 39.5541 154.93 40.3336C154.306 41.1131 153.488 41.5029 152.474 41.5029C152.085 41.5029 151.734 41.425 151.422 41.308C151.149 41.1911 150.837 40.9962 150.526 40.7624L150.175 40.4116C150.136 40.9572 150.175 41.9317 150.253 43.3348C150.292 44.3872 150.37 45.2447 150.448 45.9073H146.628C146.667 44.1923 146.706 41.386 146.745 37.5273C146.784 31.3689 146.745 27.5102 146.55 26.0291H149.629C149.629 26.224 149.629 26.6138 149.59 27.3543ZM151.773 28.5236C151.227 28.5236 150.837 28.9524 150.603 29.8488C150.37 30.7453 150.253 31.9146 150.214 33.3957C150.175 34.9938 150.292 36.2021 150.526 37.0985C150.759 37.995 151.11 38.4237 151.617 38.4237C152.24 38.4237 152.708 37.995 152.981 37.0985C153.254 36.2021 153.41 34.9938 153.449 33.4737C153.488 31.9926 153.371 30.7843 153.098 29.8878C152.864 28.9913 152.396 28.5236 151.773 28.5236ZM142.145 40.4895V40.0998C141.756 40.5285 141.249 40.8403 140.703 41.0742C140.158 41.308 139.573 41.425 138.988 41.425C138.443 41.425 137.936 41.308 137.507 41.1131C137.078 40.8793 136.728 40.5675 136.416 40.0998C136.182 39.71 136.026 39.2423 135.987 38.6186C135.948 38.034 135.948 35.9682 135.948 32.4603C135.987 28.9524 135.909 26.8476 135.753 26.224H139.612C139.456 27.0425 139.378 30.1996 139.378 35.7343C139.417 36.6308 139.495 37.3324 139.612 37.8001C139.768 38.2678 140.002 38.5017 140.353 38.5017C140.742 38.5017 141.054 38.2678 141.288 37.8391C141.522 37.4103 141.639 36.4749 141.678 35.0717C141.678 29.7319 141.639 26.7697 141.561 26.224H145.186C145.03 26.9645 144.952 29.4201 144.991 33.5906C144.991 37.7611 145.069 40.3336 145.225 41.308H142.068C142.107 41.1521 142.145 40.9183 142.145 40.4895ZM127.802 29.9268C127.685 30.3945 127.646 32.0705 127.724 34.9548C127.763 37.8391 127.802 39.5151 127.841 40.0218C127.88 40.5285 127.919 40.9183 127.958 41.2301H124.216C124.372 40.4116 124.45 38.073 124.489 34.1753C124.528 30.2776 124.45 27.6661 124.294 26.224C124.801 26.263 126.477 26.263 129.283 26.263C132.089 26.224 133.726 26.224 134.233 26.224C134.077 27.1984 133.96 29.4201 133.96 32.889C133.96 36.358 133.96 38.4627 133.999 39.2033C134.038 39.9438 134.077 40.6064 134.155 41.1911H130.491C130.53 40.8403 130.569 40.4505 130.608 40.0218C130.647 39.5931 130.686 37.995 130.725 35.2276C130.764 32.4603 130.764 30.7063 130.725 30.0047C130.647 29.537 130.141 29.3032 129.244 29.3421C128.309 29.4201 127.841 29.615 127.802 29.9268ZM115.836 40.4895V40.0998C115.446 40.5285 114.94 40.8403 114.394 41.0742C113.848 41.308 113.264 41.425 112.679 41.425C112.133 41.425 111.627 41.308 111.198 41.1131C110.769 40.8793 110.418 40.5675 110.106 40.0998C109.873 39.71 109.717 39.2423 109.678 38.6186C109.639 37.995 109.639 35.9682 109.639 32.4213C109.678 28.9134 109.6 26.8086 109.444 26.185H113.303C113.147 27.0035 113.069 30.1607 113.069 35.6954C113.108 36.5918 113.186 37.2934 113.303 37.7611C113.459 38.2289 113.692 38.4627 114.043 38.4627C114.433 38.4627 114.745 38.2289 114.979 37.8001C115.212 37.3714 115.329 36.4359 115.368 35.0328C115.368 29.6929 115.329 26.7307 115.251 26.185H118.876C118.72 26.9256 118.642 29.3811 118.681 33.5516C118.681 37.7222 118.759 40.2946 118.915 41.2691H115.758C115.797 41.1521 115.836 40.9183 115.836 40.4895ZM101.181 27.3543L101.415 27.0815C101.726 26.6917 102.116 26.3409 102.623 26.1071C103.13 25.8732 103.675 25.7563 104.26 25.7563C105.156 25.7563 105.936 25.9901 106.521 26.4968C107.144 27.0035 107.573 27.822 107.846 29.0303C108.002 29.654 108.119 30.3166 108.158 31.0571C108.236 31.7977 108.236 32.5382 108.236 33.2788C108.236 34.0194 108.197 34.7209 108.158 35.4225C108.08 36.1241 108.002 36.7088 107.885 37.1765C107.573 38.5017 107.144 39.5541 106.521 40.3336C105.897 41.1131 105.078 41.5029 104.065 41.5029C103.675 41.5029 103.325 41.425 103.013 41.308C102.74 41.1911 102.428 40.9962 102.116 40.7624L101.765 40.4116C101.726 40.9572 101.765 41.9317 101.843 43.3348C101.921 44.738 101.999 45.7904 102.116 46.492L98.1406 47.8561C98.2186 47.1546 98.2575 43.7246 98.3355 37.5273C98.3745 31.3689 98.3355 27.5102 98.1406 26.0291H101.22C101.259 26.224 101.22 26.6138 101.181 27.3543ZM103.363 28.5236C102.818 28.5236 102.428 28.9524 102.194 29.8488C101.96 30.7453 101.843 31.9146 101.804 33.3957C101.765 34.9938 101.882 36.2021 102.116 37.0985C102.35 37.995 102.701 38.4237 103.208 38.4237C103.831 38.4237 104.299 37.995 104.572 37.0985C104.845 36.2021 105.001 34.9938 105.04 33.4737C105.078 31.9926 104.962 30.7843 104.689 29.8878C104.455 28.9913 103.987 28.5236 103.363 28.5236ZM91.9433 41.2691C91.9823 40.5285 92.0212 39.632 92.0992 38.6186C92.1382 37.6052 92.1771 36.5139 92.2161 35.3446C92.2551 34.2142 92.2551 33.0449 92.2941 31.8756C92.3331 30.7063 92.3331 29.615 92.3331 28.6016C92.3331 27.5882 92.3331 26.7307 92.2941 25.9901C92.2551 25.2496 92.2551 24.7039 92.2161 24.3921C92.1771 24.0413 92.0992 23.7295 91.9823 23.4956C91.8653 23.2617 91.6704 23.1058 91.4366 23.0279C91.1637 22.9499 90.8519 22.911 90.5011 22.911C90.1114 22.911 89.6436 22.911 89.059 22.911C89.098 22.5212 89.098 21.8586 89.098 21.0401C89.098 20.1826 89.059 19.5589 89.02 19.0912C89.6826 19.1302 91.2417 19.1692 93.6972 19.1302C96.1528 19.1302 97.7508 19.0912 98.4914 19.0522C98.4524 19.52 98.4134 20.1826 98.4134 21.0011C98.4134 21.8196 98.4134 22.4432 98.4524 22.872C97.9067 22.872 97.478 22.872 97.0882 22.911C96.6985 22.9499 96.4256 22.9889 96.2307 23.1058C96.0359 23.2228 95.8799 23.3397 95.802 23.4956C95.724 23.6515 95.6851 23.8854 95.6461 24.1972C95.6071 24.509 95.5681 25.0547 95.5681 25.8732C95.5681 26.6527 95.5681 27.5882 95.5681 28.6016C95.5681 29.654 95.6071 30.7843 95.6461 31.9536C95.6851 33.1619 95.724 34.3312 95.763 35.5005C95.802 36.6698 95.841 37.7222 95.8799 38.7356C95.9189 39.71 95.9579 40.5675 95.9969 41.2301L91.9433 41.2691Z" fill="#FF7500"/>
</svg>
