<svg width="16" height="17" viewBox="0 0 16 17" fill="none" xmlns="http://www.w3.org/2000/svg">
<path d="M15.52 2.7184C15.4133 2.61174 15.28 2.5584 15.12 2.5584C14.96 2.5584 14.8089 2.61174 14.6667 2.7184L7.46667 9.9184L4.85333 7.09174C4.74667 6.98507 4.60444 6.92285 4.42667 6.90507C4.24889 6.88729 4.09778 6.94063 3.97333 7.06507C3.84889 7.18952 3.78667 7.33174 3.78667 7.49174C3.78667 7.65174 3.84 7.78507 3.94667 7.89174L6.98667 11.1984C7.09333 11.3406 7.23556 11.4117 7.41333 11.4117C7.59111 11.4117 7.73333 11.3584 7.84 11.2517L15.52 3.57174C15.6622 3.46507 15.7333 3.32285 15.7333 3.14507C15.7333 2.96729 15.6622 2.82507 15.52 2.7184ZM15.4133 7.94507C15.2356 7.94507 15.0844 7.9984 14.96 8.10507C14.8356 8.21174 14.7733 8.35396 14.7733 8.53174C14.7733 9.77618 14.4711 10.914 13.8667 11.9451C13.2622 12.9762 12.4444 13.794 11.4133 14.3984C10.3822 15.0028 9.24444 15.3051 8 15.3051C6.75556 15.3051 5.61778 15.0028 4.58667 14.3984C3.55556 13.794 2.73778 12.9762 2.13333 11.9451C1.52889 10.914 1.22667 9.77618 1.22667 8.53174C1.22667 7.28729 1.52889 6.14952 2.13333 5.1184C2.73778 4.08729 3.55556 3.26952 4.58667 2.66507C5.61778 2.06063 6.75556 1.7584 8 1.7584C8.17778 1.7584 8.32 1.69618 8.42667 1.57174C8.53333 1.44729 8.58667 1.30507 8.58667 1.14507C8.58667 0.985071 8.53333 0.842849 8.42667 0.718405C8.32 0.59396 8.17778 0.531738 8 0.531738C6.54222 0.531738 5.2 0.887294 3.97333 1.5984C2.74667 2.30952 1.77778 3.2784 1.06667 4.50507C0.355556 5.73174 0 7.07396 0 8.53174C0 9.98952 0.355556 11.3317 1.06667 12.5584C1.77778 13.7851 2.74667 14.754 3.97333 15.4651C5.2 16.1762 6.54222 16.5317 8 16.5317C9.45778 16.5317 10.8 16.1762 12.0267 15.4651C13.2533 14.754 14.2222 13.7851 14.9333 12.5584C15.6444 11.3317 16 9.98952 16 8.53174C16 8.35396 15.9378 8.21174 15.8133 8.10507C15.6889 7.9984 15.5556 7.94507 15.4133 7.94507Z" fill="#FF7500"/>
</svg>
