<svg width="32" height="32" viewBox="0 0 32 32" fill="none" xmlns="http://www.w3.org/2000/svg">
<path d="M2 26C2 26.2652 2.10536 26.5196 2.29289 26.7071C2.48043 26.8946 2.73478 27 3 27H29C29.2652 27 29.5196 26.8946 29.7071 26.7071C29.8946 26.5196 30 26.2652 30 26V13.875H2V26ZM6.125 17.375C6.125 17.2424 6.17768 17.1152 6.27145 17.0214C6.36521 16.9277 6.49239 16.875 6.625 16.875H12.375C12.5076 16.875 12.6348 16.9277 12.7286 17.0214C12.8223 17.1152 12.875 17.2424 12.875 17.375V21.375C12.875 21.5076 12.8223 21.6348 12.7286 21.7286C12.6348 21.8223 12.5076 21.875 12.375 21.875H6.625C6.49239 21.875 6.36521 21.8223 6.27145 21.7286C6.17768 21.6348 6.125 21.5076 6.125 21.375V17.375ZM29 5H3C2.73478 5 2.48043 5.10536 2.29289 5.29289C2.10536 5.48043 2 5.73478 2 6V10.125H30V6C30 5.73478 29.8946 5.48043 29.7071 5.29289C29.5196 5.10536 29.2652 5 29 5Z" fill="#FF7500"/>
</svg>
