<svg width="33" height="32" viewBox="0 0 33 32" fill="none" xmlns="http://www.w3.org/2000/svg">
<path d="M3.33594 23H29.3359V25H3.33594V23ZM5.33594 26H27.3359V28H5.33594V26ZM30.3359 11C28.7452 10.9982 27.2201 10.3655 26.0953 9.24063C24.9705 8.11581 24.3378 6.59074 24.3359 5V4H8.33594V5C8.33412 6.59074 7.70139 8.11581 6.57657 9.24063C5.45174 10.3655 3.92668 10.9982 2.33594 11H1.33594V15H2.33594C3.92668 15.0018 5.45174 15.6345 6.57657 16.7594C7.70139 17.8842 8.33412 19.4093 8.33594 21V22H24.3359V21C24.3378 19.4093 24.9705 17.8842 26.0953 16.7594C27.2201 15.6345 28.7452 15.0018 30.3359 15H31.3359V11H30.3359ZM16.3359 19C15.1493 19 13.9892 18.6481 13.0025 17.9888C12.0158 17.3295 11.2468 16.3925 10.7927 15.2961C10.3385 14.1997 10.2197 12.9933 10.4512 11.8295C10.6827 10.6656 11.2542 9.59647 12.0933 8.75736C12.9324 7.91824 14.0015 7.3468 15.1654 7.11529C16.3293 6.88378 17.5357 7.0026 18.632 7.45672C19.7284 7.91085 20.6655 8.67988 21.3248 9.66658C21.984 10.6533 22.3359 11.8133 22.3359 13C22.3341 14.5907 21.7014 16.1158 20.5766 17.2406C19.4517 18.3655 17.9267 18.9982 16.3359 19Z" fill="#FF7500"/>
<path d="M6.33594 5V4H1.33594V9H2.33594C3.39645 8.99884 4.41319 8.57704 5.16309 7.82715C5.91298 7.07725 6.33478 6.06051 6.33594 5ZM2.33594 17H1.33594V22H6.33594V21C6.33478 19.9395 5.91298 18.9227 5.16309 18.1729C4.41319 17.423 3.39645 17.0012 2.33594 17ZM30.3359 9H31.3359V4H26.3359V5C26.3371 6.06051 26.7589 7.07725 27.5088 7.82715C28.2587 8.57704 29.2754 8.99884 30.3359 9ZM26.3359 21V22H31.3359V17H30.3359C29.2754 17.0012 28.2587 17.423 27.5088 18.1729C26.7589 18.9227 26.3371 19.9395 26.3359 21Z" fill="#FF7500"/>
<path d="M16.3359 17C18.5451 17 20.3359 15.2091 20.3359 13C20.3359 10.7909 18.5451 9 16.3359 9C14.1268 9 12.3359 10.7909 12.3359 13C12.3359 15.2091 14.1268 17 16.3359 17Z" fill="#FF7500"/>
</svg>
