<svg width="33" height="32" viewBox="0 0 33 32" fill="none" xmlns="http://www.w3.org/2000/svg">
<path d="M2.67188 26C2.67188 26.2652 2.77723 26.5196 2.96477 26.7071C3.1523 26.8946 3.40666 27 3.67188 27H29.6719C29.9371 27 30.1914 26.8946 30.379 26.7071C30.5665 26.5196 30.6719 26.2652 30.6719 26V13.875H2.67188V26ZM6.79688 17.375C6.79688 17.2424 6.84955 17.1152 6.94332 17.0214C7.03709 16.9277 7.16427 16.875 7.29688 16.875H13.0469C13.1795 16.875 13.3067 16.9277 13.4004 17.0214C13.4942 17.1152 13.5469 17.2424 13.5469 17.375V21.375C13.5469 21.5076 13.4942 21.6348 13.4004 21.7286C13.3067 21.8223 13.1795 21.875 13.0469 21.875H7.29688C7.16427 21.875 7.03709 21.8223 6.94332 21.7286C6.84955 21.6348 6.79688 21.5076 6.79688 21.375V17.375ZM29.6719 5H3.67188C3.40666 5 3.1523 5.10536 2.96477 5.29289C2.77723 5.48043 2.67188 5.73478 2.67188 6V10.125H30.6719V6C30.6719 5.73478 30.5665 5.48043 30.379 5.29289C30.1914 5.10536 29.9371 5 29.6719 5Z" fill="#FF7500"/>
</svg>
