 <svg width="11" height="26" viewBox="0 0 11 26" fill="none" xmlns="http://www.w3.org/2000/svg">
    <path d="M4.86509 0.698137C2.99372 1.49109 2.8272 3.99682 4.57962 4.98008C4.9761 5.2021 5.07918 5.22589 5.68975 5.22589C6.46685 5.22589 6.93469 5.04351 7.41046 4.56774C8.25892 3.71928 8.29857 2.25232 7.50561 1.34836C6.83953 0.595054 5.75319 0.32545 4.86509 0.698137Z"
          fill="currentColor"/>
    <path d="M3.10468 6.01092C1.86768 6.39946 0.987502 7.86642 0.614814 10.1818C0.464153 11.1175 0.376929 13.2823 0.440365 14.4559L0.503801 15.5977L0.757546 15.8197C1.11437 16.1448 1.56636 16.1369 1.89147 15.8197L2.12142 15.5898V13.6153C2.12142 11.6092 2.22451 10.4514 2.47825 9.47612C2.79543 8.23911 2.79543 8.15982 2.83508 16.692L2.87473 24.8118L3.05711 25.1052C3.26327 25.4382 3.77869 25.7237 4.17517 25.7237C4.52407 25.7237 5.00777 25.462 5.22979 25.1528L5.41217 24.8911L5.45182 19.8559L5.49147 14.8206H5.72935H5.96724L6.00689 19.8717C6.04653 24.8118 6.04653 24.9228 6.21305 25.1369C6.5223 25.5572 6.77605 25.684 7.27561 25.684C7.79896 25.684 8.06063 25.5413 8.36988 25.0893L8.54433 24.8277V16.7158C8.54433 11.5774 8.57605 8.59594 8.62362 8.59594C8.71878 8.59594 8.98838 9.48405 9.1549 10.3404C9.25006 10.8321 9.2897 11.6092 9.30556 13.1951C9.32142 14.3924 9.33728 15.4233 9.33728 15.4788C9.33728 15.5422 9.44037 15.6929 9.56724 15.8197C10.0192 16.2638 10.7487 16.0576 10.9232 15.4312C11.0421 14.9871 11.0183 11.8788 10.8835 10.7369C10.6536 8.73867 10.1144 7.38272 9.25799 6.58977C8.54433 5.92369 8.41746 5.8999 5.69763 5.90783C4.08794 5.90783 3.33464 5.93955 3.10468 6.01092Z"
          fill="currentColor"/>
</svg>