<svg width="33" height="32" viewBox="0 0 33 32" fill="none" xmlns="http://www.w3.org/2000/svg">
<g clip-path="url(#clip0_52313_27603)">
<path fill-rule="evenodd" clip-rule="evenodd" d="M4.67188 1C4.67188 0.44725 5.12113 0 5.67188 0H27.6719C28.2266 0 28.6719 0.44725 28.6719 1C28.6719 1.55275 28.2266 2 27.6719 2H5.67188C5.12113 2 4.67188 1.55275 4.67188 1ZM4.67188 3H28.6719L32.6719 11H0.671875L4.67188 3ZM3.67188 16.8593C1.94925 16.4122 0.671875 14.8613 0.671875 13V12H32.6719V13C32.6719 14.8613 31.3945 16.4122 29.6719 16.8593V30H31.6719C32.2266 30 32.6719 30.4473 32.6719 31C32.6719 31.5527 32.2266 32 31.6719 32H1.67188C1.12113 32 0.671875 31.5527 0.671875 31C0.671875 30.4473 1.12106 30 1.67188 30H3.67188V16.8593ZM24.6719 13C24.6719 15.209 22.8828 17 20.6719 17C18.4649 17 16.6719 15.209 16.6719 13C16.6719 15.209 14.8828 17 12.6719 17V30H27.6719V16.8593C25.9493 16.4122 24.6719 14.8613 24.6719 13ZM11.6719 16.8593V30H5.67188V16.8593C7.39456 16.4122 8.67188 14.8613 8.67188 13C8.67188 14.8613 9.94925 16.4122 11.6719 16.8593ZM9.12008 5.22252L7.12008 9.22252C7.03021 9.39834 6.85446 9.4999 6.67084 9.4999C6.59659 9.4999 6.52047 9.48427 6.44815 9.44715C6.20203 9.32409 6.10047 9.02334 6.22546 8.77721L8.22546 4.77721C8.35046 4.53109 8.64928 4.43152 8.89541 4.55259C9.14353 4.67564 9.24116 4.97639 9.12008 5.22252ZM11.1201 9.22252L13.1201 5.22252C13.2411 4.97639 13.1435 4.67564 12.8954 4.55259C12.6513 4.43152 12.3505 4.53109 12.2255 4.77721L10.2255 8.77721C10.1005 9.02334 10.202 9.32409 10.4481 9.44715C10.5205 9.48427 10.5966 9.4999 10.6708 9.4999C10.8545 9.4999 11.0302 9.39834 11.1201 9.22252ZM17.1718 9C17.1718 9.27738 16.9493 9.5 16.6719 9.5C16.3966 9.5 16.1719 9.27732 16.1719 9V5C16.1719 4.72262 16.3966 4.5 16.6719 4.5C16.9493 4.5 17.1718 4.72268 17.1718 5V9ZM22.6708 9.49979C22.7529 9.49979 22.8348 9.48028 22.913 9.43729C23.1552 9.30641 23.2411 9.00172 23.1122 8.75954L20.9248 4.75953C20.7919 4.51541 20.4833 4.42948 20.245 4.56229C20.0028 4.69316 19.913 4.99785 20.0458 5.24004L22.2334 9.24004C22.3232 9.40604 22.495 9.49979 22.6708 9.49979ZM26.8934 9.44725C26.8231 9.48438 26.7489 9.5 26.6708 9.5C26.4871 9.5 26.3114 9.39844 26.2255 9.22263L24.2255 5.22263C24.1004 4.9765 24.202 4.67575 24.4481 4.55269C24.6903 4.42962 24.995 4.52926 25.12 4.77732L27.12 8.77732C27.2411 9.02345 27.1434 9.32426 26.8934 9.44725ZM9.17188 21.8476V24.1524C8.87894 24.3281 8.67188 24.6327 8.67188 25C8.67188 25.5527 9.12106 26 9.67188 26C10.2266 26 10.6719 25.5527 10.6719 25C10.6719 24.6329 10.4668 24.3281 10.1719 24.1524V21.8476C10.4668 21.6719 10.6719 21.3671 10.6719 21C10.6719 20.4473 10.2266 20 9.67188 20C9.12113 20 8.67188 20.4473 8.67188 21C8.67188 21.3671 8.87888 21.6719 9.17188 21.8476ZM17.4933 21.6462L18.2002 22.3532L21.0284 19.5252L20.3215 18.8181L17.4933 21.6462ZM18.2002 25.1814L17.4933 24.4743L23.1495 18.8181L23.8566 19.5252L18.2002 25.1814ZM23.8543 22.3538L23.1473 21.6468L20.3191 24.4748L21.0262 25.1819L23.8543 22.3538Z" fill="#FF7500"/>
</g>
<defs>
<clipPath id="clip0_52313_27603">
<rect width="32" height="32" fill="white" transform="translate(0.671875)"/>
</clipPath>
</defs>
</svg>
