<svg width="104" height="105" viewBox="0 0 104 105" fill="none" xmlns="http://www.w3.org/2000/svg">
<path d="M27.25 2.53174C19.75 12.5317 34.75 17.5317 27.25 27.5317M52.25 2.53174C44.75 12.5317 59.75 17.5317 52.25 27.5317M77.25 2.53174C69.75 12.5317 84.75 17.5317 77.25 27.5317M97.25 72.5317C97.25 72.5317 87.25 47.5317 52.25 47.5317C17.25 47.5317 7.25 72.5317 7.25 72.5317L15.75 98.0317C16.75 100.532 19.25 102.532 22.25 102.532H82.25C84.75 102.532 87.75 100.532 88.75 98.0317L97.25 72.5317Z" stroke="#FF7500" stroke-width="4" stroke-linecap="round" stroke-linejoin="round"/>
<path d="M2.25 72.5317C10.75 72.5317 10.25 77.5317 18.75 77.5317C27.25 77.5317 27.25 72.5317 35.75 72.5317C44.25 72.5317 43.75 77.5317 52.25 77.5317C60.75 77.5317 60.75 72.5317 68.75 72.5317C77.25 72.5317 76.75 77.5317 85.25 77.5317C93.75 77.5317 93.75 72.5317 101.75 72.5317M34.75 72.5317L42.25 102.532M69.75 72.5317L62.25 102.532" stroke="#FF7500" stroke-width="4" stroke-linecap="round" stroke-linejoin="round"/>
</svg>
