<svg width="105" height="95" viewBox="0 0 105 95" fill="none" xmlns="http://www.w3.org/2000/svg">
<path d="M2.25 72.5317H102.25M52.25 22.5317C52.25 22.5317 59.75 17.3617 59.75 10.9867C59.75 -0.288263 44.75 -0.288263 44.75 10.9867C44.75 17.3617 52.25 22.5317 52.25 22.5317ZM52.25 22.5317C74.18 22.5317 92.26 38.9167 94.75 60.0317M52.25 22.5317C30.32 22.5317 12.24 38.9167 9.75 60.0317M7.25 72.5317L10.355 84.9567C10.8958 87.1201 12.1441 89.0407 13.9016 90.4132C15.6592 91.7857 17.825 92.5314 20.055 92.5317H84.44C86.67 92.5314 88.8358 91.7857 90.5934 90.4132C92.3509 89.0407 93.5992 87.1201 94.14 84.9567L97.25 72.5317" stroke="#FF7500" stroke-width="4" stroke-linecap="round" stroke-linejoin="round"/>
</svg>
