<svg width="95" height="95" viewBox="0 0 95 95" fill="none" xmlns="http://www.w3.org/2000/svg">
<path d="M52.019 5.03174C51.5938 4.27298 50.974 3.64125 50.2235 3.20156C49.473 2.76186 48.6189 2.53009 47.749 2.53009C46.8792 2.53009 46.0251 2.76186 45.2746 3.20156C44.5241 3.64125 43.9043 4.27298 43.479 5.03174C42.479 6.85174 41.5174 8.69507 40.594 10.5617C37.685 16.4665 35.2118 22.5761 33.194 28.8417C32.499 30.9967 30.439 32.4917 28.079 32.5567C20.9251 32.7448 13.7945 33.455 6.74405 34.6817C2.87405 35.3617 1.41905 39.7717 4.16905 42.4617C4.79571 43.0784 5.42905 43.6867 6.06905 44.2867C10.8544 48.806 15.914 53.0257 21.219 56.9217C23.054 58.2667 23.809 60.5717 23.109 62.6817C20.4425 70.697 18.5341 78.9448 17.409 87.3167C16.909 91.0917 20.949 93.7567 24.459 91.9567C31.4193 88.3879 38.0749 84.2541 44.359 79.5967C45.3433 78.8783 46.5304 78.4911 47.749 78.4911C48.9677 78.4911 50.1548 78.8783 51.139 79.5967C57.4219 84.2559 64.0777 88.3899 71.0391 91.9567C74.5441 93.7567 78.5891 91.0917 78.0891 87.3167C77.8957 85.9001 77.684 84.4917 77.454 83.0917C76.299 76.1671 74.6055 69.343 72.389 62.6817C71.689 60.5717 72.439 58.2667 74.279 56.9217C80.2977 52.5117 85.9954 47.6795 91.329 42.4617C94.079 39.7717 92.629 35.3617 88.754 34.6817C81.7046 33.4479 74.5734 32.7376 67.419 32.5567C66.2879 32.5387 65.1898 32.1724 64.2745 31.5076C63.3591 30.8427 62.6711 29.9118 62.304 28.8417C59.6475 20.5951 56.2033 12.6183 52.019 5.03174Z" stroke="#FF7500" stroke-width="4" stroke-linecap="round" stroke-linejoin="round"/>
</svg>
