<svg width="32" height="32" viewBox="0 0 32 32" fill="none" xmlns="http://www.w3.org/2000/svg">
<path fill-rule="evenodd" clip-rule="evenodd" d="M3.86719 16.9271C3.86719 10.2364 9.30985 4.79376 16.0005 4.79376C22.6912 4.79376 28.1339 10.2364 28.1339 16.9271C28.1339 20.2308 26.8035 23.2269 24.6542 25.4178L26.8841 27.6478C27.392 28.1548 27.392 28.9781 26.8841 29.486C26.631 29.7399 26.2982 29.8665 25.9654 29.8665C25.6326 29.8665 25.2998 29.739 25.0468 29.486L22.6357 27.0749C20.7273 28.3264 18.4497 29.0613 16.0014 29.0613C13.5522 29.0613 11.2737 28.3264 9.36446 27.0732L6.95166 29.486C6.69773 29.7399 6.36492 29.8665 6.03212 29.8665C5.69933 29.8665 5.36652 29.739 5.11172 29.4851C4.60385 28.9781 4.60385 28.1539 5.11172 27.6469L7.34425 25.4144C5.19665 23.2243 3.86719 20.23 3.86719 16.9271ZM19.8832 21.2082C20.2126 21.2082 20.5505 21.0869 20.8019 20.8269C21.3045 20.3243 21.3045 19.5009 20.8019 18.9896L17.3006 15.4882V12.1083C17.3006 11.3889 16.7199 10.8082 16.0005 10.8082C15.2812 10.8082 14.7005 11.3889 14.7005 12.1083V16.0256C14.7005 16.3723 14.8392 16.7016 15.0819 16.9442L18.9646 20.8269C19.2159 21.0869 19.5452 21.2082 19.8832 21.2082Z" fill="#FF7500"/>
<path fill-rule="evenodd" clip-rule="evenodd" d="M24.1642 2.14218C22.4742 2.14218 20.9316 2.87018 19.8828 4.07485C23.7135 5.22751 26.8248 8.04419 28.3675 11.6842C29.3121 10.6528 29.8668 9.29219 29.8668 7.84485C29.8668 4.70751 27.3102 2.14218 24.1642 2.14218Z" fill="#FF7500"/>
<path fill-rule="evenodd" clip-rule="evenodd" d="M12.2208 4.04C11.1461 2.85266 9.60348 2.13333 7.92215 2.13333C4.73281 2.13333 2.13281 4.73333 2.13281 7.92266C2.13281 9.36133 2.67881 10.722 3.59748 11.762C5.14881 8.05266 8.31215 5.184 12.2208 4.04Z" fill="#FF7500"/>
</svg>
